<svg id="SvgjsSvg1000" xmlns="http://www.w3.org/2000/svg" version="1.1" xmlns:xlink="http://www.w3.org/1999/xlink" xmlns:svgjs="http://svgjs.com/svgjs" width="54" height="63" viewBox="0 0 54 63"><title>Beer icon</title><desc>Created with Avocode.</desc><defs id="SvgjsDefs1001"></defs><path id="SvgjsPath1007" d="M298.24 848L260.76 848C257.59 848 255 845.53 255 842.5C255 839.47 257.59 837 260.76 837L298.24 837C301.41 837 304 839.47 304 842.5C304 845.53 301.41 848 298.24 848ZM260.76 839.75C259.17 839.75 257.88 840.98 257.88 842.5C257.88 844.02 259.17 845.25 260.76 845.25L298.24 845.25C299.83 845.25 301.12 844.02 301.12 842.5C301.12 840.98 299.83 839.75 298.24 839.75Z " fill="#000000" fill-opacity="1" transform="matrix(1,0,0,1,-255,-785)"></path><path id="SvgjsPath1008" d="M298.5 839C297.74 839 297.08 838.46 297.01 837.73L294.01 809.5500000000001C293.92 808.7700000000001 294.53 808.08 295.34999999999997 808.0000000000001C296.15999999999997 807.9400000000002 296.90999999999997 808.4900000000001 296.98999999999995 809.2700000000001L299.98999999999995 837.45C300.0799999999999 838.23 299.46999999999997 838.9200000000001 298.65 838.99C298.59999999999997 839 298.54999999999995 839 298.5 839Z " fill="#000000" fill-opacity="1" transform="matrix(1,0,0,1,-255,-785)"></path><path id="SvgjsPath1009" d="M260.5 840C260.45 840 260.39 840 260.33 839.99C259.51 839.9 258.91999999999996 839.19 259.01 838.39L262.01 812.29C262.09999999999997 811.49 262.81 810.92 263.67 811.01C264.49 811.1 265.08000000000004 811.8199999999999 264.99 812.61L261.99 838.71C261.91 839.45 261.26 840 260.5 840Z " fill="#000000" fill-opacity="1" transform="matrix(1,0,0,1,-255,-785)"></path><path id="SvgjsPath1010" d="M269.34 833C269.29999999999995 833 269.28 833 269.25 833C268.51 832.94 267.95 832.27 268 831.49L269.34 810.32C269.39 809.5400000000001 270.03999999999996 808.98 270.75 809C271.49 809.05 272.05 809.73 272 810.5L270.66 831.68C270.62 832.43 270.03000000000003 833 269.34000000000003 833Z " fill="#000000" fill-opacity="1" transform="matrix(1,0,0,1,-255,-785)"></path><path id="SvgjsPath1011" d="M279.5 834C278.67 834 278 833.35 278 832.56L278 809.4399999999999C278 808.65 278.67 807.9999999999999 279.5 807.9999999999999C280.33 807.9999999999999 281 808.6499999999999 281 809.4399999999999L281 832.56C281 833.3499999999999 280.33 834 279.5 834Z " fill="#000000" fill-opacity="1" transform="matrix(1,0,0,1,-255,-785)"></path><path id="SvgjsPath1012" d="M288.67 834C287.97 834 287.38 833.41 287.34000000000003 832.65L286.00000000000006 809.53C285.95000000000005 808.74 286.51000000000005 808.05 287.25000000000006 808C288.05000000000007 807.96 288.62000000000006 808.56 288.6600000000001 809.35L290.00000000000006 832.47C290.05000000000007 833.26 289.49000000000007 833.95 288.75000000000006 834C288.7200000000001 834 288.69000000000005 834 288.6700000000001 834Z " fill="#000000" fill-opacity="1" transform="matrix(1,0,0,1,-255,-785)"></path><path id="SvgjsPath1013" d="M265.06 814C259.51 814 255 809.45 255 803.85C255 798.25 259.51 793.7 265.06 793.7C266.72 793.7 268.35 794.12 269.79 794.9200000000001C271.19 789.19 276.28000000000003 785.0000000000001 282.31 785.0000000000001C289.01 785.0000000000001 294.53000000000003 790.1500000000001 295.19 796.7300000000001C298.49 797.3800000000001 301 800.3300000000002 301 803.8500000000001C301 807.8500000000001 297.78 811.1000000000001 293.81 811.1000000000001C291.99 811.1000000000001 290.29 810.4200000000002 288.97 809.1900000000002C284.36 812.0300000000002 278.26000000000005 811.5400000000002 274.18 808.1200000000001C272.56 811.6400000000001 269.05 814.0000000000001 265.06 814.0000000000001ZM265.06 796.6C261.1 796.6 257.88 799.85 257.88 803.85C257.88 807.85 261.1 811.1 265.06 811.1C268.52 811.1 271.49 808.6 272.11 805.16C272.22 804.61 272.63 804.16 273.17 804.02C273.71000000000004 803.88 274.28000000000003 804.06 274.64000000000004 804.5C277.97 808.57 284.12000000000006 809.34 288.34000000000003 806.13C288.64000000000004 805.9 289.03000000000003 805.79 289.41 805.85C289.79 805.91 290.13000000000005 806.11 290.36 806.4300000000001C291.19 807.5500000000001 292.44 808.2 293.81 808.2C296.19 808.2 298.13 806.25 298.13 803.85C298.13 801.45 296.19 799.5 293.81 799.5C293.02 799.5 292.38 798.85 292.38 798.05C292.38 792.4499999999999 287.86 787.9 282.31 787.9C276.98 787.9 272.58 792.13 272.31 797.53C272.28000000000003 798.0899999999999 271.93 798.5899999999999 271.42 798.8C270.90000000000003 799.01 270.31 798.9 269.90000000000003 798.53C268.56000000000006 797.28 266.84000000000003 796.6 265.06000000000006 796.6Z " fill="#000000" fill-opacity="1" transform="matrix(1,0,0,1,-255,-785)"></path><path id="SvgjsPath1014" d="M297.44 834C296.65 834 296 833.35 296 832.55C296 831.75 296.65 831.0999999999999 297.44 831.0999999999999C302.21999999999997 831.0999999999999 306.11 827.1999999999999 306.11 822.3999999999999L306.11 812.2499999999999C306.11 809.8499999999999 304.17 807.8999999999999 301.78000000000003 807.8999999999999L298.89000000000004 807.8999999999999C298.09000000000003 807.8999999999999 297.44000000000005 807.2499999999999 297.44000000000005 806.4499999999998C297.44000000000005 805.6499999999999 298.09000000000003 804.9999999999998 298.89000000000004 804.9999999999998L301.78000000000003 804.9999999999998C305.76000000000005 804.9999999999998 309.00000000000006 808.2499999999998 309.00000000000006 812.2499999999998L309.00000000000006 822.3999999999997C309.00000000000006 828.7999999999997 303.82000000000005 833.9999999999998 297.44000000000005 833.9999999999998Z " fill="#000000" fill-opacity="1" transform="matrix(1,0,0,1,-255,-785)"></path></svg>