<svg id="SvgjsSvg1018" xmlns="http://www.w3.org/2000/svg" version="1.1" xmlns:xlink="http://www.w3.org/1999/xlink" xmlns:svgjs="http://svgjs.com/svgjs" width="69" height="49" viewBox="0 0 69 49"><title>Brewman icon</title><desc>Created with Avocode.</desc><defs id="SvgjsDefs1019"></defs><path id="SvgjsPath1020" d="M722.67 822.8C721.4799999999999 818.3599999999999 721.88 814.8 723.8399999999999 812.2299999999999C725.9599999999999 809.4599999999999 729.8399999999999 807.9999999999999 735.0699999999999 807.9999999999999C740.64 807.9999999999999 746.81 808.3299999999999 749.5899999999999 812.2999999999998C751.6399999999999 815.2099999999998 751.56 819.6299999999999 749.3399999999999 825.7999999999998C746.8399999999999 832.7799999999999 742.92 833.9599999999998 735.0699999999999 833.9599999999998C729.39 833.9599999999998 725.4599999999999 833.1899999999998 722.67 822.7999999999998ZM726.13 813.99C724.73 815.8100000000001 724.5 818.53 725.45 822.05C727.87 831.0799999999999 730.58 831.0799999999999 735.07 831.0799999999999C742.6500000000001 831.0799999999999 744.82 829.91 746.6400000000001 824.8199999999999C748.4900000000001 819.68 748.69 816.03 747.2400000000001 813.9699999999999C745.4600000000002 811.41 741.0800000000002 810.8899999999999 735.0700000000002 810.8899999999999C732.0700000000002 810.8899999999999 728.0800000000002 811.4199999999998 726.1300000000001 813.9899999999999Z " fill="#000000" fill-opacity="1" transform="matrix(1,0,0,1,-719,-808)"></path><path id="SvgjsPath1021" d="M757.72 825.8C755.51 819.63 755.4300000000001 815.2099999999999 757.47 812.3C760.25 808.3299999999999 766.4300000000001 808 772 808C777.23 808 781.11 809.46 783.22 812.23C785.19 814.8000000000001 785.59 818.36 784.4 822.8000000000001C781.61 833.1800000000001 777.68 833.96 772 833.96C764.15 833.96 760.23 832.7800000000001 757.72 825.8000000000001ZM759.83 813.96C758.38 816.02 758.59 819.6700000000001 760.4300000000001 824.82C762.2500000000001 829.9100000000001 764.4200000000001 831.08 772.0000000000001 831.08C776.4900000000001 831.08 779.2000000000002 831.08 781.6200000000001 822.0500000000001C782.5700000000002 818.5200000000001 782.3400000000001 815.8100000000001 780.9400000000002 813.98C778.9900000000001 811.4200000000001 775.0000000000001 810.88 772.0000000000001 810.88C765.9900000000001 810.88 761.6200000000001 811.41 759.8300000000002 813.96Z " fill="#000000" fill-opacity="1" transform="matrix(1,0,0,1,-719,-808)"></path><path id="SvgjsPath1022" d="M720.44 814.77C719.6400000000001 814.77 719 814.12 719 813.3299999999999L719 810.4399999999999C719 809.65 719.64 808.9999999999999 720.44 808.9999999999999C721.23 808.9999999999999 721.8800000000001 809.6499999999999 721.8800000000001 810.4399999999999L721.8800000000001 813.3299999999999C721.8800000000001 814.1199999999999 721.2300000000001 814.77 720.44 814.77Z " fill="#000000" fill-opacity="1" transform="matrix(1,0,0,1,-719,-808)"></path><path id="SvgjsPath1023" d="M786.44 814.77C785.6500000000001 814.77 785 814.12 785 813.3299999999999L785 810.4399999999999C785 809.65 785.65 808.9999999999999 786.44 808.9999999999999C787.23 808.9999999999999 787.8800000000001 809.6499999999999 787.8800000000001 810.4399999999999L787.8800000000001 813.3299999999999C787.8800000000001 814.1199999999999 787.2300000000001 814.77 786.44 814.77Z " fill="#000000" fill-opacity="1" transform="matrix(1,0,0,1,-719,-808)"></path><path id="SvgjsPath1024" d="M754.1 813.57C751.94 813.57 749.6800000000001 813.33 747.1700000000001 812.86C746.3900000000001 812.71 745.8800000000001 811.96 746.0200000000001 811.1800000000001C746.1700000000001 810.3900000000001 746.9200000000001 809.8800000000001 747.7 810.0300000000001C752.34 810.9000000000001 755.99 810.9000000000001 759.9100000000001 810.0300000000001C760.6800000000001 809.8700000000001 761.45 810.3500000000001 761.6200000000001 811.1300000000001C761.8000000000001 811.9100000000001 761.3100000000002 812.6800000000001 760.5300000000001 812.8500000000001C758.3600000000001 813.3300000000002 756.2800000000001 813.5700000000002 754.1000000000001 813.5700000000002Z " fill="#000000" fill-opacity="1" transform="matrix(1,0,0,1,-719,-808)"></path><path id="SvgjsPath1025" d="M757.82 823.21C757.21 823.21 756.6400000000001 822.82 756.45 822.2C755.5200000000001 819.2700000000001 754.94 818.88 753.09 818.88C751.22 818.88 750.63 819.47 749.8100000000001 822.18C749.58 822.9499999999999 748.7800000000001 823.38 748.0200000000001 823.15C747.2600000000001 822.91 746.83 822.11 747.0600000000001 821.35C747.8800000000001 818.64 749.0100000000001 816 753.09 816C757.1600000000001 816 758.3000000000001 818.52 759.19 821.33C759.4200000000001 822.09 759 822.9000000000001 758.25 823.14C758.11 823.1899999999999 757.96 823.21 757.82 823.21Z " fill="#000000" fill-opacity="1" transform="matrix(1,0,0,1,-719,-808)"></path><path id="SvgjsPath1026" d="M762.58 856.61C760.86 856.61 759.01 856.45 757.08 856.13C756.97 856.11 756.87 856.08 756.7800000000001 856.04C755.4200000000001 855.73 754.1100000000001 855.01 753.0100000000001 853.9699999999999C751.8900000000001 855.0099999999999 750.5800000000002 855.7299999999999 749.2200000000001 856.05C749.1300000000001 856.0899999999999 749.0300000000001 856.1099999999999 748.9300000000002 856.13C747.0000000000002 856.45 745.1500000000002 856.61 743.4200000000002 856.61C729.8600000000002 856.61 727.0700000000002 846.61 727.0500000000002 846.51C726.9200000000002 846.03 727.0500000000002 845.51 727.3900000000002 845.15C727.7300000000002 844.79 728.2400000000002 844.62 728.7300000000002 844.73C728.7300000000002 844.73 729.7600000000002 844.94 731.2900000000002 844.94C734.1300000000002 844.94 738.1800000000002 844.2700000000001 741.3800000000002 841.0600000000001C741.4800000000002 840.96 741.5900000000003 840.8800000000001 741.7200000000003 840.8100000000001C745.0100000000002 838.2 749.9300000000003 838.5000000000001 753.0100000000002 841.2500000000001C756.0000000000002 838.5600000000001 760.7600000000002 838.2000000000002 764.0500000000002 840.6200000000001C764.2600000000002 840.7100000000002 764.4500000000002 840.8800000000001 764.6300000000002 841.0600000000002C767.8300000000003 844.2600000000002 771.8800000000002 844.9300000000002 774.7200000000003 844.9300000000002C776.2500000000002 844.9300000000002 777.2800000000002 844.7300000000001 777.2900000000003 844.7300000000001C777.7700000000003 844.6200000000001 778.2800000000003 844.7900000000001 778.6200000000003 845.1500000000001C778.9600000000004 845.5100000000001 779.1000000000004 846.0200000000001 778.9700000000004 846.5100000000001C778.9400000000004 846.6100000000001 776.1500000000003 856.6100000000001 762.5800000000004 856.6100000000001ZM757.79 853.32C759.4699999999999 853.59 761.0899999999999 853.73 762.5799999999999 853.73C770.28 853.73 773.7599999999999 850.1800000000001 775.2299999999999 847.8100000000001C771.9899999999999 847.9000000000001 766.8699999999999 847.23 762.81 843.3000000000001C762.76 843.2700000000001 762.7099999999999 843.2400000000001 762.67 843.2C760.12 841.0400000000001 756.15 841.63 754.14 844.23C753.6 844.94 752.41 844.94 751.87 844.23C749.86 841.62 745.89 841.03 743.34 843.2C743.2900000000001 843.24 743.24 843.2700000000001 743.2 843.3000000000001C739.1500000000001 847.22 734.0600000000001 847.9000000000001 730.7800000000001 847.8100000000001C732.2500000000001 850.1700000000001 735.7300000000001 853.73 743.4200000000001 853.73C744.9200000000001 853.73 746.5300000000001 853.59 748.22 853.32C748.28 853.3000000000001 748.35 853.2800000000001 748.4300000000001 853.2600000000001C749.6600000000001 853.0300000000001 750.95 852.1700000000001 751.85 850.9500000000002C752.4 850.2300000000001 753.61 850.2300000000001 754.15 850.9500000000002C755.06 852.1700000000002 756.34 853.0300000000002 757.5799999999999 853.2600000000001C757.65 853.2800000000001 757.7299999999999 853.3000000000001 757.79 853.32Z " fill="#000000" fill-opacity="1" transform="matrix(1,0,0,1,-719,-808)"></path></svg>