<svg id="SvgjsSvg1045" xmlns="http://www.w3.org/2000/svg" version="1.1" xmlns:xlink="http://www.w3.org/1999/xlink" xmlns:svgjs="http://svgjs.com/svgjs" width="59" height="63" viewBox="0 0 59 63"><title>Crab icon</title><desc>Created with Avocode.</desc><defs id="SvgjsDefs1046"></defs><path id="SvgjsPath1047" d="M410.51 1053.25C411.33 1052.05 411.74 1050.64 411.63 1049.17C411.62 1048.95 411.56 1048.74 411.52 1048.52L421.89 1037.1399999999999C423.7 1035.1599999999999 424.09 1032.2199999999998 422.87 1029.83L420.8 1025.8C422.99 1020.7299999999999 421.91 1017.2099999999999 420.59000000000003 1015.13C418.07000000000005 1011.18 412.66 1009 405.34000000000003 1009C404.82000000000005 1009 404.34000000000003 1009.32 404.14000000000004 1009.8C403.94000000000005 1010.29 404.05000000000007 1010.8399999999999 404.42 1011.2099999999999C407.40000000000003 1014.18 409.11 1016.1899999999999 409.88 1017.2699999999999C408.84 1017.4299999999998 407.21 1017.4999999999999 406.04 1017.0199999999999C405.21000000000004 1016.6899999999998 405.06 1016.2399999999999 405.01000000000005 1016.0899999999999C404.79 1015.4499999999999 404.1 1015.0799999999999 403.44000000000005 1015.2699999999999C402.78000000000003 1015.4499999999998 402.37000000000006 1016.0999999999999 402.51000000000005 1016.7699999999999C403.55000000000007 1021.8899999999999 405.9800000000001 1025.6699999999998 409.35 1027.3899999999999C412.06 1028.78 415.22 1028.82 418.75 1027.4899999999998L420.55 1031.0199999999998C421.29 1032.4499999999998 421.05 1034.2099999999998 419.97 1035.3999999999999L410.42 1045.8799999999999C410.12 1045.4599999999998 409.79 1045.07 409.39000000000004 1044.7299999999998L405.51000000000005 1041.3199999999997C406.12000000000006 1040.6299999999997 406.47 1039.7499999999998 406.47 1038.7999999999997C406.47 1036.6599999999996 404.72 1034.9099999999996 402.57000000000005 1034.9099999999996C401.44000000000005 1034.9099999999996 400.41 1035.4099999999996 399.70000000000005 1036.2199999999996L395.64000000000004 1032.6499999999996C395.52000000000004 1032.5799999999997 395.48 1032.5599999999997 395.43000000000006 1032.5299999999997C395.24000000000007 1032.4099999999999 395.0300000000001 1032.3399999999997 394.81000000000006 1032.3299999999997C394.5300000000001 1032.3399999999997 394.34000000000003 1032.4099999999996 394.15000000000003 1032.5099999999998C393.98 1032.6199999999997 393.95000000000005 1032.6299999999997 393.93 1032.6499999999999L389.87 1036.2099999999998C389.16 1035.3999999999999 388.14 1034.9099999999999 387 1034.9099999999999C384.85 1034.9099999999999 383.11 1036.6599999999999 383.11 1038.8C383.11 1039.74 383.46000000000004 1040.6299999999999 384.06 1041.32L380.18 1044.72C379.78000000000003 1045.06 379.45 1045.46 379.15000000000003 1045.8700000000001L369.61 1035.4C368.52000000000004 1034.21 368.28000000000003 1032.45 369.02000000000004 1031.02L370.82000000000005 1027.5C374.35 1028.82 377.51000000000005 1028.79 380.2300000000001 1027.4C383.6000000000001 1025.67 386.0200000000001 1021.9000000000001 387.06000000000006 1016.7800000000001C387.20000000000005 1016.1100000000001 386.7900000000001 1015.45 386.13000000000005 1015.2700000000001C385.46000000000004 1015.08 384.78000000000003 1015.45 384.56000000000006 1016.1000000000001C384.51000000000005 1016.2400000000001 384.36000000000007 1016.6900000000002 383.5400000000001 1017.0200000000001C382.36000000000007 1017.5000000000001 380.74000000000007 1017.4300000000001 379.7000000000001 1017.2700000000001C380.4600000000001 1016.2 382.1800000000001 1014.1800000000001 385.1500000000001 1011.2200000000001C385.5200000000001 1010.8400000000001 385.6300000000001 1010.2900000000002 385.43000000000006 1009.8000000000002C385.2300000000001 1009.3200000000002 384.76000000000005 1009.0000000000002 384.2300000000001 1009.0000000000002C376.9100000000001 1009.0000000000002 371.50000000000006 1011.1800000000002 368.99000000000007 1015.1300000000002C367.6600000000001 1017.2100000000003 366.58000000000004 1020.7300000000002 368.77000000000004 1025.8100000000002L366.71000000000004 1029.8400000000001C365.48 1032.2200000000003 365.87000000000006 1035.16 367.68000000000006 1037.14L378.0400000000001 1048.5200000000002C378.00000000000006 1048.7400000000002 377.9500000000001 1048.9500000000003 377.93000000000006 1049.1800000000003C377.82000000000005 1050.6500000000003 378.2300000000001 1052.0600000000004 379.0400000000001 1053.2500000000002C376.63000000000005 1053.6700000000003 373.9500000000001 1054.9900000000002 371.87000000000006 1057.0300000000002C369.89000000000004 1058.9700000000003 367.52000000000004 1062.3300000000002 367.52000000000004 1067.3000000000002C367.52000000000004 1068.0200000000002 368.11 1068.6000000000001 368.82000000000005 1068.6000000000001C369.5400000000001 1068.6000000000001 370.12000000000006 1068.0200000000002 370.12000000000006 1067.3000000000002C370.12000000000006 1063.2300000000002 372.06000000000006 1060.4800000000002 373.68000000000006 1058.88C376.02000000000004 1056.6000000000001 378.80000000000007 1055.5700000000002 380.4800000000001 1055.64C380.63000000000005 1055.63 380.7700000000001 1055.5800000000002 380.9000000000001 1055.5400000000002L382.1600000000001 1057.0200000000002C379.5700000000001 1057.4200000000003 374.6000000000001 1059.2500000000002 373.12000000000006 1062.8300000000002C372.39000000000004 1064.5700000000002 372.25000000000006 1067.38 375.69000000000005 1070.8100000000002C375.95000000000005 1071.0600000000002 376.28000000000003 1071.1900000000003 376.61000000000007 1071.1900000000003C376.94000000000005 1071.1900000000003 377.2800000000001 1071.0600000000002 377.5300000000001 1070.8100000000002C378.0300000000001 1070.3100000000002 378.0300000000001 1069.4800000000002 377.5300000000001 1068.9800000000002C375.5800000000001 1067.0400000000002 374.9000000000001 1065.3000000000002 375.5200000000001 1063.8200000000002C376.61000000000007 1061.2000000000003 381.3800000000001 1059.5300000000002 383.1000000000001 1059.5300000000002C383.44000000000005 1059.5300000000002 383.75000000000006 1059.39 383.99000000000007 1059.1700000000003L384.50000000000006 1059.7800000000002C383.13000000000005 1060.2700000000002 381.49000000000007 1061.4500000000003 380.81000000000006 1063.2200000000003C380.18000000000006 1064.8400000000001 380.14000000000004 1067.4700000000003 383.4800000000001 1070.8100000000002C383.74000000000007 1071.0600000000002 384.07000000000005 1071.1900000000003 384.4000000000001 1071.1900000000003C384.7300000000001 1071.1900000000003 385.0600000000001 1071.0600000000002 385.3100000000001 1070.8100000000002C385.8200000000001 1070.3100000000002 385.8200000000001 1069.4800000000002 385.3100000000001 1068.9800000000002C384.0200000000001 1067.6800000000003 382.60000000000014 1065.7900000000002 383.23000000000013 1064.1500000000003C383.7500000000001 1062.8200000000004 385.35000000000014 1062.1400000000003 385.7600000000001 1062.1200000000003C385.9700000000001 1062.1100000000004 386.1600000000001 1062.0400000000004 386.3300000000001 1061.9400000000003L393.7900000000001 1070.7200000000003C393.8400000000001 1070.7800000000002 393.9000000000001 1070.8000000000002 393.9500000000001 1070.8500000000004C394.0200000000001 1070.9100000000003 394.0900000000001 1070.9700000000003 394.17000000000013 1071.0100000000004C394.3200000000001 1071.0900000000004 394.48000000000013 1071.1400000000006 394.65000000000015 1071.1500000000005C394.82000000000016 1071.1900000000005 394.8600000000001 1071.1600000000005 394.89000000000016 1071.1500000000005C395.08000000000015 1071.1400000000006 395.2400000000002 1071.0900000000006 395.40000000000015 1071.0000000000005C395.48000000000013 1070.9500000000005 395.54000000000013 1070.9000000000005 395.60000000000014 1070.8500000000004C395.66000000000014 1070.8000000000004 395.72000000000014 1070.7700000000004 395.77000000000015 1070.7200000000003L403.23000000000013 1061.9300000000003C403.40000000000015 1062.0300000000002 403.59000000000015 1062.1100000000004 403.8100000000001 1062.1200000000003C404.22000000000014 1062.1400000000003 405.8200000000001 1062.8100000000004 406.3300000000001 1064.1500000000003C406.9700000000001 1065.7900000000004 405.5500000000001 1067.6800000000003 404.2500000000001 1068.9800000000002C403.7500000000001 1069.4800000000002 403.7500000000001 1070.3000000000002 404.2500000000001 1070.8100000000002C404.5100000000001 1071.0600000000002 404.8400000000001 1071.1900000000003 405.17000000000013 1071.1900000000003C405.5000000000001 1071.1900000000003 405.84000000000015 1071.0600000000002 406.08000000000015 1070.8100000000002C409.4300000000002 1067.4800000000002 409.38000000000017 1064.8400000000001 408.75000000000017 1063.2200000000003C408.07000000000016 1061.4500000000003 406.44000000000017 1060.2600000000002 405.0500000000002 1059.7800000000002L405.57000000000016 1059.1700000000003C405.8100000000002 1059.3900000000003 406.1200000000002 1059.5300000000002 406.47000000000014 1059.5300000000002C408.19000000000017 1059.5300000000002 412.96000000000015 1061.1900000000003 414.0500000000001 1063.8200000000002C414.67000000000013 1065.3000000000002 413.9900000000001 1067.0300000000002 412.04000000000013 1068.9800000000002C411.53000000000014 1069.4800000000002 411.53000000000014 1070.3000000000002 412.04000000000013 1070.8100000000002C412.3000000000001 1071.0600000000002 412.6300000000001 1071.1900000000003 412.96000000000015 1071.1900000000003C413.29000000000013 1071.1900000000003 413.6200000000002 1071.0600000000002 413.88000000000017 1070.8100000000002C417.32000000000016 1067.38 417.1700000000002 1064.5700000000002 416.45000000000016 1062.8300000000002C414.96000000000015 1059.2400000000002 409.9900000000002 1057.41 407.39000000000016 1057.0200000000002L408.65000000000015 1055.5500000000002C408.78000000000014 1055.5900000000001 408.92000000000013 1055.63 409.09000000000015 1055.64C410.75000000000017 1055.5700000000002 413.5500000000001 1056.6000000000001 415.88000000000017 1058.88C417.51000000000016 1060.47 419.45000000000016 1063.23 419.45000000000016 1067.3000000000002C419.45000000000016 1068.0200000000002 420.03000000000014 1068.6000000000001 420.75000000000017 1068.6000000000001C421.4700000000002 1068.6000000000001 422.0500000000002 1068.0200000000002 422.0400000000002 1067.3000000000002C422.0400000000002 1062.3300000000002 419.6800000000002 1058.9700000000003 417.7000000000002 1057.0300000000002C415.6000000000002 1054.9800000000002 412.9600000000002 1053.6700000000003 410.5100000000002 1053.2500000000002ZM408.08 1052.22L394.78 1067.88L381.46999999999997 1052.2C380.78 1051.41 380.44 1050.4 380.52 1049.3600000000001C380.59 1048.3200000000002 381.07 1047.3700000000001 381.88 1046.68L386.99 1042.19C387.33 1041.89 387.49 1041.43 387.41 1040.98C387.32000000000005 1040.53 387 1040.15 386.57000000000005 1040C386.0400000000001 1039.81 385.70000000000005 1039.34 385.70000000000005 1038.8C385.70000000000005 1038.09 386.28000000000003 1037.51 387.00000000000006 1037.51C387.58000000000004 1037.51 388.08000000000004 1037.93 388.21000000000004 1038.54C388.31000000000006 1038.99 388.64000000000004 1039.36 389.08000000000004 1039.5C389.51000000000005 1039.65 390.00000000000006 1039.55 390.34000000000003 1039.25L394.78000000000003 1035.35L399.22 1039.26C399.57000000000005 1039.56 400.05 1039.66 400.49 1039.51C400.93 1039.37 401.26 1039 401.35 1038.55C401.48 1037.94 401.99 1037.51 402.57000000000005 1037.51C403.2900000000001 1037.51 403.87000000000006 1038.09 403.87000000000006 1038.8C403.87000000000006 1039.34 403.5300000000001 1039.81 403.00000000000006 1040C402.56000000000006 1040.15 402.24000000000007 1040.52 402.1600000000001 1040.97C402.0700000000001 1041.43 402.2300000000001 1041.89 402.5700000000001 1042.19L407.6800000000001 1046.68C408.4900000000001 1047.3700000000001 408.97000000000014 1048.3200000000002 409.04000000000013 1049.3600000000001C409.1200000000001 1050.4 408.78000000000014 1051.41 408.08000000000015 1052.22ZM371.17 1016.52C372.81 1013.9499999999999 376.3 1012.29 380.98 1011.77C375.71000000000004 1017.36 376.39000000000004 1018.17 377 1018.9C377.89 1019.97 381.26 1020.16 383.11 1019.8199999999999C383.23 1019.8 383.35 1019.78 383.46000000000004 1019.7499999999999C382.41 1022.2699999999999 380.88000000000005 1024.1399999999999 379.04 1025.09C376.87 1026.1999999999998 374.24 1026.12 371.18 1024.85C369.77 1021.6099999999999 369.77 1018.7399999999999 371.17 1016.5199999999999ZM418.38 1024.85C415.34 1026.12 412.7 1026.1999999999998 410.53 1025.09C408.69 1024.1399999999999 407.15 1022.2699999999999 406.10999999999996 1019.7499999999999C406.21999999999997 1019.7799999999999 406.33 1019.7999999999998 406.46 1019.8199999999999C408.29999999999995 1020.16 411.68 1019.9699999999999 412.57 1018.9C413.18 1018.17 413.86 1017.35 408.58 1011.77C413.26 1012.28 416.76 1013.9499999999999 418.39 1016.52C419.8 1018.74 419.8 1021.61 418.38 1024.85ZM389.28 1044.44C389.75 1044.98 389.67999999999995 1045.8 389.14 1046.26L386.12 1048.86C385.6 1049.31 385.54 1050.1 386 1050.6499999999999L388.06 1053.61C388.47 1054.1999999999998 388.32 1055.01 387.73 1055.4199999999998C387.51 1055.57 387.25 1055.6399999999999 387 1055.6399999999999C386.58 1055.6399999999999 386.18 1055.4499999999998 385.93 1055.08L383.95 1052.22C382.64 1050.69 382.81 1048.32 384.40999999999997 1046.9L387.45 1044.3000000000002C387.99 1043.8300000000002 388.81 1043.89 389.28 1044.4400000000003Z " fill="#000000" fill-opacity="1" transform="matrix(1,0,0,1,-365,-1009)"></path></svg>