<svg id="SvgjsSvg1015" xmlns="http://www.w3.org/2000/svg" version="1.1" xmlns:xlink="http://www.w3.org/1999/xlink" xmlns:svgjs="http://svgjs.com/svgjs" width="66" height="65" viewBox="0 0 66 65"><title>Fish icon</title><desc>Created with Avocode.</desc><defs id="SvgjsDefs1016"></defs><path id="SvgjsPath1017" d="M507.95 852.33L512.63 838.3000000000001C509.08 839.09 506.63 839.4200000000001 506.34 839.45C506.28999999999996 839.46 506.23999999999995 839.46 506.19 839.46L506.16 839.46C505.51000000000005 839.46 504.99 838.94 504.99 838.2900000000001C504.99 838.1500000000001 505.01 838.0200000000001 505.05 837.9000000000001C505.15000000000003 837.1600000000001 505.49 834.9100000000001 506.17 831.8400000000001L492.15000000000003 836.5200000000001C494.45000000000005 837.7100000000002 497.84000000000003 839.8100000000001 501.25000000000006 843.2200000000001C504.6600000000001 846.6300000000001 506.77000000000004 850.0200000000001 507.95000000000005 852.3300000000002ZM544.54 794.35C541.0699999999999 794.35 536.3399999999999 795.21 530.79 798.38C531.28 802.27 533.01 805.8 535.8399999999999 808.64C536.8199999999999 809.62 537.8999999999999 810.46 539.05 811.18C539.06 811.1899999999999 539.0699999999999 811.1899999999999 539.0799999999999 811.1999999999999C541.0999999999999 812.4499999999999 543.3399999999999 813.27 545.7399999999999 813.64C550.4099999999999 804.67 549.6899999999999 797.13 549.3499999999999 794.99C548.5299999999999 794.74 546.8599999999999 794.35 544.54 794.35ZM525.17 831.96C524.9599999999999 831.7900000000001 524.75 831.62 524.56 831.4300000000001C523.9499999999999 830.82 523.4899999999999 830.1 523.16 829.33C522.63 829.45 522.11 829.5200000000001 521.5799999999999 829.5200000000001C520.3699999999999 829.5200000000001 519.1899999999999 829.1700000000001 518.1399999999999 828.5400000000001C517.5799999999999 828.7500000000001 517.0599999999998 829.08 516.6199999999999 829.5100000000001C515.1499999999999 830.9900000000001 515.0099999999999 833.3100000000001 516.1799999999998 834.9800000000001C518.9699999999998 834.2200000000001 522.0799999999998 833.2300000000001 525.1699999999998 831.9600000000002ZM520.47 806.45C519.6 807.32 519.1600000000001 808.5200000000001 519.25 809.7800000000001C519.3 810.7800000000001 519.73 811.7400000000001 520.47 812.4800000000001C521.08 813.1000000000001 521.84 813.5000000000001 522.5600000000001 813.6400000000001L522.7500000000001 813.6600000000001C522.8700000000001 813.6800000000001 522.9900000000001 813.69 523.2000000000002 813.7C524.4200000000002 813.7900000000001 525.6200000000001 813.35 526.4900000000001 812.47C526.5200000000001 812.45 526.5300000000001 812.4300000000001 526.5600000000002 812.4C526.5300000000002 812.1899999999999 526.5100000000002 812.01 526.5100000000002 811.85C526.4600000000003 811.15 526.5300000000002 810.46 526.6900000000002 809.7900000000001C525.9100000000002 809.47 525.1800000000002 809.0000000000001 524.5700000000002 808.3800000000001C523.6900000000002 807.5000000000001 523.0900000000001 806.4200000000001 522.8300000000002 805.2700000000001C521.9400000000002 805.4000000000001 521.1100000000001 805.8100000000001 520.4700000000001 806.45ZM515.14 821.31C514.37 820.9899999999999 513.66 820.52 513.04 819.91C512.8499999999999 819.7199999999999 512.68 819.51 512.51 819.3C511.25 822.39 510.25 825.51 509.5 828.29C511.16 829.4699999999999 513.48 829.3199999999999 514.96 827.8499999999999C515.39 827.42 515.71 826.9099999999999 515.9200000000001 826.3599999999999C515.0100000000001 824.8499999999999 514.72 823.0399999999998 515.1400000000001 821.31ZM517.06 811.04C516.9599999999999 811.05 516.8499999999999 811.0699999999999 516.7399999999999 811.0999999999999C515.6099999999999 812.8299999999999 514.5999999999999 814.6899999999999 513.6999999999999 816.5999999999999C513.91 817.2199999999999 514.2399999999999 817.79 514.6999999999999 818.2399999999999C515.3199999999999 818.8599999999999 516.0799999999999 819.2699999999999 516.89 819.4199999999998C518.29 819.6799999999998 519.72 819.2399999999999 520.72 818.2599999999999C520.74 818.2299999999999 520.76 818.1999999999999 520.7900000000001 818.1699999999998C520.7600000000001 817.9599999999998 520.7500000000001 817.7699999999999 520.7500000000001 817.6099999999999C520.6900000000002 816.9199999999998 520.7600000000001 816.2299999999999 520.9300000000001 815.56C520.1500000000001 815.2299999999999 519.4200000000001 814.76 518.8000000000001 814.14C517.9300000000001 813.26 517.33 812.18 517.0600000000001 811.04ZM539.2 821.64C538.0400000000001 821.37 536.96 820.78 536.09 819.91C535.47 819.29 535.01 818.56 534.6800000000001 817.79C534.4100000000001 817.86 534.1400000000001 817.91 533.86 817.9399999999999C533.7 819.4 533.0500000000001 820.77 531.99 821.8399999999999C531.76 822.06 531.54 822.2399999999999 531.28 822.4399999999999C531.2099999999999 822.4999999999999 531.13 822.54 531.06 822.5899999999999C531.27 823.1099999999999 531.5799999999999 823.5899999999999 531.9899999999999 824.0099999999999C532.7299999999999 824.7399999999999 533.6899999999999 825.1699999999998 534.7299999999999 825.2199999999999C535.9499999999999 825.3199999999999 537.1499999999999 824.8699999999999 538.0099999999999 824.0099999999999C538.6599999999999 823.3599999999999 539.0699999999998 822.5299999999999 539.1999999999999 821.6399999999999ZM527.87 830.77C529.78 829.88 531.64 828.87 533.37 827.73C533.4 827.62 533.42 827.51 533.44 827.41C532.2800000000001 827.14 531.21 826.54 530.33 825.67C529.71 825.05 529.25 824.3299999999999 528.9200000000001 823.55C528.6500000000001 823.62 528.3700000000001 823.68 528.1 823.7099999999999C527.9300000000001 825.17 527.28 826.54 526.23 827.5899999999999C525.94 827.8899999999999 525.62 828.1399999999999 525.29 828.3599999999999C525.5 828.8699999999999 525.81 829.3499999999999 526.23 829.7699999999999C526.69 830.2299999999999 527.25 830.5699999999998 527.87 830.7699999999999ZM522.64 821.83C522.25 821.44 521.92 820.99 521.64 820.5200000000001C520.49 821.3700000000001 519.12 821.8500000000001 517.6999999999999 821.8500000000001C517.6099999999999 821.8500000000001 517.53 821.8300000000002 517.4399999999999 821.8200000000002C517.4399999999999 821.8300000000002 517.4399999999999 821.8400000000001 517.43 821.8500000000001C517.12 823.1200000000001 517.39 824.4500000000002 518.16 825.4900000000001C518.28 825.6400000000001 518.4 825.7800000000001 518.54 825.9200000000001C518.6999999999999 826.08 518.87 826.21 518.99 826.3100000000001C520.03 827.09 521.35 827.35 522.64 827.0400000000001C522.86 826.9800000000001 523.09 826.8900000000001 523.42 826.72C523.8399999999999 826.53 524.2299999999999 826.26 524.5699999999999 825.9300000000001C525.2099999999999 825.2800000000001 525.6199999999999 824.46 525.7499999999999 823.57C525.7299999999999 823.57 525.7099999999999 823.57 525.6799999999998 823.5600000000001C524.5399999999998 823.2700000000001 523.4899999999998 822.6700000000001 522.6399999999999 821.83ZM528.41 816.07C528.01 815.6700000000001 527.68 815.23 527.4 814.7600000000001C526.28 815.5900000000001 524.9399999999999 816.0600000000001 523.59 816.0600000000001C523.47 816.0600000000001 523.35 816.0600000000001 523.23 816.0500000000001C523.11 816.5000000000001 523.0600000000001 816.9900000000001 523.1 817.5200000000001C523.1 817.7200000000001 523.13 817.95 523.2 818.2100000000002C523.38 818.9500000000002 523.76 819.6200000000001 524.3100000000001 820.1700000000002C524.85 820.7100000000002 525.5300000000001 821.0900000000001 526.2500000000001 821.2800000000002C526.5300000000001 821.3500000000003 526.7500000000001 821.3800000000002 527.0500000000001 821.3800000000002C527.7800000000001 821.4400000000002 528.5000000000001 821.3000000000002 529.22 820.9400000000002C529.4200000000001 820.8600000000001 529.64 820.7300000000001 529.85 820.5700000000002C530.01 820.4500000000002 530.1800000000001 820.3200000000002 530.33 820.1700000000002C530.97 819.5200000000002 531.38 818.6900000000002 531.51 817.8100000000002C531.49 817.8100000000002 531.47 817.8000000000002 531.45 817.8000000000002C530.3000000000001 817.5100000000002 529.25 816.9100000000002 528.4100000000001 816.0700000000002ZM525.02 804.02C525.06 805.03 525.48 805.97 526.23 806.71C526.83 807.32 527.57 807.72 528.37 807.88C528.44 807.89 528.51 807.89 528.58 807.9C528.6700000000001 807.91 528.7700000000001 807.93 528.96 807.93C529.9200000000001 808.01 530.86 807.7399999999999 531.64 807.2099999999999C530.12 804.9399999999999 529.09 802.42 528.61 799.7299999999999C527.53 800.4399999999999 526.4300000000001 801.2399999999999 525.3000000000001 802.1399999999999C525.0600000000001 802.6999999999998 524.96 803.3199999999998 525.0200000000001 804.0199999999999ZM532.81 815.62C533.54 815.68 534.26 815.54 534.9799999999999 815.18C535.18 815.0999999999999 535.3999999999999 814.9699999999999 535.6299999999999 814.8C535.7799999999999 814.68 535.9399999999998 814.56 536.0899999999999 814.4C536.5699999999999 813.92 536.92 813.35 537.1299999999999 812.73C536.0799999999999 812.02 535.0899999999999 811.21 534.1699999999998 810.3000000000001C533.7799999999999 809.9100000000001 533.4099999999999 809.5000000000001 533.0599999999998 809.08C531.9599999999998 809.86 530.6499999999999 810.3000000000001 529.3399999999998 810.3000000000001C529.2199999999998 810.3000000000001 529.1099999999998 810.2900000000001 528.9899999999998 810.2900000000001C528.8699999999998 810.7400000000001 528.8199999999998 811.22 528.8599999999998 811.7500000000001C528.8599999999998 811.9600000000002 528.8899999999998 812.1900000000002 528.9599999999998 812.4500000000002C529.1399999999998 813.1800000000002 529.5299999999999 813.8600000000001 530.0699999999998 814.4000000000002C530.6099999999998 814.9400000000002 531.2899999999998 815.3300000000002 532.0099999999999 815.5100000000002C532.2999999999998 815.5800000000003 532.5199999999999 815.6100000000002 532.8099999999998 815.6200000000002ZM542.21 819.2C543.07 818.07 543.83 816.94 544.51 815.82C542.62 815.45 540.84 814.82 539.16 813.95C538.8299999999999 814.72 538.37 815.45 537.76 816.07C537.54 816.2800000000001 537.3199999999999 816.46 537.05 816.6800000000001C536.9699999999999 816.74 536.9 816.7800000000001 536.8199999999999 816.83C537.03 817.35 537.3399999999999 817.83 537.76 818.24C538.49 818.98 539.45 819.41 540.51 819.46C541.05 819.51 541.65 819.4000000000001 542.21 819.2ZM511.95 831.43C510.9 831.43 509.84999999999997 831.15 508.89 830.65C508.24 833.3 507.83 835.5 507.59999999999997 836.88C508.96999999999997 836.64 511.16999999999996 836.23 513.8199999999999 835.58C513.1299999999999 834.26 512.89 832.76 513.16 831.32C512.76 831.3900000000001 512.36 831.4300000000001 511.95 831.4300000000001ZM544.01 801.18C543.28 801.91 542.1 801.91 541.37 801.18C540.64 800.4499999999999 540.64 799.27 541.37 798.54C542.1 797.81 543.28 797.81 544.01 798.54C544.74 799.27 544.74 800.4499999999999 544.01 801.18ZM506.81 829.15C508.7 821.68 512.32 811.28 518.8 804.8L518.8 804.79C518.81 804.79 518.81 804.79 518.81 804.78C520.42 803.17 522 801.78 523.54 800.54C523.5799999999999 800.5 523.62 800.4699999999999 523.66 800.4399999999999C532.1899999999999 793.5999999999999 539.56 791.9999999999999 544.54 791.9999999999999C548.42 791.9999999999999 550.74 792.9799999999999 550.8399999999999 793.0199999999999C551.18 793.1599999999999 551.43 793.4499999999998 551.5199999999999 793.8099999999998C551.6799999999998 794.4699999999998 555.3399999999999 810.0099999999999 539.6799999999998 825.6699999999998C538.3299999999998 827.0199999999999 536.8099999999998 828.2499999999999 535.1799999999998 829.3599999999999L535.1699999999998 829.3699999999999C535.1499999999999 829.3899999999999 535.1299999999999 829.3899999999999 535.1099999999999 829.4099999999999C528.93 833.5999999999999 521.2099999999999 836.1699999999998 515.3199999999999 837.6599999999999L509.2199999999999 855.9499999999998C509.0599999999999 856.4299999999998 508.6099999999999 856.7499999999998 508.1099999999999 856.7499999999998C507.5999999999999 856.7499999999998 507.1499999999999 856.4299999999997 506.9899999999999 855.9499999999998C506.9699999999999 855.8899999999999 505.0899999999999 850.3899999999999 499.5899999999999 844.8799999999998C494.1099999999999 839.4099999999997 488.5799999999999 837.4999999999998 488.5199999999999 837.4799999999998C488.0399999999999 837.3199999999998 487.7199999999999 836.8699999999998 487.7199999999999 836.3599999999998C487.7199999999999 835.8599999999998 488.0399999999999 835.4099999999997 488.5199999999999 835.2499999999998Z " fill="#000000" fill-opacity="1" transform="matrix(1,0,0,1,-487,-792)"></path></svg>