<svg id="SvgjsSvg1033" xmlns="http://www.w3.org/2000/svg" version="1.1" xmlns:xlink="http://www.w3.org/1999/xlink" xmlns:svgjs="http://svgjs.com/svgjs" width="53" height="53" viewBox="0 0 53 53"><title>Gift icon</title><desc>Created with Avocode.</desc><defs id="SvgjsDefs1034"></defs><path id="SvgjsPath1035" d="M625.25 1030.91L619.45 1030.91C615.34 1030.91 612 1027.5600000000002 612 1023.45C612 1019.34 615.34 1016 619.45 1016C623.5600000000001 1016 626.9100000000001 1019.34 626.9100000000001 1023.45L626.9100000000001 1029.25C626.9100000000001 1030.17 626.1600000000001 1030.91 625.2500000000001 1030.91ZM619.45 1019.31C617.1700000000001 1019.31 615.3100000000001 1021.17 615.3100000000001 1023.4499999999999C615.3100000000001 1025.74 617.1700000000001 1027.59 619.45 1027.59L623.59 1027.59L623.59 1023.4499999999999C623.59 1021.17 621.74 1019.31 619.45 1019.31Z " fill="#000000" fill-opacity="1" transform="matrix(1,0,0,1,-599,-1014)"></path><path id="SvgjsPath1036" d="M632.28 1030.56L625.66 1030.56C624.74 1030.56 624 1029.82 624 1028.9099999999999L624 1022.2799999999999C624 1017.7099999999998 627.71 1013.9999999999999 632.28 1013.9999999999999C636.85 1013.9999999999999 640.56 1017.7099999999999 640.56 1022.2799999999999C640.56 1026.85 636.8499999999999 1030.56 632.28 1030.56ZM627.31 1027.25L632.28 1027.25C635.02 1027.25 637.25 1025.02 637.25 1022.28C637.25 1019.54 635.02 1017.31 632.28 1017.31C629.54 1017.31 627.31 1019.54 627.31 1022.28Z " fill="#000000" fill-opacity="1" transform="matrix(1,0,0,1,-599,-1014)"></path><path id="SvgjsPath1037" d="M642.92 1066.81L608.14 1066.81C605.86 1066.81 604 1064.95 604 1062.6699999999998L604 1038.6599999999999C604 1037.7399999999998 604.74 1036.9999999999998 605.66 1036.9999999999998C606.5699999999999 1036.9999999999998 607.31 1037.7399999999998 607.31 1038.6599999999999L607.31 1062.6699999999998C607.31 1063.1299999999999 607.6899999999999 1063.4999999999998 608.14 1063.4999999999998L642.92 1063.4999999999998C643.38 1063.4999999999998 643.75 1063.1299999999999 643.75 1062.6699999999998L643.75 1038.6599999999999C643.75 1037.7399999999998 644.49 1036.9999999999998 645.41 1036.9999999999998C646.3199999999999 1036.9999999999998 647.06 1037.7399999999998 647.06 1038.6599999999999L647.06 1062.6699999999998C647.06 1064.9499999999998 645.1999999999999 1066.81 642.92 1066.81Z " fill="#000000" fill-opacity="1" transform="matrix(1,0,0,1,-599,-1014)"></path><path id="SvgjsPath1038" d="M647.86 1040.25L603.14 1040.25C600.86 1040.25 599 1038.39 599 1036.11L599 1031.1399999999999C599 1028.86 600.86 1026.9999999999998 603.14 1026.9999999999998L647.86 1026.9999999999998C650.14 1026.9999999999998 652 1028.8599999999997 652 1031.1399999999999L652 1036.11C652 1038.3899999999999 650.14 1040.25 647.86 1040.25ZM603.14 1030.31C602.68 1030.31 602.31 1030.6799999999998 602.31 1031.1399999999999L602.31 1036.11C602.31 1036.57 602.68 1036.9399999999998 603.14 1036.9399999999998L647.86 1036.9399999999998C648.32 1036.9399999999998 648.69 1036.57 648.69 1036.11L648.69 1031.1399999999999C648.69 1030.6899999999998 648.32 1030.31 647.86 1030.31Z " fill="#000000" fill-opacity="1" transform="matrix(1,0,0,1,-599,-1014)"></path><path id="SvgjsPath1039" d="M625.66 1066.74C624.74 1066.74 624 1066 624 1065.09L624 1028.6599999999999C624 1027.7399999999998 624.74 1026.9999999999998 625.66 1026.9999999999998C626.5699999999999 1026.9999999999998 627.31 1027.7399999999998 627.31 1028.6599999999999L627.31 1065.09C627.31 1066 626.5699999999999 1066.74 625.66 1066.74Z " fill="#000000" fill-opacity="1" transform="matrix(1,0,0,1,-599,-1014)"></path></svg>