<?xml version="1.0" encoding="UTF-8" standalone="no"?>
<svg width="22px" height="21px" viewBox="0 0 22 21" version="1.1" xmlns="http://www.w3.org/2000/svg" xmlns:xlink="http://www.w3.org/1999/xlink">
    <!-- Generator: Sketch 40.1 (33804) - http://www.bohemiancoding.com/sketch -->
    <title>Combined Shape</title>
    <desc>Created with Sketch.</desc>
    <defs></defs>
    <g id="Symbols" stroke="none" stroke-width="1" fill="none" fill-rule="evenodd">
        <g id="Card" transform="translate(-227.000000, -21.000000)" fill="#E0CEC5">
            <g id="BadgePop">
                <g>
                    <g transform="translate(226.000000, 21.000000)">
                        <g id="Group-3" transform="translate(0.119298, 0.044818)">
                            <path d="M8.02017684,7.94925711 L8.02017684,18.8303518 L18.5143242,18.6725203 C18.8579593,18.6677676 19.1804295,18.5371808 19.3991523,18.3143597 C19.5732996,18.136965 19.6668295,17.9137018 19.6623382,17.6857413 C19.6555453,17.3236571 19.4051032,16.9967203 19.0095944,16.8330308 C18.7916014,16.7427308 18.6678119,16.5146045 18.7130049,16.2863124 C18.7579733,16.0577992 18.9594611,15.892065 19.1957558,15.8886387 L19.686254,15.8816203 C20.0297768,15.8762597 20.3526961,15.7452308 20.5716435,15.5221334 C20.7457909,15.3444624 20.8390961,15.121365 20.8348295,14.8939571 C20.827026,14.4837939 20.5050049,14.1204387 20.0339312,13.9897413 C19.8017909,13.9252492 19.6495944,13.7068492 19.6724435,13.4706545 C19.6950119,13.2344045 19.8858891,13.0479466 20.125833,13.0273334 C20.7244014,12.9758282 21.1853698,12.5451624 21.1754891,12.046965 C21.1667312,11.5809861 20.7583663,11.1853571 20.204654,11.106165 C19.9593768,11.0712387 19.7773698,10.8641124 19.7773698,10.620015 C19.7773698,10.3759729 19.9591523,10.1690676 20.2044295,10.1339203 C20.7675172,10.0530703 21.185033,9.63555711 21.1754891,9.16278079 C21.1659453,8.63540447 20.6410891,8.20667289 20.0059733,8.20667289 L19.9848084,8.20689395 L16.6049909,8.25762553 L13.4289067,8.25779132 C13.2477418,8.25779132 13.0806681,8.16097026 12.9923593,8.00457553 C12.9044435,7.84862289 12.9096084,7.65768868 13.00544,7.50632289 L14.3969909,5.31220974 L16.2140856,2.41067289 C16.3444435,2.20271763 16.3794189,1.96348342 16.3126681,1.73673868 C16.2359242,1.47628342 16.0393207,1.25860184 15.7586189,1.12370447 C15.5811032,1.03821237 15.3800084,0.993172895 15.1771172,0.993172895 C14.7389979,0.993172895 14.3402891,1.19460711 14.1375663,1.51905711 C14.1198821,1.54707553 14.0995032,1.57354658 14.0763733,1.59764132 L8.02017684,7.94925711 Z M7.48582691,19.8194437 C7.49749032,19.820257 7.50921359,19.8206676 7.52097684,19.8206676 L7.52883649,19.8206676 L18.5293137,19.6553755 C19.136247,19.6466439 19.715054,19.4066361 20.1169628,18.9974676 C20.477047,18.6307966 20.670226,18.1581308 20.6607944,17.6670071 C20.6543382,17.3378597 20.5589558,17.0254018 20.3903102,16.7515729 C20.7333839,16.6415439 21.0446821,16.4548097 21.2899593,16.2046334 C21.6497067,15.8381282 21.8424926,15.3659045 21.8331733,14.8751124 C21.8239663,14.4025571 21.6281488,13.9640439 21.300626,13.6258334 C21.8415944,13.2599361 22.1864646,12.6733729 22.1739453,12.0281755 C22.1633347,11.4726703 21.8958821,10.9691124 21.4672505,10.6175834 C21.9126681,10.2494755 22.1850611,9.71845184 22.1739453,9.14421237 C22.1539032,8.08542553 21.1815523,7.22387289 20.0059733,7.22387289 L16.5974119,7.27482553 L14.3292295,7.27482553 L17.0639944,2.92633342 C17.3441347,2.47930974 17.4177909,1.959615 17.271433,1.46318605 C17.1177207,0.940562368 16.7258049,0.494975526 16.1969067,0.240599211 C15.8836996,0.0899518421 15.5310821,0.0104281579 15.1771172,0.0104281579 C14.414226,0.0104281579 13.7065207,0.372346579 13.3161768,0.958578158 L7.60449485,6.94955753 C7.29397593,6.10415592 6.63938443,5.54801211 5.84441263,5.54801211 L2.83298807,5.54801211 C1.71983719,5.54801211 0.880707368,6.64294105 0.880707368,8.09553316 L0.880707368,18.3972489 C0.880707368,19.8500068 1.71983719,20.9447147 2.83298807,20.9447147 L5.84441263,20.9447147 C6.54919853,20.9447147 7.14364846,20.5076856 7.48582691,19.8194437 Z" id="Combined-Shape"></path>
                        </g>
                    </g>
                </g>
            </g>
        </g>
    </g>
</svg>