<svg id="SvgjsSvg1000" xmlns="http://www.w3.org/2000/svg" version="1.1" xmlns:xlink="http://www.w3.org/1999/xlink" xmlns:svgjs="http://svgjs.com/svgjs" width="25" height="24" viewBox="0 0 25 24"><title>Close</title><desc>Created with Avocode.</desc><defs id="SvgjsDefs1001"><clipPath id="SvgjsClipPath1010"><path id="SvgjsPath1009" d="M1046.24695 3939.33274L1056.5 3949.5857899999996L1066.75305 3939.33274C1067.14357 3938.94222 1067.77674 3938.94222 1068.16726 3939.33274C1068.5577799999999 3939.7232599999998 1068.5577799999999 3940.35643 1068.16726 3940.7469499999997L1057.91421 3950.9999999999995L1068.16726 3961.2530499999993C1068.5577799999999 3961.6435699999993 1068.5577799999999 3962.2767399999993 1068.16726 3962.6672599999993C1067.77674 3963.057779999999 1067.14357 3963.057779999999 1066.75305 3962.6672599999993L1056.5 3952.4142099999995L1046.24695 3962.6672599999993C1045.85643 3963.057779999999 1045.22326 3963.057779999999 1044.83274 3962.6672599999993C1044.4422200000001 3962.2767399999993 1044.4422200000001 3961.6435699999993 1044.83274 3961.2530499999993L1055.08579 3950.9999999999995L1044.83274 3940.7469499999997C1044.4422200000001 3940.35643 1044.4422200000001 3939.7232599999998 1044.83274 3939.33274C1045.22326 3938.94222 1045.85643 3938.94222 1046.24695 3939.33274Z " fill="#ffffff"></path></clipPath></defs><path id="SvgjsPath1007" d="M1046.24695 3939.33274L1056.5 3949.5857899999996L1066.75305 3939.33274C1067.14357 3938.94222 1067.77674 3938.94222 1068.16726 3939.33274C1068.5577799999999 3939.7232599999998 1068.5577799999999 3940.35643 1068.16726 3940.7469499999997L1057.91421 3950.9999999999995L1068.16726 3961.2530499999993C1068.5577799999999 3961.6435699999993 1068.5577799999999 3962.2767399999993 1068.16726 3962.6672599999993C1067.77674 3963.057779999999 1067.14357 3963.057779999999 1066.75305 3962.6672599999993L1056.5 3952.4142099999995L1046.24695 3962.6672599999993C1045.85643 3963.057779999999 1045.22326 3963.057779999999 1044.83274 3962.6672599999993C1044.4422200000001 3962.2767399999993 1044.4422200000001 3961.6435699999993 1044.83274 3961.2530499999993L1055.08579 3950.9999999999995L1044.83274 3940.7469499999997C1044.4422200000001 3940.35643 1044.4422200000001 3939.7232599999998 1044.83274 3939.33274C1045.22326 3938.94222 1045.85643 3938.94222 1046.24695 3939.33274Z "  fill-opacity="1" transform="matrix(1,0,0,1,-1044,-3939)"></path><path id="SvgjsPath1008" d="M1046.24695 3939.33274L1056.5 3949.5857899999996L1066.75305 3939.33274C1067.14357 3938.94222 1067.77674 3938.94222 1068.16726 3939.33274C1068.5577799999999 3939.7232599999998 1068.5577799999999 3940.35643 1068.16726 3940.7469499999997L1057.91421 3950.9999999999995L1068.16726 3961.2530499999993C1068.5577799999999 3961.6435699999993 1068.5577799999999 3962.2767399999993 1068.16726 3962.6672599999993C1067.77674 3963.057779999999 1067.14357 3963.057779999999 1066.75305 3962.6672599999993L1056.5 3952.4142099999995L1046.24695 3962.6672599999993C1045.85643 3963.057779999999 1045.22326 3963.057779999999 1044.83274 3962.6672599999993C1044.4422200000001 3962.2767399999993 1044.4422200000001 3961.6435699999993 1044.83274 3961.2530499999993L1055.08579 3950.9999999999995L1044.83274 3940.7469499999997C1044.4422200000001 3940.35643 1044.4422200000001 3939.7232599999998 1044.83274 3939.33274C1045.22326 3938.94222 1045.85643 3938.94222 1046.24695 3939.33274Z " fill-opacity="0" fill="#ffffff" stroke-dasharray="0" stroke-linejoin="miter" stroke-linecap="butt" stroke-opacity="1" stroke="#979797" stroke-miterlimit="50" stroke-width="2" clip-path="url(&quot;#SvgjsClipPath1010&quot;)" transform="matrix(1,0,0,1,-1044,-3939)"></path></svg>