<svg id="SvgjsSvg1000" xmlns="http://www.w3.org/2000/svg" version="1.1" xmlns:xlink="http://www.w3.org/1999/xlink" xmlns:svgjs="http://svgjs.com/svgjs" width="33" height="26" viewBox="0 0 33 26"><title>Shape</title><desc>Created with Avocode.</desc><defs id="SvgjsDefs1001"></defs><path id="SvgjsPath1007" d="M18.87 0.33L18.87 0.33C18.42 0.77 18.42 1.52 18.87 1.96L28.98 11.829999999999998L1.1799999999999997 11.829999999999998C0.5199999999999997 11.829999999999998 -2.220446049250313e-16 12.339999999999998 -2.220446049250313e-16 12.979999999999999L-2.220446049250313e-16 12.979999999999999C-2.220446049250313e-16 13.629999999999999 0.5199999999999998 14.139999999999999 1.1799999999999997 14.139999999999999L28.98 14.139999999999999L18.87 24.04C18.42 24.48 18.42 25.23 18.87 25.669999999999998L18.87 25.669999999999998C19.32 26.11 20.080000000000002 26.11 20.53 25.669999999999998L32.660000000000004 13.799999999999999C33.11000000000001 13.36 33.11000000000001 12.61 32.660000000000004 12.169999999999998L20.53 0.3299999999999983C20.080000000000002 -0.11000000000000171 19.32 -0.11000000000000171 18.87 0.3299999999999983Z " fill="#000000" fill-opacity="1" transform="matrix(1,0,0,1,0,0)"></path></svg>