<?xml version="1.0" encoding="UTF-8"?>
<svg width="22px" height="22px" viewBox="0 0 22 22" version="1.1" xmlns="http://www.w3.org/2000/svg" xmlns:xlink="http://www.w3.org/1999/xlink">
    <!-- Generator: Sketch 40.3 (33839) - http://www.bohemiancoding.com/sketch -->
    <title>Icon</title>
    <desc>Created with Sketch.</desc>
    <defs></defs>
    <g id="Symbols" stroke="none" stroke-width="1" fill="none" fill-rule="evenodd">
        <g id="ShopBlockMini-Mobile" transform="translate(-40.000000, -18.000000)">
            <g transform="translate(40.000000, 18.000000)" id="Icon">
                <g>
                    <circle id="Oval" fill="#FFD427" cx="11" cy="11" r="11"></circle>
                    <path d="M12.2222222,2.44444444 C10.7575111,2.44444444 9.49446667,3.30953333 8.90755556,4.554 C8.62717778,4.37995556 8.29791111,4.27777778 7.94444444,4.27777778 C6.93342222,4.27777778 6.11111111,5.10008889 6.11111111,6.11111111 L6.11111111,9.16666667 L5.5,9.16666667 C4.48897778,9.16666667 3.66666667,9.98897778 3.66666667,11 L3.66666667,12.8333333 C3.66666667,13.8443556 4.48897778,14.6666667 5.5,14.6666667 L6.11111111,14.6666667 L6.11111111,15.8888889 C6.11111111,17.2389556 7.20548889,18.3333333 8.55555556,18.3333333 L13.4444444,18.3333333 C14.7945111,18.3333333 15.8888889,17.2389556 15.8888889,15.8888889 L15.8888889,6.11111111 C15.8888889,4.08931111 14.2440222,2.44444444 12.2222222,2.44444444 L12.2222222,2.44444444 Z M6.11111111,13.4444444 L5.5,13.4444444 C5.16315556,13.4444444 4.88888889,13.1704222 4.88888889,12.8333333 L4.88888889,11 C4.88888889,10.6629111 5.16315556,10.3888889 5.5,10.3888889 L6.11111111,10.3888889 L6.11111111,13.4444444 L6.11111111,13.4444444 Z M14.0555556,15.8888889 C14.0555556,16.2257333 13.7815333,16.5 13.4444444,16.5 L8.55555556,16.5 C8.21871111,16.5 7.94444444,16.2257333 7.94444444,15.8888889 L7.94444444,9.16666667 L9.16666667,9.16666667 L9.16666667,14.6666667 L10.3888889,14.6666667 L10.3888889,9.16666667 L11.6111111,9.16666667 L11.6111111,14.6666667 L12.8333333,14.6666667 L12.8333333,9.16666667 L14.0555556,9.16666667 L14.0555556,15.8888889 L14.0555556,15.8888889 Z M7.33333333,7.33333333 L7.33333333,6.11111111 C7.33333333,5.77402222 7.6076,5.5 7.94444444,5.5 C8.28128889,5.5 8.55555556,5.77402222 8.55555556,6.11111111 L9.77777778,6.11111111 C9.77777778,4.76324444 10.8743556,3.66666667 12.2222222,3.66666667 C13.5700889,3.66666667 14.6666667,4.76324444 14.6666667,6.11111111 L14.6666667,7.33333333 L7.33333333,7.33333333 L7.33333333,7.33333333 Z" id="Shape" fill="#000000"></path>
                </g>
            </g>
        </g>
    </g>
</svg>