<svg id="SvgjsSvg1017" xmlns="http://www.w3.org/2000/svg" version="1.1" xmlns:xlink="http://www.w3.org/1999/xlink" xmlns:svgjs="http://svgjs.com/svgjs" width="20" height="21" viewBox="0 0 20 21"><title>TelButton</title><desc>Created with Avocode.</desc><defs id="SvgjsDefs1018"></defs><path id="SvgjsPath1019" d="M334.8 40.32C334.81 40.22 334.79 40.12 334.76 40.02C334.46999999999997 39.690000000000005 334.11 39.440000000000005 333.69 39.290000000000006C332.89 38.86000000000001 332.07 38.43000000000001 331.29 37.980000000000004C330.93 37.660000000000004 330.5 37.45 330.03000000000003 37.34C329.18 37.34 327.92 39.830000000000005 327.17 39.830000000000005C326.73 39.74 326.31 39.56 325.96000000000004 39.290000000000006C323.51000000000005 38.02 321.51000000000005 36.06000000000001 320.20000000000005 33.67000000000001C319.93000000000006 33.32000000000001 319.75000000000006 32.91000000000001 319.66 32.48000000000001C319.66 31.740000000000013 322.20000000000005 30.510000000000012 322.20000000000005 29.670000000000012C322.09000000000003 29.220000000000013 321.87000000000006 28.80000000000001 321.55000000000007 28.450000000000014C321.0900000000001 27.670000000000012 320.6500000000001 26.880000000000013 320.20000000000005 26.100000000000012C320.05000000000007 25.690000000000012 319.80000000000007 25.32000000000001 319.46000000000004 25.040000000000013C319.36 25.010000000000012 319.26000000000005 24.990000000000013 319.16 25.000000000000014C318.49 25.040000000000013 317.83000000000004 25.190000000000015 317.21000000000004 25.430000000000014C316.55 25.830000000000013 316.03000000000003 26.410000000000014 315.72 27.110000000000014C315.26000000000005 27.890000000000015 315.01000000000005 28.770000000000014 315 29.670000000000012C315.1 30.920000000000012 315.43 32.140000000000015 315.97 33.280000000000015C316.27000000000004 34.12000000000002 316.66 34.930000000000014 317.14000000000004 35.69000000000001C318.91 38.320000000000014 321.20000000000005 40.570000000000014 323.89000000000004 42.30000000000001C324.66 42.76000000000001 325.49000000000007 43.15000000000001 326.35 43.44000000000001C327.51000000000005 43.97000000000001 328.76000000000005 44.29000000000001 330.03000000000003 44.390000000000015C330.95000000000005 44.37000000000001 331.85 44.13000000000002 332.65000000000003 43.69000000000001C333.36 43.390000000000015 333.96000000000004 42.88000000000001 334.36 42.23000000000001C334.61 41.62000000000001 334.76 40.97000000000001 334.8 40.320000000000014Z " fill="#000000" fill-opacity="1" transform="matrix(1,0,0,1,-315,-24)"></path></svg>