<svg id="SvgjsSvg1012" xmlns="http://www.w3.org/2000/svg" version="1.1" xmlns:xlink="http://www.w3.org/1999/xlink" xmlns:svgjs="http://svgjs.com/svgjs" width="24" height="17" viewBox="0 0 24 17"><title>Burger</title><desc>Created with Avocode.</desc><defs id="SvgjsDefs1013"></defs><path id="SvgjsPath1014" d="M0 1.5C0 0.67157 0.67157 0 1.5 0L22.5 0C23.32843 0 24 0.67157 24 1.5L24 1.5C24 2.32843 23.32843 3 22.5 3L1.5 3C0.67157 3 0 2.32843 0 1.5Z " fill="#000000" fill-opacity="1" transform="matrix(1,0,0,1,0,0)"></path><path id="SvgjsPath1015" d="M0 8.5C0 7.67157 0.67157 7 1.5 7L22.5 7C23.32843 7 24 7.67157 24 8.5L24 8.5C24 9.32843 23.32843 10 22.5 10L1.5 10C0.67157 10 0 9.32843 0 8.5Z " fill="#000000" fill-opacity="1" transform="matrix(1,0,0,1,0,0)"></path><path id="SvgjsPath1016" d="M0 15.5C0 14.67157 0.67157 14 1.5 14L22.5 14C23.32843 14 24 14.67157 24 15.5L24 15.5C24 16.32843 23.32843 17 22.5 17L1.5 17C0.67157 17 0 16.32843 0 15.5Z " fill="#000000" fill-opacity="1" transform="matrix(1,0,0,1,0,0)"></path></svg>