<svg id="6764eddc-618d-4bb7-82b3-75f231432544" data-name="Layer 1" xmlns="http://www.w3.org/2000/svg" viewBox="0 0 15.01 8.56"><title>icon-vk</title><path id="bcd75875-3fb1-4fca-8d2d-0834929aeb66" data-name="" d="M14.2,0.39l-2.25,0a0.51,0.51,0,0,0-.3,0,0.47,0.47,0,0,0-.2.24,14.42,14.42,0,0,1-.84,1.76c-1,1.7-1.41,1.8-1.57,1.69-0.38-.24-0.28-1-0.28-1.52C8.77,1,9,.28,8.27.1A4.14,4.14,0,0,0,7.22,0,4.88,4.88,0,0,0,5.35.19C5.09,0.31,4.9.6,5,.61a1,1,0,0,1,.66.34,2.31,2.31,0,0,1,.23,1C6,3.92,5.59,4.16,5.59,4.16,5.29,4.32,4.76,4,4,2.44A15.67,15.67,0,0,1,3.17.77,0.57,0.57,0,0,0,3,.52,0.81,0.81,0,0,0,2.64.38l-2.14,0A0.56,0.56,0,0,0,.05.54,0.35,0.35,0,0,0,0,.92a20.73,20.73,0,0,0,3.58,5.9s1.74,1.82,3.72,1.7h0.9a0.67,0.67,0,0,0,.41-0.17,0.6,0.6,0,0,0,.12-0.4c0-1.2.55-1.38,0.55-1.38,0.55-.17,1.25,1.16,2,1.68a1.67,1.67,0,0,0,1,.3l2,0a0.55,0.55,0,0,0,.55-0.88,6.61,6.61,0,0,0-1.49-1.73c-1.25-1.16-1.09-1,.43-3C14.73,1.69,15.1.94,15,.62,15,0.62,14.87.31,14.2,0.39Z"/></svg>