<svg id="SvgjsSvg1010" xmlns="http://www.w3.org/2000/svg" version="1.1" xmlns:xlink="http://www.w3.org/1999/xlink" xmlns:svgjs="http://svgjs.com/svgjs" width="33" height="27" viewBox="0 0 33 27"><title>ArrowLeft</title><desc>Created with Avocode.</desc><defs id="SvgjsDefs1011"></defs><path id="SvgjsPath1012" d="M14.13 26.67L14.13 26.67C14.58 26.23 14.58 25.48 14.13 25.040000000000003L4.020000000000001 15.170000000000003L31.82 15.170000000000003C32.48 15.170000000000003 33 14.660000000000004 33 14.020000000000003L33 14.020000000000003C33 13.370000000000003 32.48 12.860000000000003 31.82 12.860000000000003L4.02 12.860000000000003L14.129999999999999 2.9600000000000026C14.579999999999998 2.5200000000000027 14.579999999999998 1.7700000000000027 14.129999999999999 1.3300000000000027L14.129999999999999 1.3300000000000027C13.68 0.8900000000000028 12.919999999999998 0.8900000000000028 12.469999999999999 1.3300000000000027L0.3399999999999981 13.200000000000003C-0.11000000000000193 13.640000000000002 -0.11000000000000193 14.390000000000002 0.3399999999999981 14.830000000000002L12.469999999999999 26.67C12.919999999999998 27.110000000000003 13.68 27.110000000000003 14.129999999999999 26.67Z " fill="#000000" fill-opacity="1" transform="matrix(1,0,0,1,0,0)"></path></svg>