<?xml version="1.0" encoding="UTF-8"?>
<svg width="16px" height="17px" viewBox="0 0 16 17" version="1.1" xmlns="http://www.w3.org/2000/svg" xmlns:xlink="http://www.w3.org/1999/xlink">
    <!-- Generator: Sketch 41.1 (35376) - http://www.bohemiancoding.com/sketch -->
    <title></title>
    <desc>Created with Sketch.</desc>
    <defs></defs>
    <g id="Desktop" stroke="none" stroke-width="1" fill="none" fill-rule="evenodd">
        <g id="Shop" transform="translate(-956.000000, -188.000000)" fill="#000000">
            <g id="Content" transform="translate(24.000000, 150.000000)">
                <g id="Info" transform="translate(57.000000, 0.000000)">
                    <path d="M884.000011,43.0357024 C884.000011,42.8548986 883.859386,42.7142735 883.678582,42.7142735 L883.035724,42.7142735 C882.85492,42.7142735 882.714295,42.8548986 882.714295,43.0357024 L882.714295,46.5714209 L880.464292,46.5714209 C880.283488,46.5714209 880.142863,46.7120461 880.142863,46.8928499 L880.142863,47.5357078 C880.142863,47.7165116 880.283488,47.8571367 880.464292,47.8571367 L883.678582,47.8571367 C883.859386,47.8571367 884.000011,47.7165116 884.000011,47.5357078 L884.000011,43.0357024 Z M888.178587,46.5714209 C888.178587,49.5848174 885.727691,52.0357131 882.714295,52.0357131 C879.700898,52.0357131 877.250003,49.5848174 877.250003,46.5714209 C877.250003,43.5580245 879.700898,41.1071287 882.714295,41.1071287 C885.727691,41.1071287 888.178587,43.5580245 888.178587,46.5714209 Z M890.42859,46.5714209 C890.42859,42.3124873 886.973229,38.857126 882.714295,38.857126 C878.455361,38.857126 875,42.3124873 875,46.5714209 C875,50.8303546 878.455361,54.2857158 882.714295,54.2857158 C886.973229,54.2857158 890.42859,50.8303546 890.42859,46.5714209 Z" id=""></path>
                </g>
            </g>
        </g>
    </g>
</svg>