<svg id="01c3f745-2ad0-4917-9dab-911e0e4809ab" data-name="Layer 1" xmlns="http://www.w3.org/2000/svg" viewBox="0 0 12 12"><title>icon-inst</title><path d="M10.64,10.14a0.47,0.47,0,0,1-.48.48H1.81a0.47,0.47,0,0,1-.48-0.48V5.08h1.1a3.42,3.42,0,0,0-.16,1A3.67,3.67,0,0,0,6,9.72,3.68,3.68,0,0,0,9.74,6.1a3.42,3.42,0,0,0-.16-1h1.05v5.06ZM8.42,6A2.37,2.37,0,0,1,6,8.31,2.37,2.37,0,0,1,3.6,6,2.37,2.37,0,0,1,6,3.64,2.37,2.37,0,0,1,8.42,6h0Zm2.22-2.81a0.54,0.54,0,0,1-.54.54H8.74A0.54,0.54,0,0,1,8.2,3.16V1.88a0.54,0.54,0,0,1,.54-0.54H10.1a0.54,0.54,0,0,1,.54.54V3.16ZM12,1.54A1.55,1.55,0,0,0,10.46,0H1.54A1.55,1.55,0,0,0,0,1.54v8.92A1.55,1.55,0,0,0,1.54,12h8.92A1.55,1.55,0,0,0,12,10.46V1.54Z"/></svg>
