<svg id="SvgjsSvg1000" xmlns="http://www.w3.org/2000/svg" version="1.1" xmlns:xlink="http://www.w3.org/1999/xlink" xmlns:svgjs="http://svgjs.com/svgjs" width="165" height="31" viewBox="0 0 165 31"><title>logo</title><desc>Created with Avocode.</desc><defs id="SvgjsDefs1001"></defs><path id="SvgjsPath1007" d="M92.6 86L247.97 86C249.95 86 251.56 87.54 251.56 89.42L251.56 110.77000000000001C251.56 112.65 249.95 114.19000000000001 247.97 114.19000000000001L92.6 114.19000000000001C90.61999999999999 114.19000000000001 89 112.65 89 110.77000000000001L89 89.42000000000002C89 87.54000000000002 90.62 86.00000000000001 92.6 86.00000000000001 " fill="#070708" fill-opacity="1" transform="matrix(1,0,0,1,-88,-85)"></path><path id="SvgjsPath1008" d="M92.6 86L247.97 86C249.95 86 251.56 87.54 251.56 89.42L251.56 110.77000000000001C251.56 112.65 249.95 114.19000000000001 247.97 114.19000000000001L92.6 114.19000000000001C90.61999999999999 114.19000000000001 89 112.65 89 110.77000000000001L89 89.42000000000002C89 87.54000000000002 90.62 86.00000000000001 92.6 86.00000000000001 " fill-opacity="0" fill="#ffffff" stroke-dasharray="0" stroke-linejoin="miter" stroke-linecap="butt" stroke-opacity="1" stroke="#ffd427" stroke-miterlimit="50" stroke-width="2" transform="matrix(1,0,0,1,-88,-85)"></path><path id="SvgjsPath1009" d="M192.6 93.06C192.6 92 192.54 91.22 192.42 90.74000000000001C192.25 90.36000000000001 192.1 89.99000000000001 191.95999999999998 89.62C191.95999999999998 89.44 192.02999999999997 89.33 192.15999999999997 89.29C192.29999999999995 89.26 192.48999999999998 89.24000000000001 192.73999999999998 89.24000000000001C193.04 89.24000000000001 193.32999999999998 89.26 193.62999999999997 89.29C193.92999999999998 89.33000000000001 194.27999999999997 89.35000000000001 194.66999999999996 89.35000000000001L195.56999999999996 89.35000000000001C195.81999999999996 89.35000000000001 195.99999999999997 89.34 196.12999999999997 89.32000000000001L197.08999999999997 89.24000000000001C197.46999999999997 89.24000000000001 197.64999999999998 89.36000000000001 197.64999999999998 89.62C197.64999999999998 89.75 197.58999999999997 89.91000000000001 197.46999999999997 90.09C197.23999999999998 90.44 197.10999999999996 90.63000000000001 197.10999999999996 90.65C196.96999999999997 90.9 196.86999999999995 91.22 196.81999999999996 91.62C196.76999999999995 92.01 196.74999999999997 92.34 196.74999999999997 92.62L196.74999999999997 96.53C196.87999999999997 96.53 196.99999999999997 96.52 197.12999999999997 96.5C197.32999999999996 96.3 197.76999999999995 95.74 198.44999999999996 94.79C199.12999999999997 93.85000000000001 199.56999999999996 93.18 199.78999999999996 92.77000000000001C199.99999999999997 92.35000000000001 200.10999999999996 91.91000000000001 200.10999999999996 91.44000000000001C200.10999999999996 91.17000000000002 200.07999999999996 90.94000000000001 200.02999999999994 90.77000000000001C199.98999999999995 90.59 199.90999999999994 90.4 199.80999999999995 90.21000000000001C199.65999999999994 89.89000000000001 199.57999999999996 89.7 199.57999999999996 89.62C199.57999999999996 89.36 199.82999999999996 89.24000000000001 200.30999999999995 89.24000000000001C200.75999999999993 89.24000000000001 201.06999999999994 89.26 201.22999999999993 89.29C201.39999999999992 89.33000000000001 201.66999999999993 89.35000000000001 202.03999999999994 89.35000000000001C202.40999999999994 89.35000000000001 202.70999999999992 89.33000000000001 202.95999999999992 89.29C203.19999999999993 89.26 203.6899999999999 89.24000000000001 204.42999999999992 89.24000000000001C204.5699999999999 89.24000000000001 204.7199999999999 89.24000000000001 204.86999999999992 89.26C205.0099999999999 89.28 205.08999999999992 89.37 205.08999999999992 89.53C204.9099999999999 89.98 204.7599999999999 90.47 204.61999999999992 90.99C204.47999999999993 91.5 204.4099999999999 92.08 204.4099999999999 92.71L204.4099999999999 104.41C204.4099999999999 105.47 204.4399999999999 106.28 204.49999999999991 106.84C204.55999999999992 107.4 204.60999999999993 107.8 204.67999999999992 108.03C204.78999999999994 108.29 204.85999999999993 108.47 204.88999999999993 108.59C205.01999999999992 108.98 205.08999999999992 109.26 205.08999999999992 109.41C205.08999999999992 109.59 205.0099999999999 109.7 204.8499999999999 109.75C204.6899999999999 109.8 204.5199999999999 109.83 204.3499999999999 109.83C203.61999999999992 109.83 203.1599999999999 109.8 202.9799999999999 109.75C202.7899999999999 109.7 202.52999999999992 109.68 202.1899999999999 109.68C201.7199999999999 109.68 201.3899999999999 109.7 201.17999999999992 109.75C200.9699999999999 109.8 200.66999999999993 109.83 200.27999999999992 109.83C200.02999999999992 109.83 199.85999999999993 109.77 199.73999999999992 109.67C199.63999999999993 109.56 199.57999999999993 109.43 199.57999999999993 109.3C199.57999999999993 109.22 199.63999999999993 109.07 199.74999999999991 108.86C199.85999999999993 108.64 199.95999999999992 108.42 200.04999999999993 108.17999999999999C200.13999999999993 107.94 200.20999999999992 107.57 200.25999999999993 107.05999999999999C200.30999999999995 106.54999999999998 200.32999999999993 106.07999999999998 200.32999999999993 105.64999999999999L200.32999999999993 99.82999999999998C200.27999999999992 99.68999999999998 200.22999999999993 99.61999999999999 200.17999999999992 99.61999999999999C200.02999999999992 99.61999999999999 199.78999999999994 99.85 199.44999999999993 100.32999999999998C199.10999999999993 100.79999999999998 198.65999999999994 101.45999999999998 198.10999999999993 102.32999999999998C197.85999999999993 102.75999999999999 197.61999999999992 103.16999999999999 197.38999999999993 103.55999999999999C196.95999999999992 104.33999999999999 196.74999999999994 105.05999999999999 196.74999999999994 105.71C196.74999999999994 106.27999999999999 196.76999999999995 106.69 196.80999999999995 106.96C196.83999999999995 107.22 196.92999999999995 107.50999999999999 197.06999999999994 107.83C197.20999999999992 108.14 197.33999999999995 108.42999999999999 197.46999999999994 108.69C197.58999999999995 108.96 197.64999999999995 109.14999999999999 197.64999999999995 109.27C197.64999999999995 109.64 197.37999999999994 109.83 196.81999999999994 109.83C196.31999999999994 109.83 196.01999999999992 109.81 195.91999999999993 109.77C195.81999999999994 109.72999999999999 195.43999999999994 109.71 194.78999999999994 109.71C194.25999999999993 109.71 193.88999999999993 109.72999999999999 193.68999999999994 109.77C193.48999999999995 109.81 193.17999999999995 109.83 192.74999999999994 109.83C192.21999999999994 109.83 191.95999999999995 109.67 191.95999999999995 109.35C191.95999999999995 109.24 191.98999999999995 109.08 192.04999999999995 108.86999999999999C192.10999999999996 108.66 192.18999999999994 108.41999999999999 192.27999999999994 108.11999999999999C192.36999999999995 107.82999999999998 192.43999999999994 107.27 192.50999999999993 106.46C192.56999999999994 105.64 192.59999999999994 105.02999999999999 192.59999999999994 104.61999999999999ZM137.54 106.97C137.34 107.23 137.23999999999998 107.53 137.23999999999998 107.88C137.23999999999998 108.08 137.29999999999998 108.27 137.40999999999997 108.44C137.52999999999997 108.62 137.61999999999998 108.77 137.69999999999996 108.88C137.76999999999995 109 137.80999999999997 109.14 137.80999999999997 109.3C137.80999999999997 109.64999999999999 137.51999999999998 109.83 136.93999999999997 109.83C136.70999999999998 109.83 136.43999999999997 109.8 136.12999999999997 109.75C135.80999999999997 109.7 135.47999999999996 109.68 135.12999999999997 109.68L134.29999999999995 109.74000000000001L133.38999999999996 109.83000000000001C132.93999999999997 109.83000000000001 132.70999999999995 109.65 132.70999999999995 109.30000000000001C133.28999999999996 108.65 133.80999999999995 107.20000000000002 134.25999999999996 104.95000000000002C134.70999999999995 102.70000000000002 134.93999999999997 99.37000000000002 134.93999999999997 94.95000000000002C135.03999999999996 93.28000000000002 135.13999999999996 91.61000000000001 135.23999999999998 89.94000000000001C135.39 89.47000000000001 135.80999999999997 89.24000000000001 136.48999999999998 89.24000000000001C136.73999999999998 89.24000000000001 137.14999999999998 89.26 137.70999999999998 89.29C138.27999999999997 89.33000000000001 138.65999999999997 89.35000000000001 138.86999999999998 89.35000000000001C139.49999999999997 89.35000000000001 139.92 89.33000000000001 140.14999999999998 89.29C140.37999999999997 89.26 140.89999999999998 89.24000000000001 141.73 89.24000000000001C142.64 89.24000000000001 143.17999999999998 89.68 143.35999999999999 90.57000000000001C143.52999999999997 91.46000000000001 143.61999999999998 93.89 143.61999999999998 97.85000000000001C143.61999999999998 100.23 143.70999999999998 102.00000000000001 143.87999999999997 103.18C143.95999999999998 103.65 144.23999999999998 104.83000000000001 144.70999999999998 106.71000000000001L145.17 108.30000000000001C145.22 108.42000000000002 145.29 108.59000000000002 145.39 108.81000000000002C145.48999999999998 109.04000000000002 145.54 109.19000000000001 145.54 109.27000000000001C145.54 109.64000000000001 145.26 109.83000000000001 144.7 109.83000000000001L143.94 109.74000000000001L143.06 109.65C142.75 109.65 142.51 109.65 142.33 109.65C142.16000000000003 109.65 141.92000000000002 109.68 141.64000000000001 109.74000000000001L140.84 109.83000000000001C140.58 109.83000000000001 140.39000000000001 109.75000000000001 140.24 109.61000000000001C140.11 109.46000000000001 140.03 109.33000000000001 140.03 109.21000000000001C140.03 109.01 140.14000000000001 108.80000000000001 140.36 108.58000000000001C140.57000000000002 108.35000000000001 140.68 108.08000000000001 140.68 107.77000000000001C140.68 107.39000000000001 140.56 107.09 140.34 106.85000000000001C140.03 106.56 139.58 106.41000000000001 138.98 106.41000000000001C138.32999999999998 106.41000000000001 137.85 106.60000000000001 137.54 106.97000000000001ZM120.68 94.74C120.68 94.55999999999999 120.62 94.39999999999999 120.51 94.25C120.39 94.1 120.26 94.03 120.11 94.03C119.73 94.03 119.48 94.19 119.36 94.52C119.23 94.83999999999999 119.17 95.25 119.17 95.77C119.17 97.75 119.09 99.49 118.94 101C118.66 103.12 118.44 104.94 118.25999999999999 106.47C118.25999999999999 107.57 118.1 108.38 117.77 108.91C117.28999999999999 109.67999999999999 116.46 110.06 115.28 110.06C114.65 110.06 114.17 109.97 113.85 109.8C113.52 109.63 113.36 109.32 113.36 108.86999999999999L113.47 105.89999999999999L113.47 104.38C113.47 103.91 113.65 103.67999999999999 114.02 103.67999999999999C114.24 103.67999999999999 114.36 103.77999999999999 114.38 103.99C114.41 104.19 114.47 104.33 114.56 104.41L114.75 104.41C114.87 104.41 114.96 104.33 115.02 104.17999999999999C115.08 104.02 115.14 103.74999999999999 115.19 103.36C115.23 102.96 115.31 102 115.41 100.47C115.6 97.59 115.7 95.7 115.7 94.78999999999999L115.7 94.24C115.7 93.50999999999999 115.67 92.92 115.62 92.47C115.57000000000001 92.02 115.51 91.56 115.43 91.1C115.36000000000001 90.64 115.29 90.33999999999999 115.24000000000001 90.21C115.19000000000001 90.07 115.17000000000002 89.91999999999999 115.17000000000002 89.75999999999999C115.17000000000002 89.41 115.47000000000001 89.24 116.07000000000002 89.24C116.50000000000003 89.24 117.16000000000003 89.25 118.05000000000003 89.28C118.95000000000003 89.31 119.68000000000002 89.33 120.26000000000002 89.35L122.79000000000002 89.35L124.90000000000002 89.24C125.08000000000003 89.24 125.26000000000002 89.25999999999999 125.45000000000002 89.30999999999999C125.64000000000001 89.35999999999999 125.73000000000002 89.51999999999998 125.73000000000002 89.78999999999999C125.73000000000002 89.94999999999999 125.72000000000001 90.05999999999999 125.70000000000002 90.11999999999999C125.47000000000001 90.60999999999999 125.31000000000002 91.02999999999999 125.21000000000002 91.38C124.95000000000002 92.36 124.83000000000003 93.35 124.83000000000003 94.35L124.83000000000003 106.44C124.83000000000003 106.75999999999999 124.84000000000003 107.05 124.87000000000003 107.33C124.89000000000003 107.6 124.95000000000003 107.87 125.03000000000003 108.12C125.12000000000003 108.38000000000001 125.21000000000004 108.62 125.28000000000003 108.86C125.36000000000003 109.09 125.39000000000003 109.25 125.39000000000003 109.33C125.39000000000003 109.64 125.18000000000004 109.8 124.75000000000003 109.8C124.50000000000003 109.8 124.08000000000003 109.78 123.49000000000002 109.75C122.90000000000002 109.72 122.51000000000002 109.71 122.34000000000002 109.71C121.73000000000002 109.71 121.32000000000002 109.72 121.09000000000002 109.75C120.87000000000002 109.78 120.64000000000001 109.81 120.41000000000001 109.83C120.04 109.83 119.85000000000001 109.69 119.85000000000001 109.41C119.85000000000001 109.28 119.9 109.08 120.00000000000001 108.83C120.10000000000001 108.57 120.18000000000002 108.36 120.22000000000001 108.17999999999999C120.37000000000002 107.77 120.49000000000001 107.33 120.56000000000002 106.86999999999999C120.64000000000001 106.41 120.68000000000002 105.77999999999999 120.68000000000002 104.96999999999998ZM172.71 93.53C172.71 93.12 172.68 92.68 172.6 92.22C172.51999999999998 91.76 172.43 91.33 172.32 90.92999999999999C172.2 90.52999999999999 172.12 90.24999999999999 172.07 90.08999999999999C172.01999999999998 89.92999999999999 172 89.82 172 89.75999999999999C172 89.55 172.07 89.41 172.22 89.33999999999999C172.37 89.27 172.56 89.24 172.76 89.24C172.98 89.24 173.35999999999999 89.25999999999999 173.89999999999998 89.30999999999999C174.42 89.35999999999999 174.82999999999998 89.37999999999998 175.10999999999999 89.37999999999998L178.79999999999998 89.46999999999998C179.21999999999997 89.46999999999998 180.01999999999998 89.42999999999998 181.17999999999998 89.34999999999998C182.34999999999997 89.27999999999999 183.04999999999998 89.23999999999998 183.26999999999998 89.23999999999998C183.64999999999998 89.23999999999998 183.90999999999997 89.26999999999998 184.02999999999997 89.33999999999997C184.15999999999997 89.40999999999997 184.21999999999997 89.52999999999997 184.21999999999997 89.70999999999998C184.21999999999997 90.24999999999999 184.15999999999997 90.62999999999998 184.04999999999998 90.81999999999998C183.73999999999998 91.36999999999998 183.57999999999998 92.23999999999998 183.57999999999998 93.40999999999998L183.57999999999998 105.76999999999998C183.57999999999998 106.66999999999999 183.64999999999998 107.35999999999999 183.79 107.83999999999997C183.92999999999998 108.31999999999998 184.07 108.79999999999997 184.22 109.26999999999998C184.22 109.63999999999999 184.02 109.82999999999998 183.62 109.82999999999998C183.17000000000002 109.82999999999998 182.79 109.79999999999998 182.49 109.74999999999999C182.18 109.69999999999999 181.81 109.67999999999999 181.35000000000002 109.67999999999999C180.90000000000003 109.67999999999999 180.53000000000003 109.69999999999999 180.24 109.74999999999999C179.95000000000002 109.79999999999998 179.71 109.82999999999998 179.5 109.82999999999998C179.33 109.80999999999999 179.2 109.78999999999998 179.13 109.76999999999998C178.88 109.66999999999999 178.75 109.48999999999998 178.75 109.23999999999998C178.75 108.95999999999998 178.81 108.68999999999998 178.94 108.41999999999999C179.27 107.68999999999998 179.43 106.97999999999999 179.43 106.29999999999998L179.43 95.76999999999998C179.43 95.26999999999998 179.38 94.91999999999999 179.28 94.70999999999998C179.08 94.25999999999998 178.7 94.02999999999997 178.15 94.02999999999997C177.59 94.02999999999997 177.22 94.23999999999997 177.02 94.64999999999998C176.91 94.85999999999997 176.86 95.23999999999998 176.86 95.76999999999998L176.86 106.26999999999998C176.86 107.20999999999998 177.03 107.98999999999998 177.36 108.61999999999998C177.5 108.90999999999998 177.58 109.11999999999998 177.58 109.23999999999998C177.58 109.40999999999998 177.51000000000002 109.55999999999997 177.37 109.66999999999999C177.23000000000002 109.76999999999998 176.99 109.82999999999998 176.64000000000001 109.82999999999998C176.39000000000001 109.82999999999998 176.14000000000001 109.79999999999998 175.9 109.74999999999999C175.66 109.69999999999999 175.29 109.67999999999999 174.79 109.67999999999999C174.10999999999999 109.67999999999999 173.63 109.69999999999999 173.35 109.74C173.07999999999998 109.78 172.82999999999998 109.80999999999999 172.6 109.83C172.2 109.83 172 109.66 172 109.33C172 109.21 172.05 109.02 172.15 108.77C172.25 108.50999999999999 172.32 108.31 172.37 108.14999999999999C172.6 107.41 172.71 106.66 172.71 105.91ZM213.58 95.18C213.58 94.61000000000001 213.57000000000002 94.04 213.54000000000002 93.49000000000001C213.52 92.93 213.49 92.38000000000001 213.47000000000003 91.85000000000001C213.42000000000002 91.48 213.37000000000003 91.13000000000001 213.32000000000002 90.81C213.26000000000002 90.49000000000001 213.24 90.23 213.24 90.06C213.24 89.73 213.33 89.5 213.5 89.4C213.68 89.29 213.92 89.24000000000001 214.22 89.24000000000001L215.77 89.24000000000001L217.35000000000002 89.32000000000001C217.91000000000003 89.32000000000001 218.40000000000003 89.31 218.84000000000003 89.29C219.28000000000003 89.28 219.72000000000003 89.26 220.15000000000003 89.24000000000001C221.28000000000003 89.24000000000001 222.16000000000003 89.74000000000001 222.79000000000002 90.75000000000001C223.42000000000002 91.76000000000002 223.73000000000002 93.08000000000001 223.73000000000002 94.71000000000001C223.73000000000002 95.51 223.67000000000002 96.2 223.54000000000002 96.78C223.42000000000002 97.36 223.14000000000001 97.87 222.71 98.32000000000001C222.58 98.44000000000001 222.44 98.59 222.28 98.77000000000001C222.11 98.94000000000001 222.03 99.07000000000001 222.03 99.15C222.03 99.27000000000001 222.16 99.49000000000001 222.41 99.83000000000001C222.66 100.16000000000001 222.82 100.38000000000001 222.9 100.50000000000001C223.33 101.15000000000002 223.67000000000002 101.89000000000001 223.92000000000002 102.74000000000001C224.17000000000002 103.58000000000001 224.3 104.42000000000002 224.3 105.27000000000001C224.3 106.52000000000001 223.94 107.57000000000001 223.24 108.42000000000002C222.46 109.35000000000002 221.38 109.83000000000001 219.99 109.83000000000001C219.84 109.83000000000001 219.49 109.80000000000001 218.92000000000002 109.75000000000001C218.35000000000002 109.70000000000002 217.69000000000003 109.68000000000002 216.94000000000003 109.68000000000002C215.91000000000003 109.68000000000002 215.21000000000004 109.70000000000002 214.86 109.74000000000002C214.51000000000002 109.78000000000003 214.18 109.81000000000002 213.88000000000002 109.83000000000003C213.50000000000003 109.83000000000003 213.25000000000003 109.75000000000003 213.13000000000002 109.61000000000003C213.00000000000003 109.46000000000002 212.94000000000003 109.29000000000003 212.94000000000003 109.09000000000003C213.09000000000003 108.50000000000003 213.23000000000002 107.84000000000003 213.37000000000003 107.09000000000003C213.51000000000002 106.34000000000003 213.58000000000004 105.31000000000003 213.58000000000004 103.97000000000003ZM153.54 95.18C153.54 94.61000000000001 153.53 94.04 153.51 93.49000000000001C153.48 92.93 153.45999999999998 92.38000000000001 153.42999999999998 91.85000000000001C153.37999999999997 91.48 153.32999999999998 91.13000000000001 153.27999999999997 90.81C153.22999999999996 90.49000000000001 153.19999999999996 90.23 153.19999999999996 90.06C153.19999999999996 89.73 153.28999999999996 89.5 153.46999999999997 89.4C153.63999999999996 89.29 153.87999999999997 89.24000000000001 154.18999999999997 89.24000000000001L155.72999999999996 89.24000000000001L157.31999999999996 89.32000000000001C157.86999999999998 89.32000000000001 158.36999999999998 89.31 158.80999999999997 89.29C159.24999999999997 89.28 159.67999999999998 89.26 160.10999999999999 89.24000000000001C161.23999999999998 89.24000000000001 162.11999999999998 89.74000000000001 162.74999999999997 90.75000000000001C163.37999999999997 91.76000000000002 163.68999999999997 93.08000000000001 163.68999999999997 94.71000000000001C163.68999999999997 95.51 163.62999999999997 96.2 163.50999999999996 96.78C163.37999999999997 97.36 163.09999999999997 97.87 162.67999999999995 98.32000000000001C162.54999999999995 98.44000000000001 162.40999999999994 98.59 162.23999999999995 98.77000000000001C162.07999999999996 98.94000000000001 161.99999999999994 99.07000000000001 161.99999999999994 99.15C161.99999999999994 99.27000000000001 162.11999999999995 99.49000000000001 162.36999999999995 99.83000000000001C162.62999999999994 100.16000000000001 162.78999999999994 100.38000000000001 162.85999999999996 100.50000000000001C163.28999999999996 101.15000000000002 163.62999999999997 101.89000000000001 163.87999999999997 102.74000000000001C164.13999999999996 103.58000000000001 164.25999999999996 104.42000000000002 164.25999999999996 105.27000000000001C164.25999999999996 106.52000000000001 163.90999999999997 107.57000000000001 163.19999999999996 108.42000000000002C162.41999999999996 109.35000000000002 161.33999999999995 109.83000000000001 159.95999999999995 109.83000000000001C159.80999999999995 109.83000000000001 159.44999999999996 109.80000000000001 158.87999999999994 109.75000000000001C158.31999999999994 109.70000000000002 157.65999999999994 109.68000000000002 156.89999999999995 109.68000000000002C155.86999999999995 109.68000000000002 155.17999999999995 109.70000000000002 154.82999999999996 109.74000000000002C154.47999999999996 109.78000000000003 154.14999999999995 109.81000000000002 153.84999999999997 109.83000000000003C153.46999999999997 109.83000000000003 153.21999999999997 109.75000000000003 153.08999999999997 109.61000000000003C152.96999999999997 109.46000000000002 152.89999999999998 109.29000000000003 152.89999999999998 109.09000000000003C153.04999999999998 108.50000000000003 153.2 107.84000000000003 153.33999999999997 107.09000000000003C153.46999999999997 106.34000000000003 153.53999999999996 105.31000000000003 153.53999999999996 103.97000000000003ZM232.41 95.24C232.41 93.03999999999999 232.85 91.44999999999999 233.75 90.47C234.64 89.49 236.03 89 237.92 89C239.89999999999998 89 241.29999999999998 89.6 242.10999999999999 90.79C242.64 91.58000000000001 242.89999999999998 92.58000000000001 242.89999999999998 93.80000000000001L242.89999999999998 104.91000000000001C242.89999999999998 106.50000000000001 242.45999999999998 107.76 241.57999999999998 108.68C240.7 109.60000000000001 239.42999999999998 110.06 237.76999999999998 110.06C236.07999999999998 110.06 234.76999999999998 109.65 233.82 108.81C232.88 107.98 232.41 106.78 232.41 105.21000000000001ZM236.56 104.74C236.56 105.27 236.65 105.63 236.82 105.83999999999999C237 106.04999999999998 237.26 106.14999999999999 237.62 106.14999999999999C237.99 106.14999999999999 238.28 106.02999999999999 238.47 105.77999999999999C238.65 105.53999999999999 238.75 105.14999999999999 238.75 104.61999999999999L238.75 95.21C238.75 94.75999999999999 238.71 94.44 238.64 94.27C238.48 93.89 238.16 93.71 237.66 93.71C237.15 93.71 236.84 93.85 236.73 94.14999999999999C236.61999999999998 94.44 236.56 94.83999999999999 236.56 95.35ZM139.88 102.94C139.98 102.81 140.03 102.64 140.03 102.44L140.03 99.85C140.03 98.66 139.94 97.61 139.75 96.69C139.56 95.78 139.33 95.33 139.05 95.33C138.75 95.33 138.49 96.17999999999999 138.26000000000002 97.89999999999999C138.04000000000002 99.60999999999999 137.92000000000002 100.8 137.92000000000002 101.46999999999998L137.92000000000002 101.96999999999998C137.92000000000002 102.41999999999999 137.98000000000002 102.75999999999999 138.11 102.96999999999998C138.24 103.18999999999998 138.52 103.29999999999998 138.98000000000002 103.29999999999998C139.41000000000003 103.29999999999998 139.71 103.17999999999998 139.88000000000002 102.93999999999998ZM217.73 105.53C217.73 105.86 217.79 106.12 217.89999999999998 106.31C218.01 106.5 218.31999999999996 106.59 218.81999999999996 106.59C219.27999999999997 106.59 219.57999999999996 106.52000000000001 219.72999999999996 106.38000000000001C220.00999999999996 106.13000000000001 220.14999999999995 105.62 220.14999999999995 104.85000000000001C220.14999999999995 103.89000000000001 219.89999999999995 102.93 219.40999999999994 101.97000000000001C218.91999999999993 101.01000000000002 218.46999999999994 100.53000000000002 218.06999999999994 100.53000000000002C217.91999999999993 100.53000000000002 217.81999999999994 100.60000000000001 217.78999999999994 100.74000000000001C217.74999999999994 100.87 217.72999999999993 101.05000000000001 217.72999999999993 101.27000000000001ZM157.7 105.53C157.7 105.86 157.75 106.12 157.85999999999999 106.31C157.98 106.5 158.29 106.59 158.79 106.59C159.23999999999998 106.59 159.54 106.52000000000001 159.7 106.38000000000001C159.97 106.13000000000001 160.10999999999999 105.62 160.10999999999999 104.85000000000001C160.10999999999999 103.89000000000001 159.85999999999999 102.93 159.36999999999998 101.97000000000001C158.87999999999997 101.01000000000002 158.43999999999997 100.53000000000002 158.02999999999997 100.53000000000002C157.87999999999997 100.53000000000002 157.78999999999996 100.60000000000001 157.74999999999997 100.74000000000001C157.70999999999998 100.87 157.69999999999996 101.05000000000001 157.69999999999996 101.27000000000001ZM217.73 95.41C217.73 95.82 217.85999999999999 96.11999999999999 218.10999999999999 96.3C218.35999999999999 96.47 218.64999999999998 96.56 218.98 96.56C219.32999999999998 96.56 219.59 96.42 219.76999999999998 96.15C219.93999999999997 95.87 220.02999999999997 95.44000000000001 220.02999999999997 94.85000000000001C220.02999999999997 94.30000000000001 219.91999999999996 93.91000000000001 219.68999999999997 93.68C219.46999999999997 93.44000000000001 219.14999999999998 93.32000000000001 218.74999999999997 93.32000000000001C218.36999999999998 93.32000000000001 218.10999999999999 93.42 217.95999999999998 93.60000000000001C217.80999999999997 93.79 217.73 94.03000000000002 217.73 94.32000000000001ZM157.7 95.41C157.7 95.82 157.82 96.11999999999999 158.07 96.3C158.32 96.47 158.60999999999999 96.56 158.94 96.56C159.29 96.56 159.56 96.42 159.73 96.15C159.91 95.87 160 95.44000000000001 160 94.85000000000001C160 94.30000000000001 159.88 93.91000000000001 159.66 93.68C159.43 93.44000000000001 159.12 93.32000000000001 158.71 93.32000000000001C158.34 93.32000000000001 158.07000000000002 93.42 157.92000000000002 93.60000000000001C157.77 93.79 157.70000000000002 94.03000000000002 157.70000000000002 94.32000000000001ZM96.56 104.97C96.56 105.86 96.51 106.67 96.4 107.42999999999999C96.28 108.17999999999999 96.15 108.82 96 109.33C96 109.66 96.24 109.83 96.72 109.83C97.03999999999999 109.83 97.36 109.81 97.67999999999999 109.78C97.99 109.75 98.49 109.74 99.16999999999999 109.74C99.32 109.74 99.67999999999999 109.75 100.24999999999999 109.78C100.80999999999999 109.81 101.32999999999998 109.83 101.80999999999999 109.83C102.08999999999999 109.83 102.32999999999998 109.78999999999999 102.54999999999998 109.71C102.75999999999998 109.63 102.86999999999998 109.46 102.86999999999998 109.21C102.86999999999998 108.99 102.69999999999997 108.78999999999999 102.37999999999998 108.58999999999999C101.94999999999997 108.33999999999999 101.65999999999998 108.13 101.50999999999998 107.96999999999998C101.22999999999998 107.67999999999998 101.02999999999997 107.27999999999999 100.90999999999998 106.76999999999998C100.77999999999999 106.25999999999998 100.71999999999998 105.53999999999998 100.71999999999998 104.61999999999998L100.71999999999998 96.25999999999998C100.71999999999998 95.49999999999997 100.79999999999998 94.98999999999998 100.97999999999999 94.71999999999997C101.16 94.45999999999997 101.57999999999998 94.31999999999996 102.25999999999999 94.31999999999996C102.66999999999999 94.31999999999996 102.99 94.35999999999997 103.22999999999999 94.43999999999997C103.46999999999998 94.51999999999997 103.69999999999999 94.67999999999996 103.91999999999999 94.90999999999997C104.04999999999998 95.02999999999997 104.23999999999998 95.22999999999996 104.48999999999998 95.49999999999997C104.68999999999998 95.67999999999998 104.95999999999998 95.76999999999997 105.27999999999999 95.76999999999997C105.60999999999999 95.76999999999997 105.83999999999999 95.66999999999997 105.97999999999999 95.46999999999997C106.11999999999999 95.26999999999997 106.18999999999998 94.99999999999997 106.18999999999998 94.64999999999998C106.13999999999999 94.34999999999998 106.09999999999998 94.06999999999998 106.06999999999998 93.80999999999997C106.04999999999998 93.53999999999998 106.03999999999998 93.07999999999997 106.03999999999998 92.40999999999997L106.14999999999998 91.37999999999997C106.14999999999998 91.27999999999997 106.17999999999998 91.13999999999997 106.21999999999997 90.95999999999997C106.26999999999997 90.76999999999997 106.29999999999997 90.48999999999997 106.29999999999997 90.11999999999996C106.29999999999997 89.85999999999996 106.24999999999997 89.67999999999996 106.14999999999996 89.55999999999996C105.96999999999996 89.33999999999996 105.60999999999996 89.23999999999997 105.05999999999996 89.23999999999997C104.61999999999996 89.23999999999997 103.99999999999996 89.25999999999996 103.22999999999996 89.30999999999996C102.44999999999996 89.35999999999996 101.57999999999996 89.37999999999995 100.60999999999996 89.37999999999995C99.68999999999996 89.37999999999995 99.09999999999995 89.35999999999996 98.86999999999996 89.30999999999996C98.62999999999997 89.25999999999996 98.03999999999996 89.23999999999997 97.08999999999996 89.23999999999997C96.80999999999996 89.23999999999997 96.55999999999996 89.27999999999997 96.33999999999996 89.37999999999997C96.10999999999996 89.47999999999996 95.99999999999996 89.67999999999996 95.99999999999996 89.96999999999997C96.12999999999995 90.53999999999996 96.25999999999996 91.09999999999997 96.37999999999995 91.64999999999998C96.49999999999996 92.19999999999997 96.55999999999996 93.05999999999997 96.55999999999996 94.23999999999998Z " fill="#fed328" fill-opacity="1" transform="matrix(1,0,0,1,-88,-85)"></path></svg>