<svg id="SvgjsSvg1000" xmlns="http://www.w3.org/2000/svg" version="1.1" xmlns:xlink="http://www.w3.org/1999/xlink" xmlns:svgjs="http://svgjs.com/svgjs" width="197" height="35" viewBox="0 0 197 35"><title>logo</title><desc>Created with Avocode.</desc><defs id="SvgjsDefs1001"></defs><path id="SvgjsPath1007" d="M548.34 420L735.86 420C738.24 420 740.19 421.91 740.19 424.25L740.19 450.74C740.19 453.08 738.24 454.99 735.86 454.99L548.34 454.99C545.95 454.99 544 453.08 544 450.74L544 424.25C544 421.91 545.95 420 548.34 420 " fill="#070708" fill-opacity="1" transform="matrix(1,0,0,1,-544,-420)"></path><path id="SvgjsPath1008" d="M669.96 428.93C669.96 427.65000000000003 669.89 426.7 669.75 426.11C669.54 425.66 669.35 425.2 669.18 424.75C669.18 424.54 669.26 424.4 669.43 424.36C669.5899999999999 424.31 669.8299999999999 424.29 670.13 424.29C670.49 424.29 670.85 424.31 671.21 424.36C671.57 424.40000000000003 671.99 424.43 672.47 424.43L673.5500000000001 424.43C673.86 424.43 674.08 424.42 674.23 424.39L675.4 424.28999999999996C675.85 424.28999999999996 676.0799999999999 424.43999999999994 676.0799999999999 424.74999999999994C676.0799999999999 424.91999999999996 675.9999999999999 425.10999999999996 675.8599999999999 425.31999999999994C675.5699999999999 425.74999999999994 675.4199999999998 425.97999999999996 675.4199999999998 425.99999999999994C675.2499999999999 426.30999999999995 675.1299999999999 426.69999999999993 675.0699999999998 427.17999999999995C675.0099999999999 427.65999999999997 674.9799999999998 428.05999999999995 674.9799999999998 428.4L674.9799999999998 433.15C675.1399999999998 433.15 675.2899999999997 433.14 675.4399999999998 433.12C675.6899999999998 432.88 676.2199999999998 432.19 677.0399999999998 431.04C677.8599999999999 429.90000000000003 678.3999999999999 429.08000000000004 678.6599999999999 428.58000000000004C678.9199999999998 428.08000000000004 679.0499999999998 427.54 679.0499999999998 426.97C679.0499999999998 426.63000000000005 679.0199999999999 426.36 678.9599999999998 426.15000000000003C678.9099999999999 425.93 678.8099999999998 425.70000000000005 678.6899999999998 425.47C678.4999999999998 425.08000000000004 678.4099999999999 424.85 678.4099999999999 424.75C678.4099999999999 424.44 678.7099999999998 424.29 679.2999999999998 424.29C679.8299999999998 424.29 680.2099999999998 424.31 680.4099999999999 424.36C680.6199999999999 424.40000000000003 680.9399999999998 424.43 681.3899999999999 424.43C681.8399999999999 424.43 682.1999999999998 424.40000000000003 682.4999999999999 424.36C682.7999999999998 424.31 683.3899999999999 424.29 684.2799999999999 424.29C684.4599999999998 424.29 684.6399999999999 424.3 684.8099999999998 424.32C684.9899999999998 424.34999999999997 685.0799999999998 424.45 685.0799999999998 424.64C684.8699999999998 425.19 684.6799999999998 425.78 684.5099999999998 426.40999999999997C684.3399999999998 427.03999999999996 684.2599999999998 427.73999999999995 684.2599999999998 428.49999999999994L684.2599999999998 442.73999999999995C684.2599999999998 444.0199999999999 684.2999999999997 445.00999999999993 684.3599999999998 445.68999999999994C684.4299999999998 446.35999999999996 684.4999999999998 446.84999999999997 684.5899999999998 447.12999999999994C684.7199999999998 447.43999999999994 684.8099999999998 447.66999999999996 684.8399999999998 447.80999999999995C684.9999999999998 448.28999999999996 685.0799999999998 448.61999999999995 685.0799999999998 448.80999999999995C685.0799999999998 449.03 684.9799999999998 449.15999999999997 684.7899999999998 449.22999999999996C684.5999999999998 449.28 684.3899999999999 449.30999999999995 684.1899999999998 449.30999999999995C683.2999999999998 449.30999999999995 682.7399999999998 449.28 682.5199999999999 449.22999999999996C682.2999999999998 449.15999999999997 681.9799999999999 449.12999999999994 681.5699999999998 449.12999999999994C681.0099999999999 449.12999999999994 680.5999999999998 449.1599999999999 680.3399999999998 449.22999999999996C680.0899999999998 449.28 679.7299999999998 449.30999999999995 679.2499999999998 449.30999999999995C678.9599999999998 449.30999999999995 678.7399999999998 449.24999999999994 678.6099999999998 449.11999999999995C678.4799999999998 448.98999999999995 678.4099999999997 448.84 678.4099999999997 448.66999999999996C678.4099999999997 448.58 678.4799999999998 448.4 678.6199999999998 448.12999999999994C678.7499999999998 447.86999999999995 678.8699999999998 447.59999999999997 678.9799999999998 447.30999999999995C679.0899999999998 447.03 679.1699999999998 446.56999999999994 679.2299999999998 445.94999999999993C679.2899999999997 445.3299999999999 679.3199999999998 444.75999999999993 679.3199999999998 444.23999999999995L679.3199999999998 437.15999999999997C679.2599999999999 436.98999999999995 679.1999999999998 436.90999999999997 679.1399999999999 436.90999999999997C678.9599999999999 436.90999999999997 678.6599999999999 437.18999999999994 678.2499999999999 437.77C677.8399999999999 438.34 677.2999999999998 439.15 676.6299999999999 440.2C676.3199999999999 440.71999999999997 676.0299999999999 441.21999999999997 675.7599999999999 441.7C675.2399999999999 442.65 674.9799999999999 443.52 674.9799999999999 444.31C674.9799999999999 445 675.0099999999999 445.51 675.05 445.83C675.0999999999999 446.15 675.1999999999999 446.5 675.37 446.88C675.54 447.26 675.7 447.62 675.85 447.94C676 448.26 676.08 448.49 676.08 448.63C676.08 449.09 675.74 449.31 675.07 449.31C674.47 449.31 674.1 449.29 673.98 449.24C673.86 449.2 673.4 449.17 672.61 449.17C671.97 449.17 671.53 449.2 671.28 449.24C671.04 449.29 670.66 449.31 670.14 449.31C669.5 449.31 669.18 449.12 669.18 448.74C669.18 448.6 669.2199999999999 448.40000000000003 669.3 448.15000000000003C669.37 447.90000000000003 669.4599999999999 447.6 669.5699999999999 447.24C669.68 446.88 669.77 446.21000000000004 669.8399999999999 445.22C669.92 444.23 669.9599999999999 443.48 669.9599999999999 442.98ZM603.3 445.85C603.06 446.16 602.9399999999999 446.53000000000003 602.9399999999999 446.95000000000005C602.9399999999999 447.19000000000005 602.9999999999999 447.4200000000001 603.14 447.63000000000005C603.28 447.8500000000001 603.39 448.03000000000003 603.48 448.1700000000001C603.57 448.31000000000006 603.62 448.4800000000001 603.62 448.6700000000001C603.62 449.1000000000001 603.27 449.31000000000006 602.57 449.31000000000006C602.2900000000001 449.31000000000006 601.97 449.2800000000001 601.59 449.2300000000001C601.21 449.1600000000001 600.8000000000001 449.13000000000005 600.38 449.13000000000005L599.37 449.21000000000004L598.27 449.31000000000006C597.73 449.31000000000006 597.4499999999999 449.1000000000001 597.4499999999999 448.6700000000001C598.15 447.88000000000005 598.78 446.12000000000006 599.3299999999999 443.3900000000001C599.8699999999999 440.6500000000001 600.15 436.6000000000001 600.15 431.2300000000001C600.27 429.2000000000001 600.39 427.18000000000006 600.51 425.1400000000001C600.7 424.5700000000001 601.2 424.2900000000001 602.02 424.2900000000001C602.3299999999999 424.2900000000001 602.8199999999999 424.31000000000006 603.51 424.36000000000007C604.1899999999999 424.4000000000001 604.65 424.43000000000006 604.9 424.43000000000006C605.66 424.43000000000006 606.18 424.4000000000001 606.4499999999999 424.36000000000007C606.7299999999999 424.31000000000006 607.3699999999999 424.2900000000001 608.3699999999999 424.2900000000001C609.4699999999999 424.2900000000001 610.1199999999999 424.8300000000001 610.3399999999999 425.9100000000001C610.55 427.00000000000006 610.66 429.9500000000001 610.66 434.7600000000001C610.66 437.6500000000001 610.76 439.8000000000001 610.98 441.23000000000013C611.07 441.8000000000001 611.4 443.2400000000001 611.98 445.52000000000015L612.53 447.45000000000016C612.5899999999999 447.60000000000014 612.68 447.8100000000002 612.8 448.08000000000015C612.92 448.3600000000001 612.99 448.54000000000013 612.99 448.63000000000017C612.99 449.09000000000015 612.64 449.3100000000002 611.97 449.3100000000002L611.0400000000001 449.21000000000015L609.9800000000001 449.10000000000014C609.6100000000001 449.10000000000014 609.3100000000002 449.10000000000014 609.1000000000001 449.10000000000014C608.8800000000001 449.10000000000014 608.6000000000001 449.1300000000001 608.2600000000001 449.21000000000015L607.2900000000001 449.3100000000002C606.9800000000001 449.3100000000002 606.7400000000001 449.2300000000002 606.57 449.0500000000002C606.4000000000001 448.8700000000002 606.32 448.7100000000002 606.32 448.5600000000002C606.32 448.32000000000016 606.45 448.07000000000016 606.7 447.7900000000002C606.96 447.5200000000002 607.09 447.19000000000017 607.09 446.8100000000002C607.09 446.3600000000002 606.96 445.9900000000002 606.6800000000001 445.70000000000016C606.32 445.34000000000015 605.7700000000001 445.1700000000002 605.0400000000001 445.1700000000002C604.2500000000001 445.1700000000002 603.6700000000001 445.3900000000002 603.3000000000001 445.8500000000002ZM582.88 430.97C582.88 430.76000000000005 582.81 430.56 582.67 430.38000000000005C582.54 430.20000000000005 582.38 430.12000000000006 582.1899999999999 430.12000000000006C581.7399999999999 430.12000000000006 581.43 430.31000000000006 581.28 430.70000000000005C581.13 431.1 581.05 431.6 581.05 432.22C581.05 434.63000000000005 580.9599999999999 436.75 580.78 438.59000000000003C580.4399999999999 441.16 580.17 443.38000000000005 579.9599999999999 445.24C579.9599999999999 446.57 579.7599999999999 447.56 579.3599999999999 448.21000000000004C578.7799999999999 449.13000000000005 577.7799999999999 449.6 576.3399999999999 449.6C575.5799999999999 449.6 574.9999999999999 449.49 574.6099999999999 449.28000000000003C574.2099999999999 449.07000000000005 574.0199999999999 448.69000000000005 574.0199999999999 448.15000000000003L574.1499999999999 444.54L574.1499999999999 442.70000000000005C574.1499999999999 442.13000000000005 574.3699999999999 441.84000000000003 574.8199999999998 441.84000000000003C575.0799999999998 441.84000000000003 575.2199999999998 441.97 575.2599999999999 442.22C575.2899999999998 442.47 575.3599999999999 442.64000000000004 575.4799999999999 442.74L575.6999999999999 442.74C575.8399999999999 442.74 575.9599999999999 442.64 576.03 442.45C576.1 442.26 576.17 441.93 576.23 441.45C576.29 440.96999999999997 576.38 439.8 576.5 437.94C576.73 434.44 576.85 432.14 576.85 431.04L576.85 430.36C576.85 429.48 576.82 428.77000000000004 576.76 428.22C576.6899999999999 427.67 576.62 427.12 576.53 426.56C576.4399999999999 426 576.36 425.63 576.3 425.47C576.24 425.3 576.2099999999999 425.12 576.2099999999999 424.93C576.2099999999999 424.5 576.5699999999999 424.29 577.3 424.29C577.8199999999999 424.29 578.62 424.3 579.6999999999999 424.34000000000003C580.78 424.37 581.67 424.40000000000003 582.3799999999999 424.43L585.4399999999998 424.43L587.9899999999998 424.29C588.2099999999998 424.29 588.4299999999998 424.32 588.6599999999997 424.37C588.8899999999998 424.44 588.9999999999998 424.63 588.9999999999998 424.97C588.9999999999998 425.16 588.9899999999998 425.29 588.9499999999998 425.36C588.6799999999998 425.96000000000004 588.4799999999998 426.47 588.3599999999998 426.90000000000003C588.0599999999998 428.09000000000003 587.8999999999997 429.29 587.8999999999997 430.51000000000005L587.8999999999997 445.20000000000005C587.8999999999997 445.58000000000004 587.9199999999997 445.94000000000005 587.9499999999997 446.27000000000004C587.9799999999997 446.61 588.0499999999997 446.93000000000006 588.1499999999997 447.24000000000007C588.2599999999998 447.55000000000007 588.3599999999998 447.8500000000001 588.4499999999997 448.13000000000005C588.5399999999997 448.4200000000001 588.5899999999997 448.61000000000007 588.5899999999997 448.71000000000004C588.5899999999997 449.09000000000003 588.3299999999997 449.28000000000003 587.8099999999997 449.28000000000003C587.5099999999998 449.28000000000003 586.9999999999998 449.26000000000005 586.2799999999997 449.23C585.5699999999997 449.19 585.0999999999998 449.17 584.8899999999998 449.17C584.1599999999997 449.17 583.6499999999997 449.19 583.3799999999998 449.23C583.1099999999998 449.26 582.8299999999998 449.29 582.5599999999997 449.31C582.0999999999997 449.31 581.8699999999997 449.15 581.8699999999997 448.81C581.8699999999997 448.65 581.9399999999997 448.41 582.0499999999996 448.1C582.1799999999996 447.79 582.2699999999996 447.53000000000003 582.3299999999996 447.31C582.5099999999995 446.81 582.6499999999996 446.28000000000003 582.7399999999996 445.72C582.8299999999996 445.16 582.8799999999995 444.39000000000004 582.8799999999995 443.42ZM645.88 429.51C645.88 429 645.84 428.48 645.74 427.92C645.65 427.35 645.54 426.83000000000004 645.4 426.34000000000003C645.26 425.85 645.17 425.51000000000005 645.1 425.32000000000005C645.0400000000001 425.13000000000005 645.01 425.00000000000006 645.01 424.93000000000006C645.01 424.6700000000001 645.1 424.49000000000007 645.29 424.4100000000001C645.4699999999999 424.3300000000001 645.6899999999999 424.2900000000001 645.93 424.2900000000001C646.2099999999999 424.2900000000001 646.66 424.32000000000005 647.31 424.37000000000006C647.9499999999999 424.44000000000005 648.4499999999999 424.4700000000001 648.78 424.4700000000001L653.24 424.5700000000001C653.76 424.5700000000001 654.73 424.5200000000001 656.14 424.4300000000001C657.54 424.3300000000001 658.39 424.29000000000013 658.67 424.29000000000013C659.12 424.29000000000013 659.43 424.33000000000015 659.5899999999999 424.41000000000014C659.7399999999999 424.4900000000001 659.81 424.64000000000016 659.81 424.8600000000001C659.81 425.52000000000015 659.75 425.98000000000013 659.6099999999999 426.22000000000014C659.2299999999999 426.88000000000017 659.0399999999998 427.9300000000001 659.0399999999998 429.3600000000001L659.0399999999998 444.3800000000001C659.0399999999998 445.48000000000013 659.1199999999999 446.3200000000001 659.2899999999998 446.9000000000001C659.4599999999998 447.4800000000001 659.6299999999999 448.0600000000001 659.8099999999998 448.6300000000001C659.8099999999998 449.0900000000001 659.5699999999998 449.3100000000001 659.0799999999998 449.3100000000001C658.5399999999998 449.3100000000001 658.0799999999998 449.28000000000014 657.7099999999998 449.23000000000013C657.3499999999998 449.16000000000014 656.8899999999998 449.1300000000001 656.3399999999998 449.1300000000001C655.7999999999998 449.1300000000001 655.3399999999998 449.1600000000001 654.9999999999998 449.23000000000013C654.6499999999997 449.28000000000014 654.3499999999998 449.3100000000001 654.0999999999998 449.3100000000001C653.8899999999998 449.29000000000013 653.7399999999998 449.2700000000001 653.6499999999997 449.2400000000001C653.3399999999998 449.1200000000001 653.1899999999997 448.91000000000014 653.1899999999997 448.60000000000014C653.1899999999997 448.27000000000015 653.2699999999998 447.9300000000001 653.4199999999997 447.60000000000014C653.8199999999997 446.72000000000014 654.0099999999998 445.8600000000001 654.0099999999998 445.02000000000015L654.0099999999998 432.22000000000014C654.0099999999998 431.63000000000017 653.9499999999998 431.20000000000016 653.8299999999998 430.94000000000017C653.5899999999998 430.39000000000016 653.1299999999998 430.1200000000002 652.4599999999998 430.1200000000002C651.7899999999998 430.1200000000002 651.3299999999998 430.3600000000002 651.0899999999998 430.8600000000002C650.9699999999998 431.13000000000017 650.9099999999999 431.5800000000002 650.9099999999999 432.2200000000002L650.9099999999999 444.9900000000002C650.9099999999999 446.13000000000017 651.0999999999999 447.0900000000002 651.4999999999999 447.8500000000002C651.6799999999998 448.2100000000002 651.7799999999999 448.4600000000002 651.7799999999999 448.6000000000002C651.7799999999999 448.8100000000002 651.6899999999998 448.9900000000002 651.5199999999999 449.1200000000002C651.3599999999999 449.25000000000017 651.0599999999998 449.3100000000002 650.6299999999999 449.3100000000002C650.3299999999999 449.3100000000002 650.0299999999999 449.2800000000002 649.7399999999999 449.2300000000002C649.4499999999999 449.1600000000002 648.9999999999999 449.13000000000017 648.3899999999999 449.13000000000017C647.5699999999998 449.13000000000017 646.9899999999999 449.16000000000014 646.6599999999999 449.21000000000015C646.3199999999998 449.25000000000017 646.0199999999999 449.29000000000013 645.7399999999999 449.3100000000002C645.2599999999999 449.3100000000002 645.0099999999999 449.1100000000002 645.0099999999999 448.71000000000015C645.0099999999999 448.5600000000002 645.0699999999998 448.34000000000015 645.1999999999999 448.03000000000014C645.3199999999999 447.72000000000014 645.41 447.47000000000014 645.4699999999999 447.28000000000014C645.7399999999999 446.3700000000001 645.8799999999999 445.46000000000015 645.8799999999999 444.5600000000001ZM695.36 431.51C695.36 430.82 695.35 430.13 695.3100000000001 429.45C695.2800000000001 428.77 695.2500000000001 428.11 695.22 427.46999999999997C695.1600000000001 427.01 695.1 426.59 695.0400000000001 426.2C694.9800000000001 425.81 694.95 425.5 694.95 425.28999999999996C694.95 424.87999999999994 695.0600000000001 424.60999999999996 695.2700000000001 424.47999999999996C695.4800000000001 424.34999999999997 695.7700000000001 424.28999999999996 696.1400000000001 424.28999999999996L698.0100000000001 424.28999999999996L699.9300000000001 424.39C700.6 424.39 701.2 424.38 701.73 424.36C702.27 424.33000000000004 702.79 424.31 703.3100000000001 424.29C704.6800000000001 424.29 705.7500000000001 424.90000000000003 706.5100000000001 426.13C707.2700000000001 427.35 707.6500000000001 428.96 707.6500000000001 430.94C707.6500000000001 431.91 707.57 432.75 707.4200000000001 433.46C707.2700000000001 434.15999999999997 706.94 434.78999999999996 706.4200000000001 435.33C706.2600000000001 435.47999999999996 706.09 435.65999999999997 705.8900000000001 435.87C705.69 436.09000000000003 705.5900000000001 436.24 705.5900000000001 436.33C705.5900000000001 436.47999999999996 705.7500000000001 436.75 706.0500000000002 437.15999999999997C706.3600000000001 437.55999999999995 706.5500000000002 437.84 706.6500000000002 437.97999999999996C707.1600000000002 438.77 707.5700000000002 439.66999999999996 707.8800000000002 440.7C708.1800000000002 441.71999999999997 708.3400000000003 442.75 708.3400000000003 443.77C708.3400000000003 445.29999999999995 707.9100000000003 446.57 707.0500000000003 447.59999999999997C706.1100000000002 448.73999999999995 704.8000000000003 449.30999999999995 703.1300000000003 449.30999999999995C702.9400000000003 449.30999999999995 702.5100000000003 449.28 701.8200000000004 449.22999999999996C701.1400000000004 449.15999999999997 700.3400000000004 449.12999999999994 699.4200000000004 449.12999999999994C698.1800000000004 449.12999999999994 697.3400000000004 449.1599999999999 696.9100000000004 449.2099999999999C696.4900000000005 449.24999999999994 696.0900000000004 449.2899999999999 695.7300000000005 449.30999999999995C695.2700000000004 449.30999999999995 694.9600000000005 449.22999999999996 694.8100000000005 449.04999999999995C694.6600000000005 448.86999999999995 694.5800000000005 448.65999999999997 694.5800000000005 448.41999999999996C694.7700000000006 447.71 694.9400000000005 446.9 695.1100000000005 445.98999999999995C695.2800000000004 445.0799999999999 695.3600000000005 443.81999999999994 695.3600000000005 442.19999999999993ZM622.67 431.51C622.67 430.82 622.66 430.13 622.62 429.45C622.6 428.77 622.57 428.11 622.53 427.46999999999997C622.47 427.01 622.41 426.59 622.35 426.2C622.2900000000001 425.81 622.26 425.5 622.26 425.28999999999996C622.26 424.87999999999994 622.37 424.60999999999996 622.58 424.47999999999996C622.7900000000001 424.34999999999997 623.08 424.28999999999996 623.45 424.28999999999996L625.32 424.28999999999996L627.24 424.39C627.91 424.39 628.51 424.38 629.05 424.36C629.5799999999999 424.33000000000004 630.0999999999999 424.31 630.62 424.29C631.99 424.29 633.0600000000001 424.90000000000003 633.82 426.13C634.58 427.35 634.96 428.96 634.96 430.94C634.96 431.91 634.88 432.75 634.73 433.46C634.58 434.15999999999997 634.25 434.78999999999996 633.73 435.33C633.58 435.47999999999996 633.4 435.65999999999997 633.2 435.87C633.01 436.09000000000003 632.9100000000001 436.24 632.9100000000001 436.33C632.9100000000001 436.47999999999996 633.0600000000001 436.75 633.3600000000001 437.15999999999997C633.6700000000001 437.55999999999995 633.8700000000001 437.84 633.9600000000002 437.97999999999996C634.4700000000001 438.77 634.8800000000001 439.66999999999996 635.1900000000002 440.7C635.5000000000001 441.71999999999997 635.6500000000002 442.75 635.6500000000002 443.77C635.6500000000002 445.29999999999995 635.2200000000003 446.57 634.3700000000002 447.59999999999997C633.4200000000002 448.73999999999995 632.1100000000002 449.30999999999995 630.4400000000003 449.30999999999995C630.2500000000002 449.30999999999995 629.8200000000003 449.28 629.1400000000003 449.22999999999996C628.4500000000003 449.15999999999997 627.6500000000003 449.12999999999994 626.7400000000004 449.12999999999994C625.4900000000004 449.12999999999994 624.6500000000003 449.1599999999999 624.2200000000004 449.2099999999999C623.8000000000004 449.24999999999994 623.4000000000003 449.2899999999999 623.0400000000004 449.30999999999995C622.5800000000004 449.30999999999995 622.2800000000004 449.22999999999996 622.1200000000005 449.04999999999995C621.9700000000005 448.86999999999995 621.8900000000004 448.65999999999997 621.8900000000004 448.41999999999996C622.0800000000005 447.71 622.2500000000005 446.9 622.4200000000004 445.98999999999995C622.5900000000004 445.0799999999999 622.6700000000004 443.81999999999994 622.6700000000004 442.19999999999993ZM718.16 431.58C718.16 428.90999999999997 718.6999999999999 426.97999999999996 719.78 425.78999999999996C720.86 424.59999999999997 722.54 423.99999999999994 724.8299999999999 423.99999999999994C727.2299999999999 423.99999999999994 728.92 424.72999999999996 729.9 426.17999999999995C730.54 427.13999999999993 730.86 428.34999999999997 730.86 429.8299999999999L730.86 443.3399999999999C730.86 445.2699999999999 730.33 446.7999999999999 729.26 447.9199999999999C728.1899999999999 449.0399999999999 726.66 449.5999999999999 724.64 449.5999999999999C722.6 449.5999999999999 721.01 449.0899999999999 719.87 448.0799999999999C718.73 447.06999999999994 718.16 445.6099999999999 718.16 443.69999999999993ZM723.18 443.13C723.18 443.77 723.29 444.21999999999997 723.5 444.46999999999997C723.72 444.71999999999997 724.04 444.84 724.46 444.84C724.9200000000001 444.84 725.26 444.7 725.49 444.4C725.72 444.09999999999997 725.83 443.63 725.83 442.97999999999996L725.83 431.53999999999996C725.83 430.99999999999994 725.7900000000001 430.61999999999995 725.7 430.4C725.51 429.95 725.12 429.71999999999997 724.51 429.71999999999997C723.9 429.71999999999997 723.53 429.9 723.39 430.26C723.25 430.62 723.18 431.09999999999997 723.18 431.71999999999997ZM606.13 440.95C606.25 440.78 606.32 440.58 606.32 440.34L606.32 437.19C606.32 435.74 606.2 434.46 605.97 433.35C605.74 432.24 605.46 431.69 605.13 431.69C604.76 431.69 604.4399999999999 432.73 604.17 434.82C603.89 436.9 603.76 438.34999999999997 603.76 439.15999999999997L603.76 439.77C603.76 440.31 603.83 440.71999999999997 603.98 440.97999999999996C604.14 441.24999999999994 604.49 441.37999999999994 605.04 441.37999999999994C605.56 441.37999999999994 605.92 441.22999999999996 606.13 440.94999999999993ZM700.38 444.09C700.38 444.5 700.45 444.81 700.59 445.03999999999996C700.73 445.27 701.1 445.37999999999994 701.71 445.37999999999994C702.26 445.37999999999994 702.62 445.29999999999995 702.8100000000001 445.12999999999994C703.1400000000001 444.81999999999994 703.3100000000001 444.19999999999993 703.3100000000001 443.2699999999999C703.3100000000001 442.0999999999999 703.0100000000001 440.93999999999994 702.4200000000001 439.7699999999999C701.82 438.5999999999999 701.2800000000001 438.00999999999993 700.8000000000001 438.00999999999993C700.61 438.00999999999993 700.5000000000001 438.0999999999999 700.45 438.2699999999999C700.4100000000001 438.42999999999995 700.38 438.6499999999999 700.38 438.9099999999999ZM627.7 444.09C627.7 444.5 627.76 444.81 627.9000000000001 445.03999999999996C628.0400000000001 445.27 628.4100000000001 445.37999999999994 629.0200000000001 445.37999999999994C629.57 445.37999999999994 629.94 445.29999999999995 630.1200000000001 445.12999999999994C630.4500000000002 444.81999999999994 630.6200000000001 444.19999999999993 630.6200000000001 443.2699999999999C630.6200000000001 442.0999999999999 630.3200000000002 440.93999999999994 629.7300000000001 439.7699999999999C629.1400000000001 438.5999999999999 628.6000000000001 438.00999999999993 628.1100000000001 438.00999999999993C627.9300000000002 438.00999999999993 627.8100000000002 438.0999999999999 627.7600000000001 438.2699999999999C627.7200000000001 438.42999999999995 627.7000000000002 438.6499999999999 627.7000000000002 438.9099999999999ZM700.38 431.8C700.38 432.3 700.54 432.65000000000003 700.84 432.87C701.15 433.08 701.5 433.19 701.89 433.19C702.3199999999999 433.19 702.64 433.02 702.85 432.69C703.07 432.35 703.1700000000001 431.83 703.1700000000001 431.12C703.1700000000001 430.45 703.0400000000001 429.97 702.7600000000001 429.68C702.4900000000001 429.40000000000003 702.1100000000001 429.26 701.6200000000001 429.26C701.1600000000001 429.26 700.8400000000001 429.37 700.6600000000001 429.59999999999997C700.4800000000001 429.82 700.3800000000001 430.11999999999995 700.3800000000001 430.46999999999997ZM627.7 431.8C627.7 432.3 627.85 432.65000000000003 628.1600000000001 432.87C628.46 433.08 628.8100000000001 433.19 629.2 433.19C629.63 433.19 629.95 433.02 630.1600000000001 432.69C630.3800000000001 432.35 630.4800000000001 431.83 630.4800000000001 431.12C630.4800000000001 430.45 630.3500000000001 429.97 630.0700000000002 429.68C629.8000000000002 429.40000000000003 629.4200000000002 429.26 628.9300000000002 429.26C628.4700000000001 429.26 628.1600000000002 429.37 627.9700000000001 429.59999999999997C627.7900000000002 429.82 627.7000000000002 430.11999999999995 627.7000000000002 430.46999999999997ZM553.68 443.42C553.68 444.49 553.62 445.48 553.4799999999999 446.40000000000003C553.3399999999999 447.32000000000005 553.18 448.09000000000003 552.9999999999999 448.71000000000004C552.9999999999999 449.11 553.2899999999998 449.31000000000006 553.8699999999999 449.31000000000006C554.2599999999999 449.31000000000006 554.6499999999999 449.30000000000007 555.0299999999999 449.26000000000005C555.4099999999999 449.2300000000001 556.0099999999999 449.21000000000004 556.8399999999998 449.21000000000004C557.0199999999998 449.21000000000004 557.4499999999998 449.23 558.1399999999998 449.26000000000005C558.8199999999997 449.30000000000007 559.4599999999998 449.31000000000006 560.0299999999997 449.31000000000006C560.3699999999998 449.31000000000006 560.6699999999997 449.27000000000004 560.9199999999997 449.1700000000001C561.1899999999997 449.0800000000001 561.3099999999997 448.87000000000006 561.3099999999997 448.56000000000006C561.3099999999997 448.30000000000007 561.1199999999997 448.05000000000007 560.7199999999997 447.81000000000006C560.1999999999997 447.50000000000006 559.8499999999997 447.25000000000006 559.6699999999997 447.06000000000006C559.3299999999997 446.70000000000005 559.0899999999997 446.2200000000001 558.9399999999997 445.6000000000001C558.7899999999997 444.9700000000001 558.7099999999997 444.11000000000007 558.7099999999997 442.9800000000001L558.7099999999997 432.8300000000001C558.7099999999997 431.9000000000001 558.8199999999997 431.2800000000001 559.0299999999997 430.9600000000001C559.2399999999998 430.6300000000001 559.7599999999998 430.4700000000001 560.5799999999997 430.4700000000001C561.0699999999997 430.4700000000001 561.4599999999997 430.5200000000001 561.7499999999997 430.62000000000006C562.0399999999996 430.71000000000004 562.3199999999997 430.90000000000003 562.5899999999997 431.19000000000005C562.7499999999997 431.33000000000004 562.9699999999997 431.57000000000005 563.2799999999997 431.90000000000003C563.5199999999998 432.12000000000006 563.8399999999997 432.22 564.2399999999998 432.22C564.6299999999998 432.22 564.9199999999997 432.11 565.0799999999998 431.87C565.2499999999998 431.63 565.3299999999998 431.29 565.3299999999998 430.86C565.2699999999999 430.51 565.2299999999998 430.17 565.1999999999998 429.84000000000003C565.1699999999998 429.52000000000004 565.1499999999999 428.96000000000004 565.1499999999999 428.15000000000003L565.2899999999998 426.90000000000003C565.2899999999998 426.78000000000003 565.3199999999998 426.6 565.3799999999999 426.38000000000005C565.4399999999998 426.15000000000003 565.4699999999999 425.81000000000006 565.4699999999999 425.36000000000007C565.4699999999999 425.05000000000007 565.41 424.82000000000005 565.29 424.68000000000006C565.0799999999999 424.4200000000001 564.64 424.2900000000001 563.9699999999999 424.2900000000001C563.43 424.2900000000001 562.6899999999999 424.32000000000005 561.7599999999999 424.37000000000006C560.8099999999998 424.44000000000005 559.7599999999999 424.4700000000001 558.5799999999999 424.4700000000001C557.4599999999999 424.4700000000001 556.7499999999999 424.4400000000001 556.4699999999999 424.37000000000006C556.18 424.32000000000005 555.4699999999999 424.2900000000001 554.3199999999999 424.2900000000001C553.9799999999999 424.2900000000001 553.68 424.3500000000001 553.41 424.4700000000001C553.14 424.5800000000001 553 424.8200000000001 553 425.18000000000006C553.16 425.87000000000006 553.31 426.55000000000007 553.46 427.2200000000001C553.61 427.8800000000001 553.6800000000001 428.93000000000006 553.6800000000001 430.36000000000007Z " fill="#fed328" fill-opacity="1" transform="matrix(1,0,0,1,-544,-420)"></path></svg>