<svg id="SvgjsSvg1040" xmlns="http://www.w3.org/2000/svg" version="1.1" xmlns:xlink="http://www.w3.org/1999/xlink" xmlns:svgjs="http://svgjs.com/svgjs" width="56" height="62" viewBox="0 0 56 62"><title>Rouble icon</title><desc>Created with Avocode.</desc><defs id="SvgjsDefs1041"></defs><path id="SvgjsPath1042" d="M861.63 1010C846.42 1010 834 1022.65 834 1038.15L834 1043.91C834 1059.3500000000001 846.42 1072 861.63 1072C876.85 1072 889.27 1059.35 889.27 1043.85L889.27 1038.09C889.27 1022.6499999999999 876.85 1009.9999999999999 861.63 1009.9999999999999ZM866.26 1069.21C865.1 1069.46 863.89 1069.58 862.67 1069.64L862.67 1066.23C863.89 1066.17 865.0999999999999 1066.05 866.26 1065.8600000000001ZM860.78 1069.64C859.5699999999999 1069.5800000000002 858.35 1069.46 857.1899999999999 1069.2700000000002L857.1899999999999 1065.9200000000003C858.3499999999999 1066.1100000000004 859.5699999999999 1066.2300000000002 860.78 1066.3000000000004ZM871.19 1067.72C870.22 1068.16 869.1800000000001 1068.47 868.1500000000001 1068.78L868.1500000000001 1065.43C869.1800000000001 1065.18 870.2200000000001 1064.8700000000001 871.19 1064.5ZM855.3 1068.84C854.27 1068.59 853.2299999999999 1068.22 852.26 1067.85L852.26 1064.62C853.23 1064.9899999999998 854.27 1065.3 855.3 1065.55ZM850.43 1066.98C849.5799999999999 1066.54 848.79 1066.05 848 1065.55L848 1062.51C848.79 1062.95 849.58 1063.3799999999999 850.43 1063.75ZM875.51 1065.43C874.72 1065.99 873.93 1066.42 873.08 1066.8500000000001L873.08 1063.69C873.9300000000001 1063.3200000000002 874.72 1062.89 875.51 1062.39ZM879.65 1061.96C878.92 1062.7 878.13 1063.44 877.34 1064.06L877.34 1061.21C878.13 1060.65 878.9200000000001 1060.03 879.65 1059.41ZM846.11 1064.19C845.32 1063.5700000000002 844.53 1062.8200000000002 843.8000000000001 1062.14L843.8000000000001 1059.6000000000001C844.5300000000001 1060.22 845.32 1060.8400000000001 846.11 1061.4ZM838.93 1055.2C838.4399999999999 1054.14 837.9599999999999 1053.0900000000001 837.5899999999999 1051.91C838.0199999999999 1052.66 838.4399999999999 1053.3400000000001 838.93 1054.02ZM841.91 1060.03C841.49 1059.54 841.12 1058.98 840.76 1058.48L840.76 1056.56C841.12 1057 841.49 1057.4299999999998 841.91 1057.8ZM882.63 1058.24C882.27 1058.79 881.9 1059.29 881.54 1059.79L881.54 1057.62C881.9 1057.2399999999998 882.27 1056.81 882.63 1056.3799999999999ZM884.52 1054.89L884.52 1053.8300000000002C884.9499999999999 1053.2100000000003 885.31 1052.5900000000001 885.68 1051.9700000000003C885.37 1052.9700000000003 884.9499999999999 1053.9600000000003 884.52 1054.8900000000003ZM861.63 1063.88C847.7 1063.88 836.31 1052.2800000000002 836.31 1038.0900000000001C836.31 1023.8900000000001 847.6999999999999 1012.3600000000001 861.63 1012.3600000000001C875.57 1012.3600000000001 886.96 1023.9500000000002 886.96 1038.15C886.96 1052.3500000000001 875.57 1063.88 861.63 1063.88Z " fill="#000000" fill-opacity="1" transform="matrix(1,0,0,1,-834,-1010)"></path><path id="SvgjsPath1043" d="M862.18 1017C850.5 1017 841 1026.67 841 1038.58C841 1038.76 841 1038.8899999999999 841 1039.07C841 1039.26 841 1039.3799999999999 841 1039.57C841 1039.75 841.06 1040.1299999999999 841.06 1040.37C841.06 1040.5 841.06 1040.62 841.1199999999999 1040.75C842.2199999999999 1051.6 851.2299999999999 1060.15 862.1799999999998 1060.15C873.1399999999999 1060.15 882.2099999999998 1051.6000000000001 883.2399999999998 1040.68C883.2399999999998 1040.68 883.2399999999998 1040.68 883.2399999999998 1040.6200000000001C883.2399999999998 1040.3700000000001 883.2999999999997 1040.19 883.2999999999997 1039.94C883.2999999999997 1039.51 883.3699999999998 1039.01 883.3699999999998 1038.5800000000002C883.3699999999998 1026.67 873.8699999999998 1017.0000000000001 862.1799999999997 1017.0000000000001ZM881.3 1039.75C881.3 1039.88 881.3 1040 881.3 1040.13C881.3 1040.3100000000002 881.2299999999999 1040.5 881.2299999999999 1040.6200000000001C880.1999999999999 1050.42 872.0399999999998 1058.1100000000001 862.18 1058.1100000000001C852.4399999999999 1058.1100000000001 844.3499999999999 1050.67 843.13 1041.0600000000002C843.13 1040.93 843.13 1040.8100000000002 843.07 1040.6200000000001C843.0100000000001 1040.13 843.0100000000001 1039.63 842.95 1039.13C843.25 1028.66 851.71 1020.2200000000001 862.12 1020.2200000000001C872.71 1020.1600000000002 881.3 1028.9 881.3 1039.7500000000002C881.3 1039.6900000000003 881.3 1039.7500000000002 881.3 1039.7500000000002Z " fill="#000000" fill-opacity="1" transform="matrix(1,0,0,1,-834,-1010)"></path><path id="SvgjsPath1044" d="M866.43 1026L855.2299999999999 1026L855.2299999999999 1028.67L855.2899999999998 1028.67L855.2899999999998 1037.22L851.9999999999999 1037.22L851.9999999999999 1039.89L855.2899999999998 1039.89L855.2899999999998 1043.17L851.9999999999999 1043.17L851.9999999999999 1045.8400000000001L855.2899999999998 1045.8400000000001L855.2899999999998 1049.7500000000002L857.8999999999999 1049.7500000000002L857.8999999999999 1045.8400000000001L866.4899999999999 1045.8400000000001L866.4899999999999 1043.17L857.8999999999999 1043.17L857.8999999999999 1039.89L866.4899999999999 1039.89C870.1999999999999 1039.89 873.18 1036.91 873.43 1033.19C873.43 1033.13 873.43 1033.01 873.43 1032.94C873.43 1032.88 873.4899999999999 1032.76 873.43 1032.7C873.18 1028.98 870.14 1026 866.43 1026ZM866.43 1037.22L857.8399999999999 1037.22L857.8399999999999 1028.67L866.43 1028.67C868.8 1028.67 870.75 1030.5900000000001 870.87 1032.94C870.75 1035.3 868.8 1037.22 866.43 1037.22Z " fill="#000000" fill-opacity="1" transform="matrix(1,0,0,1,-834,-1010)"></path></svg>