<svg id="SvgjsSvg1000" xmlns="http://www.w3.org/2000/svg" version="1.1" xmlns:xlink="http://www.w3.org/1999/xlink" xmlns:svgjs="http://svgjs.com/svgjs" width="28" height="39" viewBox="0 0 28 39"><title>SearchLocation</title><desc>Created with Avocode.</desc><defs id="SvgjsDefs1001"></defs><path id="SvgjsPath1007" d="M116 601C116 607.77 126.73 621.69 129.38 625.11C129.51999999999998 625.3100000000001 129.76 625.42 130 625.42C130.24 625.42 130.48 625.31 130.62 625.11C133.34 621.69 144 607.77 144 601C144 593.27 137.73 587 130 587C122.27 587 116 593.27 116 601ZM122.73 607.95C120.67 605.8900000000001 119.69 602.98 120.08 600.1C120.83 596.02 124.02 592.83 128.1 592.08C130.98 591.69 133.89 592.6700000000001 135.95 594.73C138.01 596.79 138.98999999999998 599.7 138.6 602.58C137.85 606.6600000000001 134.66 609.85 130.57999999999998 610.6C127.69999999999999 610.99 124.78999999999998 610.01 122.72999999999999 607.95ZM134.13 604.88L131.32999999999998 602.08C132.30999999999997 600.51 132.07999999999998 598.48 130.79 597.1800000000001C129.32 595.7 126.97 595.6 125.38999999999999 596.95C123.80999999999999 598.3100000000001 123.53999999999999 600.6500000000001 124.77999999999999 602.32C126.00999999999999 604 128.32999999999998 604.4300000000001 130.08999999999997 603.32L132.89 606.12ZM126.66 601.85C126.02 601.21 125.82 600.24 126.17 599.39C126.52 598.55 127.34 598 128.26 598C129.17 598 129.98999999999998 598.55 130.34 599.39C130.69 600.24 130.5 601.21 129.85 601.85C129.42 602.26 128.84 602.49 128.23999999999998 602.47C127.63999999999999 602.46 127.06999999999998 602.21 126.65999999999998 601.77Z " fill="#ffd427" fill-opacity="1" transform="matrix(1,0,0,1,-116,-587)"></path></svg>