<svg id="SvgjsSvg1027" xmlns="http://www.w3.org/2000/svg" version="1.1" xmlns:xlink="http://www.w3.org/1999/xlink" xmlns:svgjs="http://svgjs.com/svgjs" width="89" height="67" viewBox="0 0 89 67"><title>Spb icon</title><desc>Created with Avocode.</desc><defs id="SvgjsDefs1028"></defs><path id="SvgjsPath1029" d="M1017 811.65L1012.3 811.65L1012.3 805.8C1013.87 805.28 1015.04 803.8499999999999 1015.04 802.03C1015.04 799.8199999999999 1013.2199999999999 798 1011 798C1008.78 798 1006.96 799.82 1006.96 802.03C1006.96 803.72 1008.13 805.28 1009.7 805.8L1009.7 811.65L1005 811.65L1005 816.72L973.83 816.72L973.83 811.65L969.13 811.65L969.13 805.8C970.7 805.28 971.87 803.8499999999999 971.87 802.03C971.87 799.8199999999999 970.04 798 967.83 798C965.61 798 963.7800000000001 799.82 963.7800000000001 802.03C963.7800000000001 803.72 964.96 805.28 966.5200000000001 805.8L966.5200000000001 811.65L961.9600000000002 811.65L961.9600000000002 816.72L945.0000000000001 816.72L945.0000000000001 827.9L946.3000000000001 827.9C953.22 827.9 959.48 832.1899999999999 961.96 838.56L961.96 846.88L959.48 846.88L959.48 849.48L984.65 849.48L984.65 846.88L973.9599999999999 846.88L973.9599999999999 838.43C976.5699999999999 832.1899999999999 982.6999999999999 827.9 989.4799999999999 827.9C996.2599999999999 827.9 1002.5199999999999 832.06 1004.9999999999999 838.43L1004.9999999999999 849.4799999999999L1016.9999999999999 849.4799999999999L1016.9999999999999 838.0399999999998C1019.6099999999999 831.9299999999998 1025.7399999999998 828.0299999999999 1032.3899999999999 828.0299999999999L1033.6999999999998 828.0299999999999L1033.6999999999998 816.8499999999999L1016.9999999999998 816.8499999999999ZM989.48 825.43C981.78 825.43 974.74 830.1099999999999 971.61 837.13L964.57 837.13L964.57 824.52L1014.5200000000001 824.52L1014.5200000000001 837.13L1007.3500000000001 837.13C1004.2200000000001 829.98 997.1700000000002 825.43 989.4800000000001 825.43ZM947.61 825.43L947.61 824.52L961.96 824.52L961.96 833.36C958.57 828.8100000000001 953.35 825.82 947.61 825.4300000000001ZM1031.09 825.43C1025.48 825.8199999999999 1020.3899999999999 828.68 1016.9999999999999 832.9699999999999L1016.9999999999999 824.5199999999999L1031.09 824.5199999999999ZM964.57 846.88L964.57 839.6L971.35 839.6L971.35 846.88ZM1014.39 846.88L1007.61 846.88L1007.61 839.6L1014.39 839.6ZM1007.61 814.25L1014.39 814.25L1014.39 816.72L1007.61 816.72ZM964.57 814.25L971.35 814.25L971.35 816.72L964.57 816.72ZM967.96 800.73C968.74 800.73 969.39 801.38 969.39 802.16C969.39 802.9399999999999 968.74 803.5899999999999 967.96 803.5899999999999C967.1700000000001 803.5899999999999 966.52 802.9399999999999 966.52 802.16C966.52 801.38 967.17 800.73 967.96 800.73ZM1011 800.73C1011.78 800.73 1012.43 801.38 1012.43 802.16C1012.43 802.9399999999999 1011.78 803.5899999999999 1011 803.5899999999999C1010.22 803.5899999999999 1009.57 802.9399999999999 1009.57 802.16C1009.57 801.38 1010.22 800.73 1011 800.73ZM947.61 821.92L947.61 819.4499999999999L1031.09 819.4499999999999L1031.09 821.92Z " fill="#000000" fill-opacity="1" transform="matrix(1,0,0,1,-945,-798)"></path><path id="SvgjsPath1030" d="M977 855L977 852L1002 852L1002 855Z " fill="#000000" fill-opacity="1" transform="matrix(1,0,0,1,-945,-798)"></path><path id="SvgjsPath1031" d="M969 860L969 857L985 857L985 860Z " fill="#000000" fill-opacity="1" transform="matrix(1,0,0,1,-945,-798)"></path><path id="SvgjsPath1032" d="M982 865L982 862L992 862L992 865Z " fill="#000000" fill-opacity="1" transform="matrix(1,0,0,1,-945,-798)"></path></svg>