<?xml version="1.0" encoding="UTF-8"?>
<svg width="221px" height="36px" viewBox="0 0 221 36" version="1.1" xmlns="http://www.w3.org/2000/svg" xmlns:xlink="http://www.w3.org/1999/xlink">
    <!-- Generator: Sketch 40.3 (33839) - http://www.bohemiancoding.com/sketch -->
    <title>ПРЕДУПРЕЖДАЕМ ВАС О</title>
    <desc>Created with Sketch.</desc>
    <defs></defs>
    <g id="Main" stroke="none" stroke-width="1" fill="none" fill-rule="evenodd">
        <g id="PopupAboutAge-Mobile-Fullscreen" transform="translate(-104.000000, -540.000000)" fill="#A8A8A8">
            <g id="Block" transform="translate(21.000000, 121.000000)">
                <g id="warning" transform="translate(26.000000, 418.000000)">
                    <path d="M62.94,16 L62.94,3.24 L59.28,3.24 L59.28,16 L58.06,16 L58.06,2.08 L64.18,2.08 L64.18,16 L62.94,16 Z M69.0044444,2.08 C69.6977812,2.08 70.2744421,2.1733324 70.7344444,2.36 C71.1944467,2.5466676 71.5544431,2.8166649 71.8144444,3.17 C72.0744457,3.5233351 72.2577772,3.9499975 72.3644444,4.45 C72.4711116,4.9500025 72.5244444,5.5066636 72.5244444,6.12 C72.5244444,6.7066696 72.4711116,7.2533308 72.3644444,7.76 C72.2577772,8.2666692 72.0711124,8.7033315 71.8044444,9.07 C71.5377764,9.4366685 71.1677801,9.7233323 70.6944444,9.93 C70.2211087,10.1366677 69.624448,10.24 68.9044444,10.24 L67.4444444,10.24 L67.4444444,16 L66.2244444,16 L66.2244444,2.08 L69.0044444,2.08 Z M67.4444444,9.1 L68.8444444,9.1 C69.3511136,9.1 69.7644428,9.0300007 70.0844444,8.89 C70.404446,8.7499993 70.6577768,8.5500013 70.8444444,8.29 C71.031112,8.0299987 71.1577774,7.7166685 71.2244444,7.35 C71.2911114,6.9833315 71.3244444,6.5800022 71.3244444,6.14 C71.3244444,5.7266646 71.2944447,5.3400018 71.2344444,4.98 C71.1744441,4.6199982 71.0544453,4.3100013 70.8744444,4.05 C70.6944435,3.7899987 70.444446,3.5833341 70.1244444,3.43 C69.8044428,3.2766659 69.3911136,3.2 68.8844444,3.2 L67.4444444,3.2 L67.4444444,9.1 Z M73.9888889,16 L73.9888889,2.08 L79.8088889,2.08 L79.8088889,3.22 L75.2088889,3.22 L75.2088889,8.32 L79.2288889,8.32 L79.2288889,9.46 L75.2088889,9.46 L75.2088889,14.88 L79.8088889,14.88 L79.8088889,16 L73.9888889,16 Z M81.2733333,18.64 L80.1733333,18.64 L80.1733333,14.96 L80.8733333,14.88 C81.0733343,14.679999 81.2466659,14.4633345 81.3933333,14.23 C81.5400007,13.9966655 81.6566662,13.7000018 81.7433333,13.34 C81.8300004,12.9799982 81.8966664,12.5366693 81.9433333,12.01 C81.9900002,11.4833307 82.0266665,10.8333372 82.0533333,10.06 L82.2533333,2.08 L88.2133333,2.08 L88.2133333,14.92 L88.9533333,14.92 L88.9533333,18.64 L87.8533333,18.64 L87.8533333,16 L81.2733333,16 L81.2733333,18.64 Z M86.9933333,14.92 L86.9933333,3.18 L83.3733333,3.18 L83.1933333,10.06 C83.1666665,11.2066724 83.0933339,12.1666628 82.9733333,12.94 C82.8533327,13.7133372 82.6266683,14.3733306 82.2933333,14.92 L86.9933333,14.92 Z M93.0777778,10.66 L95.2177778,2.08 L96.3977778,2.08 L93.4977778,12.98 C93.3111102,13.6866702 93.1144455,14.2466646 92.9077778,14.66 C92.7011101,15.0733354 92.4877789,15.3833323 92.2677778,15.59 C92.0477767,15.7966677 91.8144457,15.9299997 91.5677778,15.99 C91.3211099,16.0500003 91.0711124,16.0866666 90.8177778,16.1 L90.1977778,16.1 L90.1977778,15.1 L90.7777778,15.1 C91.084446,15.1 91.3711098,14.9600014 91.6377778,14.68 C91.9044458,14.3999986 92.1244436,13.92667 92.2977778,13.26 L92.4977778,12.46 L89.3977778,2.1 L90.6177778,2.1 L93.0177778,10.66 L93.0777778,10.66 Z M102.522222,16 L102.522222,3.24 L98.8622222,3.24 L98.8622222,16 L97.6422222,16 L97.6422222,2.08 L103.762222,2.08 L103.762222,16 L102.522222,16 Z M108.586667,2.08 C109.280003,2.08 109.856664,2.1733324 110.316667,2.36 C110.776669,2.5466676 111.136665,2.8166649 111.396667,3.17 C111.656668,3.5233351 111.839999,3.9499975 111.946667,4.45 C112.053334,4.9500025 112.106667,5.5066636 112.106667,6.12 C112.106667,6.7066696 112.053334,7.2533308 111.946667,7.76 C111.839999,8.2666692 111.653335,8.7033315 111.386667,9.07 C111.119999,9.4366685 110.750002,9.7233323 110.276667,9.93 C109.803331,10.1366677 109.20667,10.24 108.486667,10.24 L107.026667,10.24 L107.026667,16 L105.806667,16 L105.806667,2.08 L108.586667,2.08 Z M107.026667,9.1 L108.426667,9.1 C108.933336,9.1 109.346665,9.0300007 109.666667,8.89 C109.986668,8.7499993 110.239999,8.5500013 110.426667,8.29 C110.613334,8.0299987 110.74,7.7166685 110.806667,7.35 C110.873334,6.9833315 110.906667,6.5800022 110.906667,6.14 C110.906667,5.7266646 110.876667,5.3400018 110.816667,4.98 C110.756666,4.6199982 110.636668,4.3100013 110.456667,4.05 C110.276666,3.7899987 110.026668,3.5833341 109.706667,3.43 C109.386665,3.2766659 108.973336,3.2 108.466667,3.2 L107.026667,3.2 L107.026667,9.1 Z M113.571111,16 L113.571111,2.08 L119.391111,2.08 L119.391111,3.22 L114.791111,3.22 L114.791111,8.32 L118.811111,8.32 L118.811111,9.46 L114.791111,9.46 L114.791111,14.88 L119.391111,14.88 L119.391111,16 L113.571111,16 Z M125.595556,16 L125.595556,9.44 L124.635556,9.44 C124.382221,9.44 124.132223,9.4666664 123.885556,9.52 C123.638888,9.5733336 123.412223,9.6799992 123.205556,9.84 C122.998888,10.0000008 122.80889,10.2233319 122.635556,10.51 C122.462221,10.7966681 122.328889,11.173331 122.235556,11.64 L121.295556,16 L120.075556,16 L121.075556,11.48 C121.222223,10.7866632 121.438887,10.2000024 121.725556,9.72 C122.012224,9.2399976 122.435553,8.9200008 122.995556,8.76 C122.555553,8.6133326 122.185557,8.306669 121.885556,7.84 C121.585554,7.373331 121.362223,6.8000034 121.215556,6.12 L120.295556,2.08 L121.415556,2.08 L122.395556,6.16 C122.502223,6.6133356 122.645555,6.9766653 122.825556,7.25 C123.005556,7.5233347 123.205554,7.7366659 123.425556,7.89 C123.645557,8.0433341 123.872221,8.1433331 124.105556,8.19 C124.33889,8.2366669 124.562221,8.26 124.775556,8.26 L125.595556,8.26 L125.595556,2.08 L126.835556,2.08 L126.835556,8.26 L127.655556,8.26 C127.86889,8.26 128.092221,8.2366669 128.325556,8.19 C128.55889,8.1433331 128.785554,8.0433341 129.005556,7.89 C129.225557,7.7366659 129.425555,7.5233347 129.605556,7.25 C129.785556,6.9766653 129.928888,6.6133356 130.035556,6.16 L131.015556,2.08 L132.135556,2.08 L131.235556,6.12 C131.075555,6.8000034 130.845557,7.373331 130.545556,7.84 C130.245554,8.306669 129.875558,8.6133326 129.435556,8.76 C130.008892,8.9200008 130.438887,9.2399976 130.725556,9.72 C131.012224,10.2000024 131.228888,10.7866632 131.375556,11.48 L132.375556,16 L131.135556,16 L130.195556,11.64 C130.088888,11.173331 129.952223,10.7966681 129.785556,10.51 C129.618888,10.2233319 129.432223,10.0000008 129.225556,9.84 C129.018888,9.6799992 128.795557,9.5733336 128.555556,9.52 C128.315554,9.4666664 128.06889,9.44 127.815556,9.44 L126.835556,9.44 L126.835556,16 L125.595556,16 Z M133.9,18.64 L132.8,18.64 L132.8,14.96 L133.5,14.88 C133.700001,14.679999 133.873333,14.4633345 134.02,14.23 C134.166667,13.9966655 134.283333,13.7000018 134.37,13.34 C134.456667,12.9799982 134.523333,12.5366693 134.57,12.01 C134.616667,11.4833307 134.653333,10.8333372 134.68,10.06 L134.88,2.08 L140.84,2.08 L140.84,14.92 L141.58,14.92 L141.58,18.64 L140.48,18.64 L140.48,16 L133.9,16 L133.9,18.64 Z M139.62,14.92 L139.62,3.18 L136,3.18 L135.82,10.06 C135.793333,11.2066724 135.720001,12.1666628 135.6,12.94 C135.479999,13.7133372 135.253335,14.3733306 134.92,14.92 L139.62,14.92 Z M148.144444,16 L147.404444,12.64 L143.944444,12.64 L143.224444,16 L142.064444,16 L145.064444,2.08 L146.304444,2.08 L149.364444,16 L148.144444,16 Z M145.644444,4.12 L144.984444,7.48 L144.144444,11.48 L147.184444,11.48 L146.344444,7.44 L145.704444,4.12 L145.644444,4.12 Z M150.548889,16 L150.548889,2.08 L156.368889,2.08 L156.368889,3.22 L151.768889,3.22 L151.768889,8.32 L155.788889,8.32 L155.788889,9.46 L151.768889,9.46 L151.768889,14.88 L156.368889,14.88 L156.368889,16 L150.548889,16 Z M165.273333,5.48 C165.206666,5.6400008 165.113334,5.8766651 164.993333,6.19 C164.873333,6.5033349 164.750001,6.8333316 164.623333,7.18 C164.496666,7.5266684 164.370001,7.8566651 164.243333,8.17 C164.116666,8.4833349 164.026667,8.7199992 163.973333,8.88 C163.96,8.9200002 163.916667,9.0366657 163.843333,9.23 C163.77,9.4233343 163.680001,9.653332 163.573333,9.92 C163.466666,10.186668 163.350001,10.4733318 163.223333,10.78 C163.096666,11.0866682 162.980001,11.373332 162.873333,11.64 C162.766666,11.906668 162.673334,12.1366657 162.593333,12.33 C162.513333,12.5233343 162.466667,12.6399998 162.453333,12.68 L161.773333,12.68 C161.706666,12.5066658 161.603334,12.2466684 161.463333,11.9 C161.323333,11.5533316 161.176667,11.1866686 161.023333,10.8 C160.869999,10.4133314 160.723334,10.0466684 160.583333,9.7 C160.443333,9.3533316 160.34,9.0933342 160.273333,8.92 L158.993333,5.52 L158.913333,5.52 L158.913333,16 L157.693333,16 L157.693333,2.08 L158.933333,2.08 C159.013334,2.280001 159.133333,2.5866646 159.293333,3 C159.453334,3.4133354 159.619999,3.8499977 159.793333,4.31 C159.966668,4.7700023 160.133333,5.2066646 160.293333,5.62 C160.453334,6.0333354 160.566666,6.339999 160.633333,6.54 L162.093333,10.42 L162.153333,10.42 C162.22,10.2333324 162.319999,9.9600018 162.453333,9.6 C162.586667,9.2399982 162.729999,8.860002 162.883333,8.46 C163.036667,8.059998 163.183333,7.6766685 163.323333,7.31 C163.463334,6.9433315 163.566666,6.6666676 163.633333,6.48 C163.646667,6.4399998 163.696666,6.3066678 163.783333,6.08 C163.87,5.8533322 163.973333,5.5866682 164.093333,5.28 C164.213334,4.9733318 164.343333,4.6400018 164.483333,4.28 C164.623334,3.9199982 164.749999,3.5866682 164.863333,3.28 C164.976667,2.9733318 165.076666,2.7100011 165.163333,2.49 C165.25,2.2699989 165.3,2.1333336 165.313333,2.08 L166.573333,2.08 L166.573333,16 L165.353333,16 L165.353333,5.48 L165.273333,5.48 Z M176.962222,8.7 C177.575559,8.8866676 177.998888,9.2699971 178.232222,9.85 C178.465557,10.4300029 178.582222,11.119996 178.582222,11.92 C178.582222,13.3733406 178.282225,14.4166635 177.682222,15.05 C177.082219,15.6833365 176.195561,16 175.022222,16 L172.242222,16 L172.242222,2.08 L175.162222,2.08 C175.762225,2.08 176.27222,2.1599992 176.692222,2.32 C177.112224,2.4800008 177.452221,2.7133318 177.712222,3.02 C177.972224,3.3266682 178.158888,3.7033311 178.272222,4.15 C178.385556,4.5966689 178.442222,5.0999972 178.442222,5.66 C178.442222,6.3800036 178.335557,6.9799976 178.122222,7.46 C177.908888,7.9400024 177.522225,8.3266652 176.962222,8.62 L176.962222,8.7 Z M177.382222,11.82 C177.382222,10.9799958 177.218891,10.3333356 176.892222,9.88 C176.565554,9.4266644 176.002226,9.2 175.202222,9.2 L173.462222,9.2 L173.462222,14.88 L175.102222,14.88 C175.582225,14.88 175.972221,14.8000008 176.272222,14.64 C176.572224,14.4799992 176.802221,14.2600014 176.962222,13.98 C177.122223,13.6999986 177.232222,13.3733352 177.292222,13 C177.352223,12.6266648 177.382222,12.2333354 177.382222,11.82 L177.382222,11.82 Z M177.242222,5.64 C177.242222,4.8533294 177.068891,4.2500021 176.722222,3.83 C176.375554,3.4099979 175.782226,3.2 174.942222,3.2 L173.462222,3.2 L173.462222,8.12 L175.102222,8.12 C175.888893,8.12 176.442221,7.9066688 176.762222,7.48 C177.082224,7.0533312 177.242222,6.440004 177.242222,5.64 L177.242222,5.64 Z M185.686667,16 L184.946667,12.64 L181.486667,12.64 L180.766667,16 L179.606667,16 L182.606667,2.08 L183.846667,2.08 L186.906667,16 L185.686667,16 Z M183.186667,4.12 L182.526667,7.48 L181.686667,11.48 L184.726667,11.48 L183.886667,7.44 L183.246667,4.12 L183.186667,4.12 Z M191.071111,1.96 C192.044449,1.96 192.797775,2.2299973 193.331111,2.77 C193.864447,3.3100027 194.131111,4.0666618 194.131111,5.04 L192.891111,5.28 C192.904445,4.5599964 192.751113,4.0166685 192.431111,3.65 C192.11111,3.2833315 191.651114,3.1 191.051111,3.1 C190.704443,3.1 190.414446,3.166666 190.181111,3.3 C189.947777,3.433334 189.757779,3.6099989 189.611111,3.83 C189.464444,4.0500011 189.357778,4.2999986 189.291111,4.58 C189.224444,4.8600014 189.191111,5.1466652 189.191111,5.44 L189.191111,12.86 C189.191111,13.126668 189.224444,13.3899987 189.291111,13.65 C189.357778,13.9100013 189.464444,14.139999 189.611111,14.34 C189.757779,14.540001 189.947777,14.6999994 190.181111,14.82 C190.414446,14.9400006 190.704443,15 191.051111,15 C191.597781,15 192.037776,14.8300017 192.371111,14.49 C192.704446,14.1499983 192.877778,13.5933372 192.891111,12.82 L194.151111,13.04 C194.124444,14.0666718 193.834447,14.8399974 193.281111,15.36 C192.727775,15.8800026 191.991116,16.14 191.071111,16.14 C190.057773,16.14 189.28778,15.8633361 188.761111,15.31 C188.234442,14.7566639 187.971111,13.9600052 187.971111,12.92 L187.971111,5.58 C187.971111,5.0866642 188.024444,4.6200022 188.131111,4.18 C188.237778,3.7399978 188.41111,3.3566683 188.651111,3.03 C188.891112,2.7033317 189.207776,2.4433343 189.601111,2.25 C189.994446,2.0566657 190.484442,1.96 191.071111,1.96 L191.071111,1.96 Z M205.54,12.56 C205.54,13.7333392 205.276669,14.6233303 204.75,15.23 C204.223331,15.8366697 203.426672,16.14 202.36,16.14 C201.293328,16.14 200.503336,15.8533362 199.99,15.28 C199.476664,14.7066638 199.22,13.9066718 199.22,12.88 L199.22,5.56 C199.22,5.0666642 199.273333,4.6000022 199.38,4.16 C199.486667,3.7199978 199.663332,3.3366683 199.91,3.01 C200.156668,2.6833317 200.483331,2.4266676 200.89,2.24 C201.296669,2.0533324 201.79333,1.96 202.38,1.96 C202.980003,1.96 203.483331,2.0433325 203.89,2.21 C204.296669,2.3766675 204.619999,2.6166651 204.86,2.93 C205.100001,3.2433349 205.273333,3.6166645 205.38,4.05 C205.486667,4.4833355 205.54,4.966664 205.54,5.5 L205.54,12.56 Z M204.3,5.32 C204.3,5.0266652 204.266667,4.746668 204.2,4.48 C204.133333,4.213332 204.026667,3.9766677 203.88,3.77 C203.733333,3.5633323 203.536668,3.3966673 203.29,3.27 C203.043332,3.1433327 202.740002,3.08 202.38,3.08 C201.993331,3.08 201.673335,3.1633325 201.42,3.33 C201.166665,3.4966675 200.966667,3.7066654 200.82,3.96 C200.673333,4.2133346 200.57,4.4899985 200.51,4.79 C200.45,5.0900015 200.42,5.373332 200.42,5.64 L200.42,12.9 C200.42,13.166668 200.456666,13.4266654 200.53,13.68 C200.603334,13.9333346 200.716666,14.159999 200.87,14.36 C201.023334,14.560001 201.223332,14.7199994 201.47,14.84 C201.716668,14.9600006 202.013332,15.02 202.36,15.02 C203.06667,15.02 203.566665,14.7933356 203.86,14.34 C204.153335,13.8866644 204.3,13.3400032 204.3,12.7 L204.3,5.32 Z M215.808889,8.7 C216.422225,8.8866676 216.845554,9.2699971 217.078889,9.85 C217.312223,10.4300029 217.428889,11.119996 217.428889,11.92 C217.428889,13.3733406 217.128892,14.4166635 216.528889,15.05 C215.928886,15.6833365 215.042228,16 213.868889,16 L211.088889,16 L211.088889,2.08 L214.008889,2.08 C214.608892,2.08 215.118887,2.1599992 215.538889,2.32 C215.958891,2.4800008 216.298888,2.7133318 216.558889,3.02 C216.81889,3.3266682 217.005555,3.7033311 217.118889,4.15 C217.232223,4.5966689 217.288889,5.0999972 217.288889,5.66 C217.288889,6.3800036 217.182223,6.9799976 216.968889,7.46 C216.755554,7.9400024 216.368892,8.3266652 215.808889,8.62 L215.808889,8.7 Z M216.228889,11.82 C216.228889,10.9799958 216.065557,10.3333356 215.738889,9.88 C215.412221,9.4266644 214.848893,9.2 214.048889,9.2 L212.308889,9.2 L212.308889,14.88 L213.948889,14.88 C214.428891,14.88 214.818887,14.8000008 215.118889,14.64 C215.41889,14.4799992 215.648888,14.2600014 215.808889,13.98 C215.96889,13.6999986 216.078889,13.3733352 216.138889,13 C216.198889,12.6266648 216.228889,12.2333354 216.228889,11.82 L216.228889,11.82 Z M216.088889,5.64 C216.088889,4.8533294 215.915557,4.2500021 215.568889,3.83 C215.22222,3.4099979 214.628893,3.2 213.788889,3.2 L212.308889,3.2 L212.308889,8.12 L213.948889,8.12 C214.735559,8.12 215.288887,7.9066688 215.608889,7.48 C215.92889,7.0533312 216.088889,6.440004 216.088889,5.64 L216.088889,5.64 Z M222.053333,2.08 C222.74667,2.08 223.323331,2.1733324 223.783333,2.36 C224.243336,2.5466676 224.603332,2.8166649 224.863333,3.17 C225.123335,3.5233351 225.306666,3.9499975 225.413333,4.45 C225.520001,4.9500025 225.573333,5.5066636 225.573333,6.12 C225.573333,6.7066696 225.520001,7.2533308 225.413333,7.76 C225.306666,8.2666692 225.120001,8.7033315 224.853333,9.07 C224.586665,9.4366685 224.216669,9.7233323 223.743333,9.93 C223.269998,10.1366677 222.673337,10.24 221.953333,10.24 L220.493333,10.24 L220.493333,16 L219.273333,16 L219.273333,2.08 L222.053333,2.08 Z M220.493333,9.1 L221.893333,9.1 C222.400003,9.1 222.813332,9.0300007 223.133333,8.89 C223.453335,8.7499993 223.706666,8.5500013 223.893333,8.29 C224.080001,8.0299987 224.206666,7.7166685 224.273333,7.35 C224.34,6.9833315 224.373333,6.5800022 224.373333,6.14 C224.373333,5.7266646 224.343334,5.3400018 224.283333,4.98 C224.223333,4.6199982 224.103334,4.3100013 223.923333,4.05 C223.743332,3.7899987 223.493335,3.5833341 223.173333,3.43 C222.853332,3.2766659 222.440003,3.2 221.933333,3.2 L220.493333,3.2 L220.493333,9.1 Z M227.037778,16 L227.037778,2.08 L232.857778,2.08 L232.857778,3.22 L228.257778,3.22 L228.257778,8.32 L232.277778,8.32 L232.277778,9.46 L228.257778,9.46 L228.257778,14.88 L232.857778,14.88 L232.857778,16 L227.037778,16 Z M234.322222,18.64 L233.222222,18.64 L233.222222,14.96 L233.922222,14.88 C234.122223,14.679999 234.295555,14.4633345 234.442222,14.23 C234.58889,13.9966655 234.705555,13.7000018 234.792222,13.34 C234.878889,12.9799982 234.945555,12.5366693 234.992222,12.01 C235.038889,11.4833307 235.075555,10.8333372 235.102222,10.06 L235.302222,2.08 L241.262222,2.08 L241.262222,14.92 L242.002222,14.92 L242.002222,18.64 L240.902222,18.64 L240.902222,16 L234.322222,16 L234.322222,18.64 Z M240.042222,14.92 L240.042222,3.18 L236.422222,3.18 L236.242222,10.06 C236.215555,11.2066724 236.142223,12.1666628 236.022222,12.94 C235.902222,13.7133372 235.675557,14.3733306 235.342222,14.92 L240.042222,14.92 Z M243.306667,16 L243.306667,2.08 L249.126667,2.08 L249.126667,3.22 L244.526667,3.22 L244.526667,8.32 L248.546667,8.32 L248.546667,9.46 L244.526667,9.46 L244.526667,14.88 L249.126667,14.88 L249.126667,16 L243.306667,16 Z M58.88,22.08 L58.88,26.96 C58.88,27.7866708 59.0533316,28.3599984 59.4,28.68 C59.7466684,29.0000016 60.3066628,29.16 61.08,29.16 C61.2933344,29.16 61.5533318,29.1333336 61.86,29.08 C62.1666682,29.0266664 62.453332,28.9466672 62.72,28.84 L62.72,22.08 L63.96,22.08 L63.96,36 L62.72,36 L62.72,29.82 C62.453332,29.9266672 62.1400018,30.0066664 61.78,30.06 C61.4199982,30.1133336 61.0933348,30.14 60.8,30.14 C60.3199976,30.14 59.8900019,30.0866672 59.51,29.98 C59.1299981,29.8733328 58.806668,29.6966679 58.54,29.45 C58.273332,29.2033321 58.0666674,28.8766687 57.92,28.47 C57.7733326,28.0633313 57.7,27.5666696 57.7,26.98 L57.7,22.08 L58.88,22.08 Z M68.7444444,22.08 C69.4377812,22.08 70.0144421,22.1733324 70.4744444,22.36 C70.9344467,22.5466676 71.2944431,22.8166649 71.5544444,23.17 C71.8144457,23.5233351 71.9977772,23.9499975 72.1044444,24.45 C72.2111116,24.9500025 72.2644444,25.5066636 72.2644444,26.12 C72.2644444,26.7066696 72.2111116,27.2533308 72.1044444,27.76 C71.9977772,28.2666692 71.8111124,28.7033315 71.5444444,29.07 C71.2777764,29.4366685 70.9077801,29.7233323 70.4344444,29.93 C69.9611087,30.1366677 69.364448,30.24 68.6444444,30.24 L67.1844444,30.24 L67.1844444,36 L65.9644444,36 L65.9644444,22.08 L68.7444444,22.08 Z M67.1844444,29.1 L68.5844444,29.1 C69.0911136,29.1 69.5044428,29.0300007 69.8244444,28.89 C70.144446,28.7499993 70.3977768,28.5500013 70.5844444,28.29 C70.771112,28.0299987 70.8977774,27.7166685 70.9644444,27.35 C71.0311114,26.9833315 71.0644444,26.5800022 71.0644444,26.14 C71.0644444,25.7266646 71.0344447,25.3400018 70.9744444,24.98 C70.9144441,24.6199982 70.7944453,24.3100013 70.6144444,24.05 C70.4344435,23.7899987 70.184446,23.5833341 69.8644444,23.43 C69.5444428,23.2766659 69.1311136,23.2 68.6244444,23.2 L67.1844444,23.2 L67.1844444,29.1 Z M73.7288889,36 L73.7288889,22.08 L79.5488889,22.08 L79.5488889,23.22 L74.9488889,23.22 L74.9488889,28.32 L78.9688889,28.32 L78.9688889,29.46 L74.9488889,29.46 L74.9488889,34.88 L79.5488889,34.88 L79.5488889,36 L73.7288889,36 Z M85.0533333,31.72 C85.0533333,30.0933252 84.4333395,29.28 83.1933333,29.28 L82.4733333,29.28 L82.4733333,28.18 L83.2933333,28.18 C83.7200021,28.18 84.0533321,28.1066674 84.2933333,27.96 C84.5333345,27.8133326 84.7133327,27.6133346 84.8333333,27.36 C84.9533339,27.1066654 85.0266665,26.813335 85.0533333,26.48 C85.0800001,26.146665 85.0933333,25.7866686 85.0933333,25.4 C85.0933333,24.9733312 85.0433338,24.6133348 84.9433333,24.32 C84.8433328,24.0266652 84.7100008,23.7900009 84.5433333,23.61 C84.3766658,23.4299991 84.1766678,23.3000004 83.9433333,23.22 C83.7099988,23.1399996 83.4600013,23.1 83.1933333,23.1 C82.5933303,23.1 82.1266683,23.2933314 81.7933333,23.68 C81.4599983,24.0666686 81.2933333,24.5999966 81.2933333,25.28 L80.1133333,25 C80.1266667,24.4933308 80.2199991,24.0500019 80.3933333,23.67 C80.5666675,23.2899981 80.7933319,22.9733346 81.0733333,22.72 C81.3533347,22.4666654 81.6799981,22.2766673 82.0533333,22.15 C82.4266685,22.0233327 82.8199979,21.96 83.2333333,21.96 C84.1000043,21.96 84.796664,22.1699979 85.3233333,22.59 C85.8500026,23.0100021 86.1599995,23.7133284 86.2533333,24.7 C86.2800001,24.833334 86.2933333,24.9699993 86.2933333,25.11 L86.2933333,25.56 C86.2933333,25.8000012 86.2800001,26.0766651 86.2533333,26.39 C86.2266665,26.7033349 86.1666671,27.0099985 86.0733333,27.31 C85.9799995,27.6100015 85.8533341,27.8833321 85.6933333,28.13 C85.5333325,28.3766679 85.3133347,28.5599994 85.0333333,28.68 L85.0333333,28.72 C85.3000013,28.8400006 85.5133325,28.999999 85.6733333,29.2 C85.8333341,29.400001 85.9599995,29.6199988 86.0533333,29.86 C86.1466671,30.1000012 86.2066665,30.3499987 86.2333333,30.61 C86.2600001,30.8700013 86.2799999,31.1199988 86.2933333,31.36 L86.2933333,32.12 L86.2933333,32.57 C86.2933333,32.7100007 86.2866667,32.8533326 86.2733333,33 C86.2066663,34.066672 85.8933361,34.8566641 85.3333333,35.37 C84.7733305,35.8833359 84.0466711,36.14 83.1533333,36.14 C82.7266645,36.14 82.3300018,36.0833339 81.9633333,35.97 C81.5966648,35.8566661 81.2733347,35.6766679 80.9933333,35.43 C80.7133319,35.1833321 80.4933341,34.8733352 80.3333333,34.5 C80.1733325,34.1266648 80.0933333,33.6800026 80.0933333,33.16 L80.0933333,33.08 L81.2733333,32.84 C81.2733333,33.6533374 81.4466649,34.2199984 81.7933333,34.54 C82.1400017,34.8600016 82.5933305,35.02 83.1533333,35.02 C83.4333347,35.02 83.6866655,34.9766671 83.9133333,34.89 C84.1400011,34.8033329 84.3399991,34.6566677 84.5133333,34.45 C84.6866675,34.2433323 84.8199995,33.9700017 84.9133333,33.63 C85.0066671,33.2899983 85.0533333,32.8666692 85.0533333,32.36 L85.0533333,31.72 Z M95.9377778,25.48 C95.8711108,25.6400008 95.7777784,25.8766651 95.6577778,26.19 C95.5377772,26.5033349 95.4144451,26.8333316 95.2877778,27.18 C95.1611105,27.5266684 95.0344451,27.8566651 94.9077778,28.17 C94.7811105,28.4833349 94.6911114,28.7199992 94.6377778,28.88 C94.6244444,28.9200002 94.5811115,29.0366657 94.5077778,29.23 C94.4344441,29.4233343 94.344445,29.653332 94.2377778,29.92 C94.1311106,30.186668 94.0144451,30.4733318 93.8877778,30.78 C93.7611105,31.0866682 93.644445,31.373332 93.5377778,31.64 C93.4311106,31.906668 93.3377782,32.1366657 93.2577778,32.33 C93.1777774,32.5233343 93.1311112,32.6399998 93.1177778,32.68 L92.4377778,32.68 C92.3711108,32.5066658 92.2677785,32.2466684 92.1277778,31.9 C91.9877771,31.5533316 91.8411119,31.1866686 91.6877778,30.8 C91.5344437,30.4133314 91.3877785,30.0466684 91.2477778,29.7 C91.1077771,29.3533316 91.0044448,29.0933342 90.9377778,28.92 L89.6577778,25.52 L89.5777778,25.52 L89.5777778,36 L88.3577778,36 L88.3577778,22.08 L89.5977778,22.08 C89.6777782,22.280001 89.797777,22.5866646 89.9577778,23 C90.1177786,23.4133354 90.2844436,23.8499977 90.4577778,24.31 C90.631112,24.7700023 90.797777,25.2066646 90.9577778,25.62 C91.1177786,26.0333354 91.2311108,26.339999 91.2977778,26.54 L92.7577778,30.42 L92.8177778,30.42 C92.8844448,30.2333324 92.9844438,29.9600018 93.1177778,29.6 C93.2511118,29.2399982 93.3944437,28.860002 93.5477778,28.46 C93.7011119,28.059998 93.8477771,27.6766685 93.9877778,27.31 C94.1277785,26.9433315 94.2311108,26.6666676 94.2977778,26.48 C94.3111112,26.4399998 94.3611107,26.3066678 94.4477778,26.08 C94.5344449,25.8533322 94.6377772,25.5866682 94.7577778,25.28 C94.8777784,24.9733318 95.0077771,24.6400018 95.1477778,24.28 C95.2877785,23.9199982 95.4144439,23.5866682 95.5277778,23.28 C95.6411117,22.9733318 95.7411107,22.7100011 95.8277778,22.49 C95.9144449,22.2699989 95.9644444,22.1333336 95.9777778,22.08 L97.2377778,22.08 L97.2377778,36 L96.0177778,36 L96.0177778,25.48 L95.9377778,25.48 Z M99.2822222,36 L99.2822222,22.08 L105.102222,22.08 L105.102222,23.22 L100.502222,23.22 L100.502222,28.32 L104.522222,28.32 L104.522222,29.46 L100.502222,29.46 L100.502222,34.88 L105.102222,34.88 L105.102222,36 L99.2822222,36 Z M109.226667,22.08 C109.920003,22.08 110.496664,22.1733324 110.956667,22.36 C111.416669,22.5466676 111.776665,22.8166649 112.036667,23.17 C112.296668,23.5233351 112.479999,23.9499975 112.586667,24.45 C112.693334,24.9500025 112.746667,25.5066636 112.746667,26.12 C112.746667,26.7066696 112.693334,27.2533308 112.586667,27.76 C112.479999,28.2666692 112.293335,28.7033315 112.026667,29.07 C111.759999,29.4366685 111.390002,29.7233323 110.916667,29.93 C110.443331,30.1366677 109.84667,30.24 109.126667,30.24 L107.666667,30.24 L107.666667,36 L106.446667,36 L106.446667,22.08 L109.226667,22.08 Z M107.666667,29.1 L109.066667,29.1 C109.573336,29.1 109.986665,29.0300007 110.306667,28.89 C110.626668,28.7499993 110.879999,28.5500013 111.066667,28.29 C111.253334,28.0299987 111.38,27.7166685 111.446667,27.35 C111.513334,26.9833315 111.546667,26.5800022 111.546667,26.14 C111.546667,25.7266646 111.516667,25.3400018 111.456667,24.98 C111.396666,24.6199982 111.276668,24.3100013 111.096667,24.05 C110.916666,23.7899987 110.666668,23.5833341 110.346667,23.43 C110.026665,23.2766659 109.613336,23.2 109.106667,23.2 L107.666667,23.2 L107.666667,29.1 Z M119.251111,36 L119.251111,29.42 L115.431111,29.42 L115.431111,36 L114.211111,36 L114.211111,22.08 L115.431111,22.08 L115.431111,28.34 L119.251111,28.34 L119.251111,22.08 L120.491111,22.08 L120.491111,36 L119.251111,36 Z M128.755556,32.56 C128.755556,33.7333392 128.492225,34.6233303 127.965556,35.23 C127.438886,35.8366697 126.642228,36.14 125.575556,36.14 C124.508884,36.14 123.718891,35.8533362 123.205556,35.28 C122.69222,34.7066638 122.435556,33.9066718 122.435556,32.88 L122.435556,25.56 C122.435556,25.0666642 122.488888,24.6000022 122.595556,24.16 C122.702223,23.7199978 122.878888,23.3366683 123.125556,23.01 C123.372223,22.6833317 123.698887,22.4266676 124.105556,22.24 C124.512224,22.0533324 125.008886,21.96 125.595556,21.96 C126.195559,21.96 126.698887,22.0433325 127.105556,22.21 C127.512224,22.3766675 127.835554,22.6166651 128.075556,22.93 C128.315557,23.2433349 128.488888,23.6166645 128.595556,24.05 C128.702223,24.4833355 128.755556,24.966664 128.755556,25.5 L128.755556,32.56 Z M127.515556,25.32 C127.515556,25.0266652 127.482223,24.746668 127.415556,24.48 C127.348889,24.213332 127.242223,23.9766677 127.095556,23.77 C126.948888,23.5633323 126.752223,23.3966673 126.505556,23.27 C126.258888,23.1433327 125.955557,23.08 125.595556,23.08 C125.208887,23.08 124.88889,23.1633325 124.635556,23.33 C124.382221,23.4966675 124.182223,23.7066654 124.035556,23.96 C123.888888,24.2133346 123.785556,24.4899985 123.725556,24.79 C123.665555,25.0900015 123.635556,25.373332 123.635556,25.64 L123.635556,32.9 C123.635556,33.166668 123.672222,33.4266654 123.745556,33.68 C123.818889,33.9333346 123.932221,34.159999 124.085556,34.36 C124.23889,34.560001 124.438888,34.7199994 124.685556,34.84 C124.932223,34.9600006 125.228887,35.02 125.575556,35.02 C126.282226,35.02 126.782221,34.7933356 127.075556,34.34 C127.36889,33.8866644 127.515556,33.3400032 127.515556,32.7 L127.515556,25.32 Z M131.9,23.22 L131.9,36 L130.68,36 L130.68,22.08 L136.28,22.08 L136.28,23.22 L131.9,23.22 Z M143.904444,32.56 C143.904444,33.7333392 143.641114,34.6233303 143.114444,35.23 C142.587775,35.8366697 141.791116,36.14 140.724444,36.14 C139.657772,36.14 138.86778,35.8533362 138.354444,35.28 C137.841109,34.7066638 137.584444,33.9066718 137.584444,32.88 L137.584444,25.56 C137.584444,25.0666642 137.637777,24.6000022 137.744444,24.16 C137.851112,23.7199978 138.027777,23.3366683 138.274444,23.01 C138.521112,22.6833317 138.847776,22.4266676 139.254444,22.24 C139.661113,22.0533324 140.157775,21.96 140.744444,21.96 C141.344447,21.96 141.847776,22.0433325 142.254444,22.21 C142.661113,22.3766675 142.984443,22.6166651 143.224444,22.93 C143.464446,23.2433349 143.637777,23.6166645 143.744444,24.05 C143.851112,24.4833355 143.904444,24.966664 143.904444,25.5 L143.904444,32.56 Z M142.664444,25.32 C142.664444,25.0266652 142.631111,24.746668 142.564444,24.48 C142.497777,24.213332 142.391112,23.9766677 142.244444,23.77 C142.097777,23.5633323 141.901112,23.3966673 141.654444,23.27 C141.407777,23.1433327 141.104446,23.08 140.744444,23.08 C140.357776,23.08 140.037779,23.1633325 139.784444,23.33 C139.53111,23.4966675 139.331112,23.7066654 139.184444,23.96 C139.037777,24.2133346 138.934445,24.4899985 138.874444,24.79 C138.814444,25.0900015 138.784444,25.373332 138.784444,25.64 L138.784444,32.9 C138.784444,33.166668 138.821111,33.4266654 138.894444,33.68 C138.967778,33.9333346 139.08111,34.159999 139.234444,34.36 C139.387779,34.560001 139.587777,34.7199994 139.834444,34.84 C140.081112,34.9600006 140.377776,35.02 140.724444,35.02 C141.431115,35.02 141.93111,34.7933356 142.224444,34.34 C142.517779,33.8866644 142.664444,33.3400032 142.664444,32.7 L142.664444,25.32 Z M152.273333,30.66 L154.413333,22.08 L155.593333,22.08 L152.693333,32.98 C152.506666,33.6866702 152.310001,34.2466646 152.103333,34.66 C151.896666,35.0733354 151.683334,35.3833323 151.463333,35.59 C151.243332,35.7966677 151.010001,35.9299997 150.763333,35.99 C150.516665,36.0500003 150.266668,36.0866666 150.013333,36.1 L149.393333,36.1 L149.393333,35.1 L149.973333,35.1 C150.280002,35.1 150.566665,34.9600014 150.833333,34.68 C151.100001,34.3999986 151.319999,33.92667 151.493333,33.26 L151.693333,32.46 L148.593333,22.1 L149.813333,22.1 L152.213333,30.66 L152.273333,30.66 Z M161.717778,36 L161.717778,23.24 L158.057778,23.24 L158.057778,36 L156.837778,36 L156.837778,22.08 L162.957778,22.08 L162.957778,36 L161.717778,36 Z M171.202222,32.56 C171.202222,33.7333392 170.938892,34.6233303 170.412222,35.23 C169.885553,35.8366697 169.088894,36.14 168.022222,36.14 C166.95555,36.14 166.165558,35.8533362 165.652222,35.28 C165.138886,34.7066638 164.882222,33.9066718 164.882222,32.88 L164.882222,25.56 C164.882222,25.0666642 164.935555,24.6000022 165.042222,24.16 C165.148889,23.7199978 165.325554,23.3366683 165.572222,23.01 C165.81889,22.6833317 166.145554,22.4266676 166.552222,22.24 C166.958891,22.0533324 167.455553,21.96 168.042222,21.96 C168.642225,21.96 169.145554,22.0433325 169.552222,22.21 C169.958891,22.3766675 170.282221,22.6166651 170.522222,22.93 C170.762223,23.2433349 170.935555,23.6166645 171.042222,24.05 C171.148889,24.4833355 171.202222,24.966664 171.202222,25.5 L171.202222,32.56 Z M169.962222,25.32 C169.962222,25.0266652 169.928889,24.746668 169.862222,24.48 C169.795555,24.213332 169.68889,23.9766677 169.542222,23.77 C169.395555,23.5633323 169.19889,23.3966673 168.952222,23.27 C168.705554,23.1433327 168.402224,23.08 168.042222,23.08 C167.655554,23.08 167.335557,23.1633325 167.082222,23.33 C166.828888,23.4966675 166.62889,23.7066654 166.482222,23.96 C166.335555,24.2133346 166.232223,24.4899985 166.172222,24.79 C166.112222,25.0900015 166.082222,25.373332 166.082222,25.64 L166.082222,32.9 C166.082222,33.166668 166.118889,33.4266654 166.192222,33.68 C166.265556,33.9333346 166.378888,34.159999 166.532222,34.36 C166.685556,34.560001 166.885554,34.7199994 167.132222,34.84 C167.37889,34.9600006 167.675554,35.02 168.022222,35.02 C168.728892,35.02 169.228887,34.7933356 169.522222,34.34 C169.815557,33.8866644 169.962222,33.3400032 169.962222,32.7 L169.962222,25.32 Z M175.886667,23.2 L175.886667,36 L174.626667,36 L174.626667,23.2 L172.126667,23.2 L172.126667,22.08 L178.386667,22.08 L178.386667,23.2 L175.886667,23.2 Z M182.251111,22.08 C182.944448,22.08 183.521109,22.1733324 183.981111,22.36 C184.441113,22.5466676 184.80111,22.8166649 185.061111,23.17 C185.321112,23.5233351 185.504444,23.9499975 185.611111,24.45 C185.717778,24.9500025 185.771111,25.5066636 185.771111,26.12 C185.771111,26.7066696 185.717778,27.2533308 185.611111,27.76 C185.504444,28.2666692 185.317779,28.7033315 185.051111,29.07 C184.784443,29.4366685 184.414447,29.7233323 183.941111,29.93 C183.467775,30.1366677 182.871115,30.24 182.151111,30.24 L180.691111,30.24 L180.691111,36 L179.471111,36 L179.471111,22.08 L182.251111,22.08 Z M180.691111,29.1 L182.091111,29.1 C182.59778,29.1 183.01111,29.0300007 183.331111,28.89 C183.651113,28.7499993 183.904444,28.5500013 184.091111,28.29 C184.277779,28.0299987 184.404444,27.7166685 184.471111,27.35 C184.537778,26.9833315 184.571111,26.5800022 184.571111,26.14 C184.571111,25.7266646 184.541111,25.3400018 184.481111,24.98 C184.421111,24.6199982 184.301112,24.3100013 184.121111,24.05 C183.94111,23.7899987 183.691113,23.5833341 183.371111,23.43 C183.05111,23.2766659 182.63778,23.2 182.131111,23.2 L180.691111,23.2 L180.691111,29.1 Z M187.235556,36 L187.235556,22.08 L193.055556,22.08 L193.055556,23.22 L188.455556,23.22 L188.455556,28.32 L192.475556,28.32 L192.475556,29.46 L188.455556,29.46 L188.455556,34.88 L193.055556,34.88 L193.055556,36 L187.235556,36 Z M195.52,34.82 L196.98,34.82 C197.486669,34.82 197.896665,34.7433341 198.21,34.59 C198.523335,34.4366659 198.769999,34.2300013 198.95,33.97 C199.130001,33.7099987 199.25,33.4033351 199.31,33.05 C199.37,32.6966649 199.4,32.3133354 199.4,31.9 C199.4,31.4866646 199.363334,31.1100017 199.29,30.77 C199.216666,30.4299983 199.086668,30.1366679 198.9,29.89 C198.713332,29.6433321 198.463335,29.453334 198.15,29.32 C197.836665,29.186666 197.433336,29.12 196.94,29.12 L195.52,29.12 L195.52,34.82 Z M195.52,27.96 L197,27.96 C197.720004,27.96 198.316664,28.0566657 198.79,28.25 C199.263336,28.4433343 199.633332,28.7133316 199.9,29.06 C200.166668,29.4066684 200.353333,29.8199976 200.46,30.3 C200.566667,30.7800024 200.62,31.3066638 200.62,31.88 C200.62,32.4933364 200.566667,33.0533308 200.46,33.56 C200.353333,34.0666692 200.166668,34.4999982 199.9,34.86 C199.633332,35.2200018 199.273336,35.499999 198.82,35.7 C198.366664,35.900001 197.78667,36 197.08,36 L194.3,36 L194.3,22.08 L199.84,22.08 L199.84,23.22 L195.52,23.22 L195.52,27.96 Z M204.044444,29.08 C204.044444,30.3333396 204.007778,31.3666626 203.934444,32.18 C203.861111,32.9933374 203.737779,33.666664 203.564444,34.2 C203.39111,34.733336 203.154446,35.1633317 202.854444,35.49 C202.554443,35.8166683 202.184447,36.113332 201.744444,36.38 L201.184444,35.48 C201.464446,35.279999 201.71111,35.0633345 201.924444,34.83 C202.137779,34.5966655 202.32111,34.280002 202.474444,33.88 C202.627779,33.479998 202.741111,32.9600032 202.814444,32.32 C202.887778,31.6799968 202.924444,30.8533384 202.924444,29.84 L202.924444,22.08 L208.664444,22.08 L208.664444,36 L207.444444,36 L207.444444,23.22 L204.044444,23.22 L204.044444,29.08 Z M210.728889,36 L210.728889,22.08 L216.548889,22.08 L216.548889,23.22 L211.948889,23.22 L211.948889,28.32 L215.968889,28.32 L215.968889,29.46 L211.948889,29.46 L211.948889,34.88 L216.548889,34.88 L216.548889,36 L210.728889,36 Z M222.933333,36 L222.933333,29.42 L219.113333,29.42 L219.113333,36 L217.893333,36 L217.893333,22.08 L219.113333,22.08 L219.113333,28.34 L222.933333,28.34 L222.933333,22.08 L224.173333,22.08 L224.173333,36 L222.933333,36 Z M231.437778,25.06 L227.337778,36 L226.197778,36 L226.197778,22.08 L227.397778,22.08 L227.397778,33.04 L227.477778,33.06 L231.537778,22.08 L232.717778,22.08 L232.717778,36 L231.497778,36 L231.497778,25.06 L231.437778,25.06 Z M234.102222,36 L234.962222,31.66 C235.068889,31.1133306 235.228888,30.6233355 235.442222,30.19 C235.655557,29.7566645 235.995553,29.4266678 236.462222,29.2 C235.755552,28.999999 235.272224,28.6233361 235.012222,28.07 C234.752221,27.5166639 234.622222,26.840004 234.622222,26.04 C234.622222,24.7866604 234.898886,23.8133368 235.452222,23.12 C236.005558,22.4266632 236.888883,22.08 238.102222,22.08 L240.942222,22.08 L240.942222,36 L239.722222,36 L239.722222,29.62 L238.382222,29.62 C238.168888,29.62 237.94889,29.6466664 237.722222,29.7 C237.495554,29.7533336 237.282223,29.8599992 237.082222,30.02 C236.882221,30.1800008 236.702223,30.4033319 236.542222,30.69 C236.382221,30.9766681 236.255556,31.3599976 236.162222,31.84 L235.342222,36 L234.102222,36 Z M235.842222,26.04 C235.842222,26.906671 236.04222,27.539998 236.442222,27.94 C236.842224,28.340002 237.428885,28.54 238.202222,28.54 L239.722222,28.54 L239.722222,23.22 L238.302222,23.22 C237.835553,23.22 237.445557,23.2899993 237.132222,23.43 C236.818887,23.5700007 236.56889,23.7633321 236.382222,24.01 C236.195555,24.2566679 236.058889,24.5533316 235.972222,24.9 C235.885555,25.2466684 235.842222,25.6266646 235.842222,26.04 L235.842222,26.04 Z M251.491111,36 L251.491111,23.24 L247.831111,23.24 L247.831111,36 L246.611111,36 L246.611111,22.08 L252.731111,22.08 L252.731111,36 L251.491111,36 Z M259.975556,25.06 L255.875556,36 L254.735556,36 L254.735556,22.08 L255.935556,22.08 L255.935556,33.04 L256.015556,33.06 L260.075556,22.08 L261.255556,22.08 L261.255556,36 L260.035556,36 L260.035556,25.06 L259.975556,25.06 Z M267.98,28.7 C268.593336,28.8866676 269.016665,29.2699971 269.25,29.85 C269.483334,30.4300029 269.6,31.119996 269.6,31.92 C269.6,33.3733406 269.300003,34.4166635 268.7,35.05 C268.099997,35.6833365 267.213339,36 266.04,36 L263.26,36 L263.26,22.08 L266.18,22.08 C266.780003,22.08 267.289998,22.1599992 267.71,22.32 C268.130002,22.4800008 268.469999,22.7133318 268.73,23.02 C268.990001,23.3266682 269.176666,23.7033311 269.29,24.15 C269.403334,24.5966689 269.46,25.0999972 269.46,25.66 C269.46,26.3800036 269.353334,26.9799976 269.14,27.46 C268.926666,27.9400024 268.540003,28.3266652 267.98,28.62 L267.98,28.7 Z M268.4,31.82 C268.4,30.9799958 268.236668,30.3333356 267.91,29.88 C267.583332,29.4266644 267.020004,29.2 266.22,29.2 L264.48,29.2 L264.48,34.88 L266.12,34.88 C266.600002,34.88 266.989998,34.8000008 267.29,34.64 C267.590001,34.4799992 267.819999,34.2600014 267.98,33.98 C268.140001,33.6999986 268.25,33.3733352 268.31,33 C268.37,32.6266648 268.4,32.2333354 268.4,31.82 L268.4,31.82 Z M268.26,25.64 C268.26,24.8533294 268.086668,24.2500021 267.74,23.83 C267.393332,23.4099979 266.800004,23.2 265.96,23.2 L264.48,23.2 L264.48,28.12 L266.12,28.12 C266.906671,28.12 267.459998,27.9066688 267.78,27.48 C268.100002,27.0533312 268.26,26.440004 268.26,25.64 L268.26,25.64 Z M276.704444,36 L275.964444,32.64 L272.504444,32.64 L271.784444,36 L270.624444,36 L273.624444,22.08 L274.864444,22.08 L277.924444,36 L276.704444,36 Z M274.204444,24.12 L273.544444,27.48 L272.704444,31.48 L275.744444,31.48 L274.904444,27.44 L274.264444,24.12 L274.204444,24.12 Z" id="ПРЕДУПРЕЖДАЕМ-ВАС-О"></path>
                </g>
            </g>
        </g>
    </g>
</svg>