<?xml version="1.0" encoding="UTF-8"?>
<svg width="686px" height="29px" viewBox="0 0 686 29" version="1.1" xmlns="http://www.w3.org/2000/svg" xmlns:xlink="http://www.w3.org/1999/xlink">
    <!-- Generator: Sketch 40.3 (33839) - http://www.bohemiancoding.com/sketch -->
    <title>ПРЕДУПРЕЖДАЕМ ВАС О</title>
    <desc>Created with Sketch.</desc>
    <defs></defs>
    <g id="Main" stroke="none" stroke-width="1" fill="none" fill-rule="evenodd">
        <g id="PopupAboutAge" transform="translate(-346.000000, -748.000000)" fill="#A8A8A8">
            <g id="Popup">
                <g id="Block" transform="translate(171.000000, 350.000000)">
                    <g id="warning" transform="translate(82.000000, 376.000000)">
                        <path d="M101.801,46 L101.801,24.946 L95.762,24.946 L95.762,46 L93.749,46 L93.749,23.032 L103.847,23.032 L103.847,46 L101.801,46 Z M111.807333,23.032 C112.951339,23.032 113.90283,23.1859985 114.661833,23.494 C115.420837,23.8020015 116.014831,24.2474971 116.443833,24.8305 C116.872835,25.4135029 117.175332,26.1174959 117.351333,26.9425 C117.527334,27.7675041 117.615333,28.6859949 117.615333,29.698 C117.615333,30.6660048 117.527334,31.5679958 117.351333,32.404 C117.175332,33.2400042 116.867336,33.960497 116.427333,34.5655 C115.987331,35.170503 115.376837,35.6434983 114.595833,35.9845 C113.814829,36.3255017 112.830339,36.496 111.642333,36.496 L109.233333,36.496 L109.233333,46 L107.220333,46 L107.220333,23.032 L111.807333,23.032 Z M109.233333,34.615 L111.543333,34.615 C112.379338,34.615 113.061331,34.4995012 113.589333,34.2685 C114.117336,34.0374988 114.535332,33.7075021 114.843333,33.2785 C115.151335,32.8494979 115.360333,32.332503 115.470333,31.7275 C115.580334,31.122497 115.635333,30.4570036 115.635333,29.731 C115.635333,29.0489966 115.585834,28.411003 115.486833,27.817 C115.387833,27.222997 115.189835,26.7115021 114.892833,26.2825 C114.595832,25.8534979 114.183336,25.5125013 113.655333,25.2595 C113.127331,25.0064987 112.445338,24.88 111.609333,24.88 L109.233333,24.88 L109.233333,34.615 Z M120.031667,46 L120.031667,23.032 L129.634667,23.032 L129.634667,24.913 L122.044667,24.913 L122.044667,33.328 L128.677667,33.328 L128.677667,35.209 L122.044667,35.209 L122.044667,44.152 L129.634667,44.152 L129.634667,46 L120.031667,46 Z M132.051,50.356 L130.236,50.356 L130.236,44.284 L131.391,44.152 C131.721002,43.8219984 132.006999,43.4645019 132.249,43.0795 C132.491001,42.6944981 132.683499,42.205003 132.8265,41.611 C132.969501,41.016997 133.0795,40.2855043 133.1565,39.4165 C133.2335,38.5474957 133.294,37.4750064 133.338,36.199 L133.668,23.032 L143.502,23.032 L143.502,44.218 L144.723,44.218 L144.723,50.356 L142.908,50.356 L142.908,46 L132.051,46 L132.051,50.356 Z M141.489,44.218 L141.489,24.847 L135.516,24.847 L135.219,36.199 C135.175,38.0910095 135.054001,39.6749936 134.856,40.951 C134.657999,42.2270064 134.284003,43.3159955 133.734,44.218 L141.489,44.218 Z M151.528333,37.189 L155.059333,23.032 L157.006333,23.032 L152.221333,41.017 C151.913332,42.1830058 151.588835,43.1069966 151.247833,43.789 C150.906832,44.4710034 150.554835,44.9824983 150.191833,45.3235 C149.828832,45.6645017 149.443835,45.8844995 149.036833,45.9835 C148.629831,46.0825005 148.217335,46.1429999 147.799333,46.165 L146.776333,46.165 L146.776333,44.515 L147.733333,44.515 C148.239336,44.515 148.712331,44.2840023 149.152333,43.822 C149.592336,43.3599977 149.955332,42.5790055 150.241333,41.479 L150.571333,40.159 L145.456333,23.065 L147.469333,23.065 L151.429333,37.189 L151.528333,37.189 Z M167.111667,46 L167.111667,24.946 L161.072667,24.946 L161.072667,46 L159.059667,46 L159.059667,23.032 L169.157667,23.032 L169.157667,46 L167.111667,46 Z M177.118,23.032 C178.262006,23.032 179.213496,23.1859985 179.9725,23.494 C180.731504,23.8020015 181.325498,24.2474971 181.7545,24.8305 C182.183502,25.4135029 182.485999,26.1174959 182.662,26.9425 C182.838001,27.7675041 182.926,28.6859949 182.926,29.698 C182.926,30.6660048 182.838001,31.5679958 182.662,32.404 C182.485999,33.2400042 182.178002,33.960497 181.738,34.5655 C181.297998,35.170503 180.687504,35.6434983 179.9065,35.9845 C179.125496,36.3255017 178.141006,36.496 176.953,36.496 L174.544,36.496 L174.544,46 L172.531,46 L172.531,23.032 L177.118,23.032 Z M174.544,34.615 L176.854,34.615 C177.690004,34.615 178.371997,34.4995012 178.9,34.2685 C179.428003,34.0374988 179.845998,33.7075021 180.154,33.2785 C180.462002,32.8494979 180.670999,32.332503 180.781,31.7275 C180.891001,31.122497 180.946,30.4570036 180.946,29.731 C180.946,29.0489966 180.8965,28.411003 180.7975,27.817 C180.698499,27.222997 180.500501,26.7115021 180.2035,26.2825 C179.906499,25.8534979 179.494003,25.5125013 178.966,25.2595 C178.437997,25.0064987 177.756004,24.88 176.92,24.88 L174.544,24.88 L174.544,34.615 Z M185.342333,46 L185.342333,23.032 L194.945333,23.032 L194.945333,24.913 L187.355333,24.913 L187.355333,33.328 L193.988333,33.328 L193.988333,35.209 L187.355333,35.209 L187.355333,44.152 L194.945333,44.152 L194.945333,46 L185.342333,46 Z M205.182667,46 L205.182667,35.176 L203.598667,35.176 C203.180665,35.176 202.768169,35.2199996 202.361167,35.308 C201.954165,35.3960004 201.580168,35.5719987 201.239167,35.836 C200.898165,36.1000013 200.584668,36.4684976 200.298667,36.9415 C200.012665,37.4145024 199.792667,38.0359962 199.638667,38.806 L198.087667,46 L196.074667,46 L197.724667,38.542 C197.966668,37.3979943 198.324164,36.430004 198.797167,35.638 C199.270169,34.845996 199.968662,34.3180013 200.892667,34.054 C200.166663,33.8119988 199.556169,33.3060038 199.061167,32.536 C198.566164,31.7659961 198.197668,30.8200056 197.955667,29.698 L196.437667,23.032 L198.285667,23.032 L199.902667,29.764 C200.078668,30.5120037 200.315165,31.1114977 200.612167,31.5625 C200.909168,32.0135023 201.239165,32.3654987 201.602167,32.6185 C201.965168,32.8715013 202.339165,33.0364996 202.724167,33.1135 C203.109169,33.1905004 203.477665,33.229 203.829667,33.229 L205.182667,33.229 L205.182667,23.032 L207.228667,23.032 L207.228667,33.229 L208.581667,33.229 C208.933668,33.229 209.302165,33.1905004 209.687167,33.1135 C210.072169,33.0364996 210.446165,32.8715013 210.809167,32.6185 C211.172168,32.3654987 211.502165,32.0135023 211.799167,31.5625 C212.096168,31.1114977 212.332666,30.5120037 212.508667,29.764 L214.125667,23.032 L215.973667,23.032 L214.488667,29.698 C214.224665,30.8200056 213.845169,31.7659961 213.350167,32.536 C212.855164,33.3060038 212.24467,33.8119988 211.518667,34.054 C212.464671,34.3180013 213.174164,34.845996 213.647167,35.638 C214.120169,36.430004 214.477665,37.3979943 214.719667,38.542 L216.369667,46 L214.323667,46 L212.772667,38.806 C212.596666,38.0359962 212.371168,37.4145024 212.096167,36.9415 C211.821165,36.4684976 211.513168,36.1000013 211.172167,35.836 C210.831165,35.5719987 210.462669,35.3960004 210.066667,35.308 C209.670665,35.2199996 209.263669,35.176 208.845667,35.176 L207.228667,35.176 L207.228667,46 L205.182667,46 Z M218.885,50.356 L217.07,50.356 L217.07,44.284 L218.225,44.152 C218.555002,43.8219984 218.840999,43.4645019 219.083,43.0795 C219.325001,42.6944981 219.517499,42.205003 219.6605,41.611 C219.803501,41.016997 219.9135,40.2855043 219.9905,39.4165 C220.0675,38.5474957 220.128,37.4750064 220.172,36.199 L220.502,23.032 L230.336,23.032 L230.336,44.218 L231.557,44.218 L231.557,50.356 L229.742,50.356 L229.742,46 L218.885,46 L218.885,50.356 Z M228.323,44.218 L228.323,24.847 L222.35,24.847 L222.053,36.199 C222.009,38.0910095 221.888001,39.6749936 221.69,40.951 C221.491999,42.2270064 221.118003,43.3159955 220.568,44.218 L228.323,44.218 Z M242.388333,46 L241.167333,40.456 L235.458333,40.456 L234.270333,46 L232.356333,46 L237.306333,23.032 L239.352333,23.032 L244.401333,46 L242.388333,46 Z M238.263333,26.398 L237.174333,31.942 L235.788333,38.542 L240.804333,38.542 L239.418333,31.876 L238.362333,26.398 L238.263333,26.398 Z M246.355667,46 L246.355667,23.032 L255.958667,23.032 L255.958667,24.913 L248.368667,24.913 L248.368667,33.328 L255.001667,33.328 L255.001667,35.209 L248.368667,35.209 L248.368667,44.152 L255.958667,44.152 L255.958667,46 L246.355667,46 Z M270.651,28.642 C270.540999,28.9060013 270.387001,29.2964974 270.189,29.8135 C269.990999,30.3305026 269.787501,30.8749971 269.5785,31.447 C269.369499,32.0190029 269.160501,32.5634974 268.9515,33.0805 C268.742499,33.5975026 268.594,33.9879987 268.506,34.252 C268.484,34.3180003 268.412501,34.5104984 268.2915,34.8295 C268.170499,35.1485016 268.022001,35.5279978 267.846,35.968 C267.669999,36.4080022 267.477501,36.8809975 267.2685,37.387 C267.059499,37.8930025 266.867001,38.3659978 266.691,38.806 C266.514999,39.2460022 266.361001,39.6254984 266.229,39.9445 C266.096999,40.2635016 266.02,40.4559997 265.998,40.522 L264.876,40.522 C264.765999,40.2359986 264.595501,39.8070029 264.3645,39.235 C264.133499,38.6629971 263.891501,38.0580032 263.6385,37.42 C263.385499,36.7819968 263.143501,36.1770029 262.9125,35.605 C262.681499,35.0329971 262.511001,34.6040014 262.401,34.318 L260.289,28.708 L260.157,28.708 L260.157,46 L258.144,46 L258.144,23.032 L260.19,23.032 C260.322001,23.3620016 260.519999,23.8679966 260.784,24.55 C261.048001,25.2320034 261.322999,25.9524962 261.609,26.7115 C261.895001,27.4705038 262.169999,28.1909966 262.434,28.873 C262.698001,29.5550034 262.884999,30.0609983 262.995,30.391 L265.404,36.793 L265.503,36.793 C265.613001,36.4849985 265.777999,36.034003 265.998,35.44 C266.218001,34.845997 266.454499,34.2190033 266.7075,33.559 C266.960501,32.8989967 267.202499,32.266503 267.4335,31.6615 C267.664501,31.056497 267.834999,30.6000015 267.945,30.292 C267.967,30.2259997 268.049499,30.0060019 268.1925,29.632 C268.335501,29.2579981 268.505999,28.8180025 268.704,28.312 C268.902001,27.8059975 269.116499,27.256003 269.3475,26.662 C269.578501,26.067997 269.787499,25.5180025 269.9745,25.012 C270.161501,24.5059975 270.326499,24.0715018 270.4695,23.7085 C270.612501,23.3454982 270.695,23.1200004 270.717,23.032 L272.796,23.032 L272.796,46 L270.783,46 L270.783,28.642 L270.651,28.642 Z M289.937667,33.955 C290.949672,34.2630015 291.648165,34.8954952 292.033167,35.8525 C292.418169,36.8095048 292.610667,37.9479934 292.610667,39.268 C292.610667,41.666012 292.115672,43.3874948 291.125667,44.4325 C290.135662,45.4775052 288.672676,46 286.736667,46 L282.149667,46 L282.149667,23.032 L286.967667,23.032 C287.957672,23.032 288.799163,23.1639987 289.492167,23.428 C290.18517,23.6920013 290.746164,24.0769975 291.175167,24.583 C291.604169,25.0890025 291.912166,25.7104963 292.099167,26.4475 C292.286168,27.1845037 292.379667,28.0149954 292.379667,28.939 C292.379667,30.1270059 292.203668,31.116996 291.851667,31.909 C291.499665,32.701004 290.861671,33.3389976 289.937667,33.823 L289.937667,33.955 Z M290.630667,39.103 C290.630667,37.7169931 290.361169,36.6500037 289.822167,35.902 C289.283164,35.1539963 288.353673,34.78 287.033667,34.78 L284.162667,34.78 L284.162667,44.152 L286.868667,44.152 C287.660671,44.152 288.304164,44.0200013 288.799167,43.756 C289.294169,43.4919987 289.673665,43.1290023 289.937667,42.667 C290.201668,42.2049977 290.383166,41.6660031 290.482167,41.05 C290.581167,40.4339969 290.630667,39.7850034 290.630667,39.103 L290.630667,39.103 Z M290.399667,28.906 C290.399667,27.6079935 290.113669,26.6125035 289.541667,25.9195 C288.969664,25.2264965 287.990674,24.88 286.604667,24.88 L284.162667,24.88 L284.162667,32.998 L286.868667,32.998 C288.166673,32.998 289.079664,32.6460035 289.607667,31.942 C290.135669,31.2379965 290.399667,30.2260066 290.399667,28.906 L290.399667,28.906 Z M304.333,46 L303.112,40.456 L297.403,40.456 L296.215,46 L294.301,46 L299.251,23.032 L301.297,23.032 L306.346,46 L304.333,46 Z M300.208,26.398 L299.119,31.942 L297.733,38.542 L302.749,38.542 L301.363,31.876 L300.307,26.398 L300.208,26.398 Z M313.217333,22.834 C314.823341,22.834 316.066329,23.2794955 316.946333,24.1705 C317.826338,25.0615045 318.266333,26.309992 318.266333,27.916 L316.220333,28.312 C316.242333,27.1239941 315.989336,26.227503 315.461333,25.6225 C314.933331,25.017497 314.174338,24.715 313.184333,24.715 C312.61233,24.715 312.133835,24.8249989 311.748833,25.045 C311.363831,25.2650011 311.050335,25.5564982 310.808333,25.9195 C310.566332,26.2825018 310.390334,26.6949977 310.280333,27.157 C310.170333,27.6190023 310.115333,28.0919976 310.115333,28.576 L310.115333,40.819 C310.115333,41.2590022 310.170333,41.6934979 310.280333,42.1225 C310.390334,42.5515021 310.566332,42.9309983 310.808333,43.261 C311.050335,43.5910017 311.363831,43.854999 311.748833,44.053 C312.133835,44.251001 312.61233,44.35 313.184333,44.35 C314.086338,44.35 314.812331,44.0695028 315.362333,43.5085 C315.912336,42.9474972 316.198333,42.0290064 316.220333,40.753 L318.299333,41.116 C318.255333,42.8100085 317.776838,44.0859957 316.863833,44.944 C315.950829,45.8020043 314.735341,46.231 313.217333,46.231 C311.545325,46.231 310.274838,45.7745046 309.405833,44.8615 C308.536829,43.9484954 308.102333,42.6340086 308.102333,40.918 L308.102333,28.807 C308.102333,27.9929959 308.190332,27.2230036 308.366333,26.497 C308.542334,25.7709964 308.828331,25.1385027 309.224333,24.5995 C309.620335,24.0604973 310.14283,23.6315016 310.791833,23.3125 C311.440837,22.9934984 312.249328,22.834 313.217333,22.834 L313.217333,22.834 Z M337.091,40.324 C337.091,42.2600097 336.656504,43.728495 335.7875,44.7295 C334.918496,45.730505 333.604009,46.231 331.844,46.231 C330.083991,46.231 328.780504,45.7580047 327.9335,44.812 C327.086496,43.8659953 326.663,42.5460085 326.663,40.852 L326.663,28.774 C326.663,27.9599959 326.750999,27.1900036 326.927,26.464 C327.103001,25.7379964 327.394498,25.1055027 327.8015,24.5665 C328.208502,24.0274973 328.747497,23.6040015 329.4185,23.296 C330.089503,22.9879985 330.908995,22.834 331.877,22.834 C332.867005,22.834 333.697497,22.9714986 334.3685,23.2465 C335.039503,23.5215014 335.572998,23.9174974 335.969,24.4345 C336.365002,24.9515026 336.650999,25.5674964 336.827,26.2825 C337.003001,26.9975036 337.091,27.7949956 337.091,28.675 L337.091,40.324 Z M335.045,28.378 C335.045,27.8939976 334.990001,27.4320022 334.88,26.992 C334.769999,26.5519978 334.594001,26.1615017 334.352,25.8205 C334.109999,25.4794983 333.785502,25.204501 333.3785,24.9955 C332.971498,24.786499 332.471003,24.682 331.877,24.682 C331.238997,24.682 330.711002,24.8194986 330.293,25.0945 C329.874998,25.3695014 329.545001,25.7159979 329.303,26.134 C329.060999,26.5520021 328.8905,27.0084975 328.7915,27.5035 C328.692499,27.9985025 328.643,28.4659978 328.643,28.906 L328.643,40.885 C328.643,41.3250022 328.703499,41.7539979 328.8245,42.172 C328.945501,42.5900021 329.132499,42.9639983 329.3855,43.294 C329.638501,43.6240016 329.968498,43.887999 330.3755,44.086 C330.782502,44.284001 331.271997,44.383 331.844,44.383 C333.010006,44.383 333.834998,44.0090037 334.319,43.261 C334.803002,42.5129963 335.045,41.6110053 335.045,40.555 L335.045,28.378 Z M354.034667,33.955 C355.046672,34.2630015 355.745165,34.8954952 356.130167,35.8525 C356.515169,36.8095048 356.707667,37.9479934 356.707667,39.268 C356.707667,41.666012 356.212672,43.3874948 355.222667,44.4325 C354.232662,45.4775052 352.769676,46 350.833667,46 L346.246667,46 L346.246667,23.032 L351.064667,23.032 C352.054672,23.032 352.896163,23.1639987 353.589167,23.428 C354.28217,23.6920013 354.843164,24.0769975 355.272167,24.583 C355.701169,25.0890025 356.009166,25.7104963 356.196167,26.4475 C356.383168,27.1845037 356.476667,28.0149954 356.476667,28.939 C356.476667,30.1270059 356.300668,31.116996 355.948667,31.909 C355.596665,32.701004 354.958671,33.3389976 354.034667,33.823 L354.034667,33.955 Z M354.727667,39.103 C354.727667,37.7169931 354.458169,36.6500037 353.919167,35.902 C353.380164,35.1539963 352.450673,34.78 351.130667,34.78 L348.259667,34.78 L348.259667,44.152 L350.965667,44.152 C351.757671,44.152 352.401164,44.0200013 352.896167,43.756 C353.391169,43.4919987 353.770665,43.1290023 354.034667,42.667 C354.298668,42.2049977 354.480166,41.6660031 354.579167,41.05 C354.678167,40.4339969 354.727667,39.7850034 354.727667,39.103 L354.727667,39.103 Z M354.496667,28.906 C354.496667,27.6079935 354.210669,26.6125035 353.638667,25.9195 C353.066664,25.2264965 352.087674,24.88 350.701667,24.88 L348.259667,24.88 L348.259667,32.998 L350.965667,32.998 C352.263673,32.998 353.176664,32.6460035 353.704667,31.942 C354.232669,31.2379965 354.496667,30.2260066 354.496667,28.906 L354.496667,28.906 Z M364.338,23.032 C365.482006,23.032 366.433496,23.1859985 367.1925,23.494 C367.951504,23.8020015 368.545498,24.2474971 368.9745,24.8305 C369.403502,25.4135029 369.705999,26.1174959 369.882,26.9425 C370.058001,27.7675041 370.146,28.6859949 370.146,29.698 C370.146,30.6660048 370.058001,31.5679958 369.882,32.404 C369.705999,33.2400042 369.398002,33.960497 368.958,34.5655 C368.517998,35.170503 367.907504,35.6434983 367.1265,35.9845 C366.345496,36.3255017 365.361006,36.496 364.173,36.496 L361.764,36.496 L361.764,46 L359.751,46 L359.751,23.032 L364.338,23.032 Z M361.764,34.615 L364.074,34.615 C364.910004,34.615 365.591997,34.4995012 366.12,34.2685 C366.648003,34.0374988 367.065998,33.7075021 367.374,33.2785 C367.682001,32.8494979 367.890999,32.332503 368.001,31.7275 C368.111001,31.122497 368.166,30.4570036 368.166,29.731 C368.166,29.0489966 368.1165,28.411003 368.0175,27.817 C367.918499,27.222997 367.720501,26.7115021 367.4235,26.2825 C367.126498,25.8534979 366.714003,25.5125013 366.186,25.2595 C365.657997,25.0064987 364.976004,24.88 364.14,24.88 L361.764,24.88 L361.764,34.615 Z M372.562333,46 L372.562333,23.032 L382.165333,23.032 L382.165333,24.913 L374.575333,24.913 L374.575333,33.328 L381.208333,33.328 L381.208333,35.209 L374.575333,35.209 L374.575333,44.152 L382.165333,44.152 L382.165333,46 L372.562333,46 Z M384.581667,50.356 L382.766667,50.356 L382.766667,44.284 L383.921667,44.152 C384.251668,43.8219984 384.537665,43.4645019 384.779667,43.0795 C385.021668,42.6944981 385.214166,42.205003 385.357167,41.611 C385.500167,41.016997 385.610166,40.2855043 385.687167,39.4165 C385.764167,38.5474957 385.824666,37.4750064 385.868667,36.199 L386.198667,23.032 L396.032667,23.032 L396.032667,44.218 L397.253667,44.218 L397.253667,50.356 L395.438667,50.356 L395.438667,46 L384.581667,46 L384.581667,50.356 Z M394.019667,44.218 L394.019667,24.847 L388.046667,24.847 L387.749667,36.199 C387.705666,38.0910095 387.584668,39.6749936 387.386667,40.951 C387.188666,42.2270064 386.814669,43.3159955 386.264667,44.218 L394.019667,44.218 Z M399.406,46 L399.406,23.032 L409.009,23.032 L409.009,24.913 L401.419,24.913 L401.419,33.328 L408.052,33.328 L408.052,35.209 L401.419,35.209 L401.419,44.152 L409.009,44.152 L409.009,46 L399.406,46 Z M417.570667,23.032 L417.570667,31.084 C417.570667,32.4480068 417.856664,33.3939974 418.428667,33.922 C419.000669,34.4500026 419.92466,34.714 421.200667,34.714 C421.552668,34.714 421.981664,34.6700004 422.487667,34.582 C422.993669,34.4939996 423.466664,34.3620009 423.906667,34.186 L423.906667,23.032 L425.952667,23.032 L425.952667,46 L423.906667,46 L423.906667,35.803 C423.466664,35.9790009 422.94967,36.1109996 422.355667,36.199 C421.761664,36.2870004 421.222669,36.331 420.738667,36.331 C419.946663,36.331 419.23717,36.2430009 418.610167,36.067 C417.983163,35.8909991 417.449669,35.599502 417.009667,35.1925 C416.569664,34.785498 416.228668,34.2465034 415.986667,33.5755 C415.744665,32.9044966 415.623667,32.0850048 415.623667,31.117 L415.623667,23.032 L417.570667,23.032 Z M433.847,23.032 C434.991006,23.032 435.942496,23.1859985 436.7015,23.494 C437.460504,23.8020015 438.054498,24.2474971 438.4835,24.8305 C438.912502,25.4135029 439.214999,26.1174959 439.391,26.9425 C439.567001,27.7675041 439.655,28.6859949 439.655,29.698 C439.655,30.6660048 439.567001,31.5679958 439.391,32.404 C439.214999,33.2400042 438.907002,33.960497 438.467,34.5655 C438.026998,35.170503 437.416504,35.6434983 436.6355,35.9845 C435.854496,36.3255017 434.870006,36.496 433.682,36.496 L431.273,36.496 L431.273,46 L429.26,46 L429.26,23.032 L433.847,23.032 Z M431.273,34.615 L433.583,34.615 C434.419004,34.615 435.100997,34.4995012 435.629,34.2685 C436.157003,34.0374988 436.574998,33.7075021 436.883,33.2785 C437.191001,32.8494979 437.399999,32.332503 437.51,31.7275 C437.62,31.122497 437.675,30.4570036 437.675,29.731 C437.675,29.0489966 437.6255,28.411003 437.5265,27.817 C437.427499,27.222997 437.229501,26.7115021 436.9325,26.2825 C436.635498,25.8534979 436.223003,25.5125013 435.695,25.2595 C435.166997,25.0064987 434.485004,24.88 433.649,24.88 L431.273,24.88 L431.273,34.615 Z M442.071333,46 L442.071333,23.032 L451.674333,23.032 L451.674333,24.913 L444.084333,24.913 L444.084333,33.328 L450.717333,33.328 L450.717333,35.209 L444.084333,35.209 L444.084333,44.152 L451.674333,44.152 L451.674333,46 L442.071333,46 Z M460.756667,38.938 C460.756667,36.2539866 459.733677,34.912 457.687667,34.912 L456.499667,34.912 L456.499667,33.097 L457.852667,33.097 C458.55667,33.097 459.106665,32.9760012 459.502667,32.734 C459.898669,32.4919988 460.195666,32.1620021 460.393667,31.744 C460.591668,31.3259979 460.712666,30.8420027 460.756667,30.292 C460.800667,29.7419973 460.822667,29.1480032 460.822667,28.51 C460.822667,27.8059965 460.740167,27.2120024 460.575167,26.728 C460.410166,26.2439976 460.190168,25.8535015 459.915167,25.5565 C459.640165,25.2594985 459.310169,25.0450007 458.925167,24.913 C458.540165,24.7809993 458.127669,24.715 457.687667,24.715 C456.697662,24.715 455.927669,25.0339968 455.377667,25.672 C454.827664,26.3100032 454.552667,27.1899944 454.552667,28.312 L452.605667,27.85 C452.627667,27.0139958 452.781665,26.2825031 453.067667,25.6555 C453.353668,25.0284969 453.727664,24.5060021 454.189667,24.088 C454.651669,23.6699979 455.190664,23.356501 455.806667,23.1475 C456.42267,22.938499 457.071663,22.834 457.753667,22.834 C459.183674,22.834 460.333162,23.1804965 461.202167,23.8735 C462.071171,24.5665035 462.582666,25.7269919 462.736667,27.355 C462.780667,27.5750011 462.802667,27.8004988 462.802667,28.0315 L462.802667,28.774 C462.802667,29.170002 462.780667,29.6264974 462.736667,30.1435 C462.692666,30.6605026 462.593667,31.1664975 462.439667,31.6615 C462.285666,32.1565025 462.076668,32.607498 461.812667,33.0145 C461.548665,33.421502 461.185669,33.723999 460.723667,33.922 L460.723667,33.988 C461.163669,34.186001 461.515665,34.4499984 461.779667,34.78 C462.043668,35.1100017 462.252666,35.472998 462.406667,35.869 C462.560667,36.265002 462.659666,36.6774979 462.703667,37.1065 C462.747667,37.5355021 462.780666,37.947998 462.802667,38.344 L462.802667,39.598 L462.802667,40.3405 C462.802667,40.5715012 462.791667,40.8079988 462.769667,41.05 C462.659666,42.8100088 462.142671,44.1134958 461.218667,44.9605 C460.294662,45.8075042 459.095674,46.231 457.621667,46.231 C456.917663,46.231 456.26317,46.1375009 455.658167,45.9505 C455.053164,45.7634991 454.519669,45.466502 454.057667,45.0595 C453.595664,44.652498 453.232668,44.1410031 452.968667,43.525 C452.704665,42.9089969 452.572667,42.1720043 452.572667,41.314 L452.572667,41.182 L454.519667,40.786 C454.519667,42.1280067 454.805664,43.0629974 455.377667,43.591 C455.949669,44.1190026 456.697662,44.383 457.621667,44.383 C458.083669,44.383 458.501665,44.3115007 458.875667,44.1685 C459.249668,44.0254993 459.579665,43.7835017 459.865667,43.4425 C460.151668,43.1014983 460.371666,42.6505028 460.525667,42.0895 C460.679667,41.5284972 460.756667,40.8300042 460.756667,39.994 L460.756667,38.938 Z M478.716,28.642 C478.605999,28.9060013 478.452001,29.2964974 478.254,29.8135 C478.055999,30.3305026 477.852501,30.8749971 477.6435,31.447 C477.434499,32.0190029 477.225501,32.5634974 477.0165,33.0805 C476.807499,33.5975026 476.659,33.9879987 476.571,34.252 C476.549,34.3180003 476.477501,34.5104984 476.3565,34.8295 C476.235499,35.1485016 476.087001,35.5279978 475.911,35.968 C475.734999,36.4080022 475.542501,36.8809975 475.3335,37.387 C475.124499,37.8930025 474.932001,38.3659978 474.756,38.806 C474.579999,39.2460022 474.426001,39.6254984 474.294,39.9445 C474.161999,40.2635016 474.085,40.4559997 474.063,40.522 L472.941,40.522 C472.830999,40.2359986 472.660501,39.8070029 472.4295,39.235 C472.198499,38.6629971 471.956501,38.0580032 471.7035,37.42 C471.450499,36.7819968 471.208501,36.1770029 470.9775,35.605 C470.746499,35.0329971 470.576,34.6040014 470.466,34.318 L468.354,28.708 L468.222,28.708 L468.222,46 L466.209,46 L466.209,23.032 L468.255,23.032 C468.387001,23.3620016 468.584999,23.8679966 468.849,24.55 C469.113001,25.2320034 469.387999,25.9524962 469.674,26.7115 C469.960001,27.4705038 470.234999,28.1909966 470.499,28.873 C470.763001,29.5550034 470.949999,30.0609983 471.06,30.391 L473.469,36.793 L473.568,36.793 C473.678,36.4849985 473.842999,36.034003 474.063,35.44 C474.283001,34.845997 474.519499,34.2190033 474.7725,33.559 C475.025501,32.8989967 475.267499,32.266503 475.4985,31.6615 C475.729501,31.056497 475.899999,30.6000015 476.01,30.292 C476.032,30.2259997 476.114499,30.0060019 476.2575,29.632 C476.400501,29.2579981 476.570999,28.8180025 476.769,28.312 C476.967001,27.8059975 477.181499,27.256003 477.4125,26.662 C477.643501,26.067997 477.852499,25.5180025 478.0395,25.012 C478.226501,24.5059975 478.391499,24.0715018 478.5345,23.7085 C478.677501,23.3454982 478.76,23.1200004 478.782,23.032 L480.861,23.032 L480.861,46 L478.848,46 L478.848,28.642 L478.716,28.642 Z M484.234333,46 L484.234333,23.032 L493.837333,23.032 L493.837333,24.913 L486.247333,24.913 L486.247333,33.328 L492.880333,33.328 L492.880333,35.209 L486.247333,35.209 L486.247333,44.152 L493.837333,44.152 L493.837333,46 L484.234333,46 Z M500.642667,23.032 C501.786672,23.032 502.738163,23.1859985 503.497167,23.494 C504.25617,23.8020015 504.850164,24.2474971 505.279167,24.8305 C505.708169,25.4135029 506.010666,26.1174959 506.186667,26.9425 C506.362667,27.7675041 506.450667,28.6859949 506.450667,29.698 C506.450667,30.6660048 506.362667,31.5679958 506.186667,32.404 C506.010666,33.2400042 505.702669,33.960497 505.262667,34.5655 C504.822664,35.170503 504.212171,35.6434983 503.431167,35.9845 C502.650163,36.3255017 501.665673,36.496 500.477667,36.496 L498.068667,36.496 L498.068667,46 L496.055667,46 L496.055667,23.032 L500.642667,23.032 Z M498.068667,34.615 L500.378667,34.615 C501.214671,34.615 501.896664,34.4995012 502.424667,34.2685 C502.952669,34.0374988 503.370665,33.7075021 503.678667,33.2785 C503.986668,32.8494979 504.195666,32.332503 504.305667,31.7275 C504.415667,31.122497 504.470667,30.4570036 504.470667,29.731 C504.470667,29.0489966 504.421167,28.411003 504.322167,27.817 C504.223166,27.222997 504.025168,26.7115021 503.728167,26.2825 C503.431165,25.8534979 503.018669,25.5125013 502.490667,25.2595 C501.962664,25.0064987 501.280671,24.88 500.444667,24.88 L498.068667,24.88 L498.068667,34.615 Z M517.183,46 L517.183,35.143 L510.88,35.143 L510.88,46 L508.867,46 L508.867,23.032 L510.88,23.032 L510.88,33.361 L517.183,33.361 L517.183,23.032 L519.229,23.032 L519.229,46 L517.183,46 Z M532.865333,40.324 C532.865333,42.2600097 532.430838,43.728495 531.561833,44.7295 C530.692829,45.730505 529.378342,46.231 527.618333,46.231 C525.858324,46.231 524.554838,45.7580047 523.707833,44.812 C522.860829,43.8659953 522.437333,42.5460085 522.437333,40.852 L522.437333,28.774 C522.437333,27.9599959 522.525332,27.1900036 522.701333,26.464 C522.877334,25.7379964 523.168831,25.1055027 523.575833,24.5665 C523.982835,24.0274973 524.52183,23.6040015 525.192833,23.296 C525.863837,22.9879985 526.683328,22.834 527.651333,22.834 C528.641338,22.834 529.47183,22.9714986 530.142833,23.2465 C530.813837,23.5215014 531.347331,23.9174974 531.743333,24.4345 C532.139335,24.9515026 532.425332,25.5674964 532.601333,26.2825 C532.777334,26.9975036 532.865333,27.7949956 532.865333,28.675 L532.865333,40.324 Z M530.819333,28.378 C530.819333,27.8939976 530.764334,27.4320022 530.654333,26.992 C530.544333,26.5519978 530.368334,26.1615017 530.126333,25.8205 C529.884332,25.4794983 529.559835,25.204501 529.152833,24.9955 C528.745831,24.786499 528.245336,24.682 527.651333,24.682 C527.01333,24.682 526.485335,24.8194986 526.067333,25.0945 C525.649331,25.3695014 525.319334,25.7159979 525.077333,26.134 C524.835332,26.5520021 524.664834,27.0084975 524.565833,27.5035 C524.466833,27.9985025 524.417333,28.4659978 524.417333,28.906 L524.417333,40.885 C524.417333,41.3250022 524.477833,41.7539979 524.598833,42.172 C524.719834,42.5900021 524.906832,42.9639983 525.159833,43.294 C525.412835,43.6240016 525.742831,43.887999 526.149833,44.086 C526.556835,44.284001 527.04633,44.383 527.618333,44.383 C528.784339,44.383 529.609331,44.0090037 530.093333,43.261 C530.577336,42.5129963 530.819333,41.6110053 530.819333,40.555 L530.819333,28.378 Z M538.053667,24.913 L538.053667,46 L536.040667,46 L536.040667,23.032 L545.280667,23.032 L545.280667,24.913 L538.053667,24.913 Z M557.861,40.324 C557.861,42.2600097 557.426504,43.728495 556.5575,44.7295 C555.688496,45.730505 554.374009,46.231 552.614,46.231 C550.853991,46.231 549.550504,45.7580047 548.7035,44.812 C547.856496,43.8659953 547.433,42.5460085 547.433,40.852 L547.433,28.774 C547.433,27.9599959 547.520999,27.1900036 547.697,26.464 C547.873001,25.7379964 548.164498,25.1055027 548.5715,24.5665 C548.978502,24.0274973 549.517497,23.6040015 550.1885,23.296 C550.859503,22.9879985 551.678995,22.834 552.647,22.834 C553.637005,22.834 554.467497,22.9714986 555.1385,23.2465 C555.809503,23.5215014 556.342998,23.9174974 556.739,24.4345 C557.135002,24.9515026 557.420999,25.5674964 557.597,26.2825 C557.773001,26.9975036 557.861,27.7949956 557.861,28.675 L557.861,40.324 Z M555.815,28.378 C555.815,27.8939976 555.76,27.4320022 555.65,26.992 C555.539999,26.5519978 555.364001,26.1615017 555.122,25.8205 C554.879999,25.4794983 554.555502,25.204501 554.1485,24.9955 C553.741498,24.786499 553.241003,24.682 552.647,24.682 C552.008997,24.682 551.481002,24.8194986 551.063,25.0945 C550.644998,25.3695014 550.315001,25.7159979 550.073,26.134 C549.830999,26.5520021 549.6605,27.0084975 549.5615,27.5035 C549.462499,27.9985025 549.413,28.4659978 549.413,28.906 L549.413,40.885 C549.413,41.3250022 549.473499,41.7539979 549.5945,42.172 C549.715501,42.5900021 549.902499,42.9639983 550.1555,43.294 C550.408501,43.6240016 550.738498,43.887999 551.1455,44.086 C551.552502,44.284001 552.041997,44.383 552.614,44.383 C553.780006,44.383 554.604998,44.0090037 555.089,43.261 C555.573002,42.5129963 555.815,41.6110053 555.815,40.555 L555.815,28.378 Z M571.669667,37.189 L575.200667,23.032 L577.147667,23.032 L572.362667,41.017 C572.054665,42.1830058 571.730168,43.1069966 571.389167,43.789 C571.048165,44.4710034 570.696168,44.9824983 570.333167,45.3235 C569.970165,45.6645017 569.585169,45.8844995 569.178167,45.9835 C568.771165,46.0825005 568.358669,46.1429999 567.940667,46.165 L566.917667,46.165 L566.917667,44.515 L567.874667,44.515 C568.380669,44.515 568.853664,44.2840023 569.293667,43.822 C569.733669,43.3599977 570.096665,42.5790055 570.382667,41.479 L570.712667,40.159 L565.597667,23.065 L567.610667,23.065 L571.570667,37.189 L571.669667,37.189 Z M587.253,46 L587.253,24.946 L581.214,24.946 L581.214,46 L579.201,46 L579.201,23.032 L589.299,23.032 L589.299,46 L587.253,46 Z M602.902333,40.324 C602.902333,42.2600097 602.467838,43.728495 601.598833,44.7295 C600.729829,45.730505 599.415342,46.231 597.655333,46.231 C595.895324,46.231 594.591837,45.7580047 593.744833,44.812 C592.897829,43.8659953 592.474333,42.5460085 592.474333,40.852 L592.474333,28.774 C592.474333,27.9599959 592.562332,27.1900036 592.738333,26.464 C592.914334,25.7379964 593.205831,25.1055027 593.612833,24.5665 C594.019835,24.0274973 594.55883,23.6040015 595.229833,23.296 C595.900837,22.9879985 596.720328,22.834 597.688333,22.834 C598.678338,22.834 599.50883,22.9714986 600.179833,23.2465 C600.850837,23.5215014 601.384331,23.9174974 601.780333,24.4345 C602.176335,24.9515026 602.462332,25.5674964 602.638333,26.2825 C602.814334,26.9975036 602.902333,27.7949956 602.902333,28.675 L602.902333,40.324 Z M600.856333,28.378 C600.856333,27.8939976 600.801334,27.4320022 600.691333,26.992 C600.581333,26.5519978 600.405334,26.1615017 600.163333,25.8205 C599.921332,25.4794983 599.596835,25.204501 599.189833,24.9955 C598.782831,24.786499 598.282336,24.682 597.688333,24.682 C597.05033,24.682 596.522335,24.8194986 596.104333,25.0945 C595.686331,25.3695014 595.356334,25.7159979 595.114333,26.134 C594.872332,26.5520021 594.701834,27.0084975 594.602833,27.5035 C594.503833,27.9985025 594.454333,28.4659978 594.454333,28.906 L594.454333,40.885 C594.454333,41.3250022 594.514833,41.7539979 594.635833,42.172 C594.756834,42.5900021 594.943832,42.9639983 595.196833,43.294 C595.449835,43.6240016 595.779831,43.887999 596.186833,44.086 C596.593835,44.284001 597.08333,44.383 597.655333,44.383 C598.821339,44.383 599.646331,44.0090037 600.130333,43.261 C600.614336,42.5129963 600.856333,41.6110053 600.856333,40.555 L600.856333,28.378 Z M610.631667,24.88 L610.631667,46 L608.552667,46 L608.552667,24.88 L604.427667,24.88 L604.427667,23.032 L614.756667,23.032 L614.756667,24.88 L610.631667,24.88 Z M621.133,23.032 C622.277006,23.032 623.228496,23.1859985 623.9875,23.494 C624.746504,23.8020015 625.340498,24.2474971 625.7695,24.8305 C626.198502,25.4135029 626.500999,26.1174959 626.677,26.9425 C626.853001,27.7675041 626.941,28.6859949 626.941,29.698 C626.941,30.6660048 626.853001,31.5679958 626.677,32.404 C626.500999,33.2400042 626.193002,33.960497 625.753,34.5655 C625.312998,35.170503 624.702504,35.6434983 623.9215,35.9845 C623.140496,36.3255017 622.156006,36.496 620.968,36.496 L618.559,36.496 L618.559,46 L616.546,46 L616.546,23.032 L621.133,23.032 Z M618.559,34.615 L620.869,34.615 C621.705004,34.615 622.386997,34.4995012 622.915,34.2685 C623.443003,34.0374988 623.860998,33.7075021 624.169,33.2785 C624.477001,32.8494979 624.685999,32.332503 624.796,31.7275 C624.906,31.122497 624.961,30.4570036 624.961,29.731 C624.961,29.0489966 624.9115,28.411003 624.8125,27.817 C624.713499,27.222997 624.515501,26.7115021 624.2185,26.2825 C623.921498,25.8534979 623.509003,25.5125013 622.981,25.2595 C622.452997,25.0064987 621.771004,24.88 620.935,24.88 L618.559,24.88 L618.559,34.615 Z M629.357333,46 L629.357333,23.032 L638.960333,23.032 L638.960333,24.913 L631.370333,24.913 L631.370333,33.328 L638.003333,33.328 L638.003333,35.209 L631.370333,35.209 L631.370333,44.152 L638.960333,44.152 L638.960333,46 L629.357333,46 Z M643.026667,44.053 L645.435667,44.053 C646.271671,44.053 646.948164,43.9265013 647.465167,43.6735 C647.982169,43.4204987 648.389165,43.0795021 648.686167,42.6505 C648.983168,42.2214979 649.181166,41.7155029 649.280167,41.1325 C649.379167,40.5494971 649.428667,39.9170034 649.428667,39.235 C649.428667,38.5529966 649.368167,37.9315028 649.247167,37.3705 C649.126166,36.8094972 648.911668,36.325502 648.603667,35.9185 C648.295665,35.511498 647.883169,35.1980011 647.366167,34.978 C646.849164,34.7579989 646.183671,34.648 645.369667,34.648 L643.026667,34.648 L643.026667,44.053 Z M643.026667,32.734 L645.468667,32.734 C646.656673,32.734 647.641163,32.8934984 648.422167,33.2125 C649.20317,33.5315016 649.813664,33.9769971 650.253667,34.549 C650.693669,35.1210029 651.001666,35.802996 651.177667,36.595 C651.353667,37.387004 651.441667,38.2559953 651.441667,39.202 C651.441667,40.2140051 651.353667,41.1379958 651.177667,41.974 C651.001666,42.8100042 650.693669,43.524997 650.253667,44.119 C649.813664,44.713003 649.21967,45.1749983 648.471667,45.505 C647.723663,45.8350017 646.766672,46 645.600667,46 L641.013667,46 L641.013667,23.032 L650.154667,23.032 L650.154667,24.913 L643.026667,24.913 L643.026667,32.734 Z M657.092,34.582 C657.092,36.6500103 657.031501,38.3549933 656.9105,39.697 C656.789499,41.0390067 656.586001,42.1499956 656.3,43.03 C656.013998,43.9100044 655.623502,44.6194973 655.1285,45.1585 C654.633497,45.6975027 654.023004,46.1869978 653.297,46.627 L652.373,45.142 C652.835002,44.8119983 653.241998,44.4545019 653.594,44.0695 C653.946002,43.6844981 654.248499,43.1620033 654.5015,42.502 C654.754501,41.8419967 654.941499,40.9840053 655.0625,39.928 C655.183501,38.8719947 655.244,37.5080084 655.244,35.836 L655.244,23.032 L664.715,23.032 L664.715,46 L662.702,46 L662.702,24.913 L657.092,24.913 L657.092,34.582 Z M668.121333,46 L668.121333,23.032 L677.724333,23.032 L677.724333,24.913 L670.134333,24.913 L670.134333,33.328 L676.767333,33.328 L676.767333,35.209 L670.134333,35.209 L670.134333,44.152 L677.724333,44.152 L677.724333,46 L668.121333,46 Z M688.258667,46 L688.258667,35.143 L681.955667,35.143 L681.955667,46 L679.942667,46 L679.942667,23.032 L681.955667,23.032 L681.955667,33.361 L688.258667,33.361 L688.258667,23.032 L690.304667,23.032 L690.304667,46 L688.258667,46 Z M702.291,27.949 L695.526,46 L693.645,46 L693.645,23.032 L695.625,23.032 L695.625,41.116 L695.757,41.149 L702.456,23.032 L704.403,23.032 L704.403,46 L702.39,46 L702.39,27.949 L702.291,27.949 Z M706.687333,46 L708.106333,38.839 C708.282334,37.9369955 708.546331,37.1285036 708.898333,36.4135 C709.250335,35.6984964 709.811329,35.1540019 710.581333,34.78 C709.415327,34.4499984 708.617835,33.8285046 708.188833,32.9155 C707.759831,32.0024954 707.545333,30.8860066 707.545333,29.566 C707.545333,27.4979897 708.001829,25.8920057 708.914833,24.748 C709.827838,23.6039943 711.285323,23.032 713.287333,23.032 L717.973333,23.032 L717.973333,46 L715.960333,46 L715.960333,35.473 L713.749333,35.473 C713.397331,35.473 713.034335,35.5169996 712.660333,35.605 C712.286331,35.6930004 711.934335,35.8689987 711.604333,36.133 C711.274332,36.3970013 710.977335,36.7654976 710.713333,37.2385 C710.449332,37.7115024 710.240334,38.343996 710.086333,39.136 L708.733333,46 L706.687333,46 Z M709.558333,29.566 C709.558333,30.9960071 709.88833,32.0409967 710.548333,32.701 C711.208337,33.3610033 712.176327,33.691 713.452333,33.691 L715.960333,33.691 L715.960333,24.913 L713.617333,24.913 C712.847329,24.913 712.203836,25.0284988 711.686833,25.2595 C711.169831,25.4905012 710.757335,25.809498 710.449333,26.2165 C710.141332,26.623502 709.915834,27.1129971 709.772833,27.685 C709.629833,28.2570029 709.558333,28.8839966 709.558333,29.566 L709.558333,29.566 Z M735.379,46 L735.379,24.946 L729.34,24.946 L729.34,46 L727.327,46 L727.327,23.032 L737.425,23.032 L737.425,46 L735.379,46 Z M749.378333,27.949 L742.613333,46 L740.732333,46 L740.732333,23.032 L742.712333,23.032 L742.712333,41.116 L742.844333,41.149 L749.543333,23.032 L751.490333,23.032 L751.490333,46 L749.477333,46 L749.477333,27.949 L749.378333,27.949 Z M762.585667,33.955 C763.597672,34.2630015 764.296165,34.8954952 764.681167,35.8525 C765.066168,36.8095048 765.258667,37.9479934 765.258667,39.268 C765.258667,41.666012 764.763672,43.3874948 763.773667,44.4325 C762.783662,45.4775052 761.320676,46 759.384667,46 L754.797667,46 L754.797667,23.032 L759.615667,23.032 C760.605672,23.032 761.447163,23.1639987 762.140167,23.428 C762.83317,23.6920013 763.394164,24.0769975 763.823167,24.583 C764.252169,25.0890025 764.560166,25.7104963 764.747167,26.4475 C764.934167,27.1845037 765.027667,28.0149954 765.027667,28.939 C765.027667,30.1270059 764.851668,31.116996 764.499667,31.909 C764.147665,32.701004 763.509671,33.3389976 762.585667,33.823 L762.585667,33.955 Z M763.278667,39.103 C763.278667,37.7169931 763.009169,36.6500037 762.470167,35.902 C761.931164,35.1539963 761.001673,34.78 759.681667,34.78 L756.810667,34.78 L756.810667,44.152 L759.516667,44.152 C760.308671,44.152 760.952164,44.0200013 761.447167,43.756 C761.942169,43.4919987 762.321665,43.1290023 762.585667,42.667 C762.849668,42.2049977 763.031166,41.6660031 763.130167,41.05 C763.229167,40.4339969 763.278667,39.7850034 763.278667,39.103 L763.278667,39.103 Z M763.047667,28.906 C763.047667,27.6079935 762.761669,26.6125035 762.189667,25.9195 C761.617664,25.2264965 760.638673,24.88 759.252667,24.88 L756.810667,24.88 L756.810667,32.998 L759.516667,32.998 C760.814673,32.998 761.727664,32.6460035 762.255667,31.942 C762.783669,31.2379965 763.047667,30.2260066 763.047667,28.906 L763.047667,28.906 Z M776.981,46 L775.76,40.456 L770.051,40.456 L768.863,46 L766.949,46 L771.899,23.032 L773.945,23.032 L778.994,46 L776.981,46 Z M772.856,26.398 L771.767,31.942 L770.381,38.542 L775.397,38.542 L774.011,31.876 L772.955,26.398 L772.856,26.398 Z" id="ПРЕДУПРЕЖДАЕМ-ВАС-О"></path>
                    </g>
                </g>
            </g>
        </g>
    </g>
</svg>